<svg version="1.1" xmlns="http://www.w3.org/2000/svg" viewBox="0 0 1849.043423828607 1097.949849458225" width="1849.043423828607" height="1097.949849458225" filter="invert(93%) hue-rotate(180deg)">
  <!-- svg-source:excalidraw -->
  
  <defs>
    <style class="style-fonts">
      @font-face {
        font-family: "Virgil";
        src: url("https://excalidraw.com/Virgil.woff2");
      }
      @font-face {
        font-family: "Cascadia";
        src: url("https://excalidraw.com/Cascadia.woff2");
      }
    </style>
    
  </defs>
  <rect x="0" y="0" width="1849.043423828607" height="1097.949849458225" fill="#ffffff"></rect><g stroke-linecap="round" transform="translate(395.3815786134119 151.73388395508482) rotate(0 47.144709127266196 43.25269195895635)"><path d="M51.48 0.73 C59.45 0.84, 69.23 4.15, 75.88 8.84 C82.52 13.54, 88.54 21.45, 91.37 28.91 C94.2 36.38, 94.95 45.83, 92.87 53.62 C90.79 61.4, 85.19 70.29, 78.92 75.63 C72.65 80.98, 63.6 84.59, 55.26 85.69 C46.92 86.78, 36.58 85.15, 28.88 82.2 C21.18 79.25, 13.84 74.1, 9.06 67.98 C4.27 61.85, 0.5 53.33, 0.15 45.47 C-0.21 37.61, 2.75 27.55, 6.92 20.82 C11.1 14.09, 17.31 8.61, 25.19 5.09 C33.07 1.58, 49.03 0.38, 54.22 -0.26 C59.41 -0.91, 56.26 0.29, 56.33 1.21 M62.75 1.65 C70.3 3.57, 77.64 9.87, 82.73 16.08 C87.82 22.29, 92.39 30.97, 93.28 38.91 C94.17 46.85, 91.5 56.73, 88.07 63.72 C84.64 70.71, 79.77 76.8, 72.7 80.84 C65.63 84.87, 54.48 88.24, 45.64 87.9 C36.8 87.57, 26.67 83.73, 19.68 78.84 C12.7 73.96, 7.09 65.82, 3.74 58.62 C0.4 51.41, -1.7 43.23, -0.37 35.6 C0.97 27.97, 6 18.32, 11.73 12.85 C17.47 7.38, 25.54 4.39, 34.04 2.78 C42.55 1.16, 58.3 3.13, 62.74 3.15 C67.18 3.17, 61.05 2.52, 60.69 2.9" stroke="none" stroke-width="0" fill="#e7f5ff"></path><path d="M67.84 3.51 C75.55 6.24, 84.13 14, 88.4 20.91 C92.67 27.81, 93.69 37.13, 93.46 44.93 C93.22 52.72, 91.76 61.37, 87 67.69 C82.24 74, 72.81 79.86, 64.89 82.8 C56.98 85.73, 47.81 86.64, 39.52 85.29 C31.23 83.94, 21.62 79.76, 15.14 74.7 C8.67 69.65, 2.74 62.27, 0.67 54.97 C-1.41 47.66, -0.12 38.44, 2.69 30.86 C5.51 23.27, 11.2 14.73, 17.56 9.47 C23.91 4.22, 31.57 -0.16, 40.84 -0.66 C50.1 -1.17, 67.12 4.65, 73.14 6.43 C79.15 8.21, 77.57 9.24, 76.92 10.02 M60.41 2.55 C68.38 3.98, 76.75 7.97, 82.19 13.58 C87.62 19.18, 91.7 28.16, 93 36.2 C94.3 44.23, 93.28 54.78, 89.98 61.79 C86.68 68.81, 80.26 74.13, 73.21 78.29 C66.16 82.44, 56.39 86.23, 47.68 86.74 C38.96 87.26, 27.9 85.6, 20.93 81.39 C13.95 77.18, 9.43 68.58, 5.83 61.49 C2.23 54.4, -1.36 46.74, -0.65 38.85 C0.06 30.95, 4.44 20.5, 10.09 14.12 C15.74 7.73, 24.93 2.42, 33.27 0.54 C41.61 -1.34, 55.71 2.44, 60.11 2.84 C64.51 3.23, 59.76 2.27, 59.67 2.92" stroke="#2f9e44" stroke-width="4" fill="none"></path></g><g transform="translate(430.88194556249437 172.40230412529036) rotate(0 11.807998657226562 22.5)"><text x="11.807998657226562" y="0" font-family="Virgil, Segoe UI Emoji" font-size="36px" fill="#2f9e44" text-anchor="middle" style="white-space: pre;" direction="ltr" dominant-baseline="text-before-edge">A</text></g><g stroke-linecap="round" transform="translate(413.9257964703256 454.8652434753858) rotate(0 47.144709127266196 43.25269195895635)"><path d="M57.82 0.52 C65.97 1.75, 75.49 7.2, 81.37 13.09 C87.26 18.97, 91.59 28.14, 93.13 35.84 C94.68 43.53, 93.82 52.31, 90.67 59.26 C87.52 66.21, 81.02 72.98, 74.24 77.53 C67.46 82.08, 58.41 85.9, 49.97 86.55 C41.53 87.19, 31.03 85.36, 23.62 81.38 C16.21 77.4, 9.56 69.64, 5.51 62.68 C1.46 55.71, -1.38 47.44, -0.67 39.6 C0.04 31.77, 4.42 21.96, 9.76 15.65 C15.1 9.35, 22.79 4.02, 31.39 1.78 C39.99 -0.46, 56.08 1.91, 61.35 2.24 C66.63 2.57, 63.5 3.08, 63.03 3.78 M37.7 1.03 C45.49 -0.74, 55.38 1.34, 63.63 4.29 C71.87 7.23, 82.03 12.29, 87.16 18.72 C92.3 25.14, 94.39 35.09, 94.41 42.82 C94.43 50.55, 91.57 58.81, 87.28 65.11 C83 71.4, 76.36 77.06, 68.71 80.59 C61.05 84.12, 49.96 87.04, 41.33 86.31 C32.71 85.58, 23.64 80.8, 16.93 76.19 C10.22 71.58, 3.56 65.71, 1.09 58.64 C-1.38 51.58, 0 41.63, 2.1 33.8 C4.21 25.98, 7.67 17.34, 13.74 11.68 C19.8 6.02, 34.44 1.48, 38.49 -0.15 C42.53 -1.78, 37.63 1.21, 38.01 1.92" stroke="none" stroke-width="0" fill="#e7f5ff"></path><path d="M26.03 4.75 C33.02 1.01, 45.5 -0.41, 53.95 0.44 C62.4 1.29, 70.3 4.95, 76.72 9.83 C83.14 14.72, 89.86 22.37, 92.47 29.77 C95.08 37.18, 94.86 46.54, 92.4 54.26 C89.94 61.98, 83.93 70.66, 77.7 76.09 C71.48 81.52, 63.23 85.76, 55.05 86.84 C46.87 87.91, 36.61 85.96, 28.61 82.54 C20.62 79.11, 11.77 72.79, 7.08 66.29 C2.39 59.78, 0.4 51.23, 0.45 43.51 C0.51 35.78, 2.37 26.68, 7.41 19.93 C12.45 13.18, 25.72 6.05, 30.69 3.02 C35.66 -0.02, 36.93 1.08, 37.23 1.72 M60.95 1.7 C68.83 3.74, 77.83 10.96, 83.35 16.88 C88.87 22.8, 93.08 29.6, 94.1 37.21 C95.11 44.83, 93.41 55.13, 89.45 62.55 C85.49 69.97, 77.37 77.8, 70.33 81.76 C63.28 85.71, 55.64 86.56, 47.17 86.3 C38.7 86.04, 26.92 84.79, 19.5 80.22 C12.08 75.66, 5.81 66.54, 2.66 58.93 C-0.49 51.31, -1.04 41.83, 0.61 34.55 C2.27 27.27, 6.84 20.69, 12.6 15.25 C18.36 9.81, 26.81 3.94, 35.15 1.91 C43.5 -0.12, 58.4 3.07, 62.65 3.07 C66.91 3.07, 61.05 1.43, 60.7 1.93" stroke="#2f9e44" stroke-width="4" fill="none"></path></g><g transform="translate(448.1481635414784 475.53366364559133) rotate(0 13.08599853515625 22.5)"><text x="13.08599853515625" y="0" font-family="Virgil, Segoe UI Emoji" font-size="36px" fill="#2f9e44" text-anchor="middle" style="white-space: pre;" direction="ltr" dominant-baseline="text-before-edge">B</text></g><g stroke-linecap="round" transform="translate(797.5860478543136 138.27495735941648) rotate(0 47.144709127266196 43.25269195895635)"><path d="M62.96 2.67 C70.64 4.87, 78.33 11.69, 83.67 17.81 C89.01 23.93, 94.26 31.66, 95.01 39.4 C95.75 47.14, 92.37 57.47, 88.15 64.25 C83.92 71.04, 76.92 76.56, 69.63 80.11 C62.35 83.66, 52.77 85.7, 44.43 85.53 C36.09 85.36, 26.46 83.45, 19.59 79.07 C12.73 74.7, 6.24 66.57, 3.24 59.28 C0.24 51.99, -0.02 43.13, 1.58 35.33 C3.18 27.52, 7.01 18.17, 12.86 12.46 C18.7 6.74, 27.69 2.58, 36.66 1.04 C45.62 -0.5, 60.99 2.46, 66.65 3.22 C72.3 3.98, 71.03 4.91, 70.61 5.6" stroke="none" stroke-width="0" fill="#e7f5ff"></path><path d="M58.81 1.25 C66.68 2.49, 76.69 7.92, 82.46 13.67 C88.24 19.42, 92.29 27.86, 93.47 35.75 C94.64 43.65, 92.78 53.67, 89.51 61.05 C86.24 68.43, 80.69 75.86, 73.85 80.04 C67 84.22, 57.13 86.29, 48.43 86.14 C39.73 85.99, 28.85 83.25, 21.63 79.15 C14.41 75.05, 8.6 68.5, 5.11 61.54 C1.62 54.59, -0.12 44.97, 0.7 37.41 C1.52 29.85, 4.56 22.13, 10.02 16.18 C15.49 10.24, 25.02 4.06, 33.5 1.76 C41.97 -0.53, 55.82 2.13, 60.88 2.4 C65.93 2.67, 64.07 2.81, 63.83 3.36" stroke="#1971c2" stroke-width="4.5" fill="none" stroke-dasharray="1.5 10"></path></g><g transform="translate(835.0844159020289 158.943377529622) rotate(0 9.80999755859375 22.5)"><text x="9.80999755859375" y="0" font-family="Virgil, Segoe UI Emoji" font-size="36px" fill="#1971c2" text-anchor="middle" style="white-space: pre;" direction="ltr" dominant-baseline="text-before-edge">I</text></g><g mask="url(#mask-873kyOBGYxjeXdiijlw-H)" stroke-linecap="round"><g transform="translate(468.1523708634995 243.9043199198586) rotate(0 2.316685130971109 102.05053863361582)"><path d="M0.11 -0.83 C0.99 33.15, 5.02 170.74, 5.92 204.94 M-1.29 1.34 C-0.65 35.47, 3.26 168.99, 4.81 203.01" stroke="#2f9e44" stroke-width="4" fill="none"></path></g></g><mask id="mask-873kyOBGYxjeXdiijlw-H"><rect x="0" y="0" fill="#fff" width="574.3847636583387" height="548.4582121788626"></rect><rect x="461.7345706788874" y="328.6812660493606" fill="#000" width="19.0679931640625" height="35" opacity="1"></rect></mask><g transform="translate(461.7345706788874 328.6812660493606) rotate(0 8.734485315583242 17.27359250411382)"><text x="9.53399658203125" y="0" font-family="Virgil, Segoe UI Emoji" font-size="28px" fill="#2f9e44" text-anchor="middle" style="white-space: pre;" direction="ltr" dominant-baseline="text-before-edge">3</text></g><g mask="url(#mask-OxcXCoRWMgDVCf1Jgd_Xn)" stroke-linecap="round"><g transform="translate(495.52962568302974 187.44180591639906) rotate(0 146.78588571866976 -3.525630441572048)"><path d="M-0.72 -0.24 C48.38 -1.44, 244.9 -5.98, 294.29 -6.81 M1.1 -1.41 C50.02 -2.53, 244.02 -4.87, 293.04 -5.85" stroke="#2f9e44" stroke-width="4" fill="none"></path></g></g><mask id="mask-OxcXCoRWMgDVCf1Jgd_Xn"><rect x="0" y="0" fill="#fff" width="890.3949217119944" height="293.16750448187395"></rect><rect x="633.4282771154813" y="167.07895663366162" fill="#000" width="19.0679931640625" height="35" opacity="1"></rect></mask><g transform="translate(633.4282771154813 167.07895663366162) rotate(0 8.887234286218245 16.837218841165395)"><text x="9.53399658203125" y="0" font-family="Virgil, Segoe UI Emoji" font-size="28px" fill="#2f9e44" text-anchor="middle" style="white-space: pre;" direction="ltr" dominant-baseline="text-before-edge">3</text></g><g stroke-linecap="round" transform="translate(832.7430029538364 379.31005566385465) rotate(0 47.144709127266196 43.25269195895635)"><path d="M62.61 3.22 C70.3 5.14, 79.25 10.39, 84.44 16.43 C89.63 22.48, 92.92 31.49, 93.75 39.48 C94.58 47.46, 93.28 57.3, 89.4 64.34 C85.52 71.38, 78.18 77.94, 70.49 81.7 C62.8 85.46, 51.9 87.64, 43.26 86.89 C34.61 86.14, 25.33 82.02, 18.62 77.2 C11.91 72.39, 5.9 65.3, 3 57.99 C0.1 50.68, -0.67 40.72, 1.24 33.34 C3.15 25.97, 8.46 19.11, 14.46 13.74 C20.47 8.37, 28.01 2.66, 37.26 1.12 C46.51 -0.41, 63.91 3.3, 69.98 4.55 C76.05 5.81, 74.35 8.06, 73.69 8.64 M46.01 1.43 C54.35 1.18, 66.41 3.96, 73.6 7.95 C80.78 11.95, 85.75 18.59, 89.12 25.4 C92.49 32.2, 95.01 40.99, 93.82 48.78 C92.63 56.56, 87.35 66.24, 81.99 72.11 C76.62 77.97, 69.5 82, 61.61 83.97 C53.71 85.93, 42.89 86.08, 34.62 83.91 C26.34 81.73, 17.52 76.81, 11.96 70.92 C6.41 65.03, 2.61 56.08, 1.28 48.56 C-0.05 41.04, 0.45 32.57, 3.99 25.79 C7.53 19.01, 15.18 12.32, 22.54 7.87 C29.9 3.42, 43.83 0.41, 48.16 -0.9 C52.48 -2.22, 48.51 -0.71, 48.5 -0.03" stroke="none" stroke-width="0" fill="#e7f5ff"></path><path d="M66.44 3.19 C74.04 5.78, 82.88 13.19, 87.58 19.87 C92.27 26.55, 94.96 35.29, 94.63 43.26 C94.3 51.23, 90.25 61.14, 85.6 67.69 C80.95 74.24, 74.46 79.48, 66.73 82.58 C58.99 85.69, 47.56 87.51, 39.18 86.32 C30.8 85.13, 22.79 80.74, 16.44 75.42 C10.1 70.11, 3.53 61.93, 1.09 54.42 C-1.34 46.91, -0.91 37.71, 1.81 30.35 C4.53 23, 11 15.28, 17.42 10.28 C23.83 5.28, 30.71 0.82, 40.32 0.35 C49.92 -0.11, 68.14 5.03, 75.05 7.49 C81.97 9.96, 82.34 14.55, 81.83 15.15 M66.18 2.36 C74.04 5.2, 82.04 13.87, 86.73 20.69 C91.42 27.51, 94.09 35.5, 94.31 43.25 C94.53 51, 92.69 60.84, 88.05 67.19 C83.42 73.55, 74.3 78.27, 66.51 81.4 C58.71 84.53, 49.64 87.03, 41.28 85.99 C32.91 84.95, 22.76 80.38, 16.34 75.14 C9.93 69.9, 5.4 61.97, 2.78 54.57 C0.16 47.17, -1.37 38.02, 0.63 30.75 C2.64 23.48, 8.35 16.08, 14.81 10.96 C21.26 5.84, 30.61 1.3, 39.36 0.03 C48.11 -1.23, 62.92 2.69, 67.3 3.39 C71.68 4.09, 66.4 3.35, 65.66 4.22" stroke="#2f9e44" stroke-width="4" fill="none"></path></g><g transform="translate(868.4593733208876 399.9784758340602) rotate(0 11.591995239257812 22.5)"><text x="11.591995239257812" y="0" font-family="Virgil, Segoe UI Emoji" font-size="36px" fill="#2f9e44" text-anchor="middle" style="white-space: pre;" direction="ltr" dominant-baseline="text-before-edge">C</text></g><g mask="url(#mask-QOId71hEY_vOCt2_6rJTu)" stroke-linecap="round"><g transform="translate(516.2369854362669 492.3559073806973) rotate(0 156.121870354375 -25.700404307669487)"><path d="M-0.43 -1 C51.16 -9.51, 258.63 -42.35, 310.56 -50.65 M1.55 1.09 C53.39 -7.81, 261.25 -43.49, 312.67 -52.49" stroke="#2f9e44" stroke-width="4" fill="none"></path></g></g><mask id="mask-QOId71hEY_vOCt2_6rJTu"><rect x="0" y="0" fill="#fff" width="927.9440131825259" height="643.5364396141595"></rect><rect x="663.1305002249237" y="449.26564126396624" fill="#000" width="17.919998168945312" height="35" opacity="1"></rect></mask><g transform="translate(663.1305002249237 449.26564126396624) rotate(0 9.228355565718175 17.389861809061586)"><text x="8.959999084472656" y="0" font-family="Virgil, Segoe UI Emoji" font-size="28px" fill="#2f9e44" text-anchor="middle" style="white-space: pre;" direction="ltr" dominant-baseline="text-before-edge">4</text></g><g stroke-linecap="round" transform="translate(1015.2050859715591 747.1508133616317) rotate(0 47.144709127266196 43.25269195895635)"><path d="M34.41 2.32 C41.72 -0.36, 51.7 0.24, 59.69 2.21 C67.67 4.18, 76.66 8.4, 82.34 14.12 C88.02 19.83, 92.46 28.82, 93.78 36.52 C95.1 44.22, 93.65 52.97, 90.26 60.31 C86.87 67.66, 80.58 76.2, 73.46 80.59 C66.33 84.97, 55.96 86.83, 47.5 86.62 C39.04 86.4, 29.88 83.5, 22.69 79.3 C15.49 75.1, 8.17 68.54, 4.34 61.4 C0.5 54.26, -1.52 44.28, -0.33 36.44 C0.86 28.61, 5.44 20.44, 11.46 14.4 C17.49 8.35, 31.02 2.25, 35.82 0.18 C40.62 -1.9, 39.89 1.21, 40.27 1.96 M44.48 0.37 C52.75 -0.55, 64.72 1.28, 72.33 5.01 C79.94 8.75, 86.43 15.8, 90.16 22.81 C93.89 29.82, 95.57 39.28, 94.7 47.07 C93.83 54.86, 90.38 63.22, 84.94 69.53 C79.49 75.84, 70.08 82.12, 62.01 84.93 C53.93 87.74, 44.56 88.54, 36.5 86.39 C28.43 84.25, 19.39 78.08, 13.62 72.08 C7.85 66.08, 3.47 58.09, 1.88 50.39 C0.3 42.69, 1.32 32.9, 4.1 25.9 C6.87 18.89, 11.8 12.6, 18.53 8.33 C25.26 4.07, 39.98 1.43, 44.49 0.29 C49.01 -0.85, 45.43 0.91, 45.62 1.48" stroke="none" stroke-width="0" fill="#e7f5ff"></path><path d="M34.85 1.39 C42.48 -1.25, 52.07 -0.08, 60.21 2.21 C68.35 4.49, 78.2 9.29, 83.7 15.1 C89.2 20.9, 92.25 29.31, 93.22 37.03 C94.2 44.75, 92.95 54.27, 89.56 61.42 C86.18 68.58, 80.19 75.77, 72.93 79.94 C65.66 84.12, 54.55 86.71, 45.96 86.49 C37.38 86.27, 28.25 82.74, 21.43 78.62 C14.61 74.49, 8.56 68.84, 5.06 61.73 C1.56 54.62, -0.84 43.94, 0.42 35.97 C1.69 28, 6.24 19.81, 12.65 13.9 C19.07 7.98, 33.62 2.64, 38.9 0.5 C44.17 -1.65, 43.92 0.32, 44.31 1.04 M53.92 -0.45 C61.89 -0.06, 72.53 5.71, 78.92 10.89 C85.31 16.07, 89.94 23.32, 92.27 30.64 C94.59 37.95, 95.54 47.29, 92.88 54.79 C90.21 62.29, 83.11 70.38, 76.3 75.62 C69.49 80.87, 60.35 85.21, 52.02 86.24 C43.68 87.28, 33.62 85.24, 26.3 81.82 C18.99 78.4, 12.54 72.31, 8.12 65.72 C3.7 59.13, 0.08 49.84, -0.2 42.27 C-0.49 34.69, 1.65 26.68, 6.41 20.27 C11.18 13.85, 20.18 7.01, 28.39 3.79 C36.61 0.58, 51.42 1.62, 55.68 1 C59.94 0.38, 54.14 -0.48, 53.97 0.06" stroke="#2f9e44" stroke-width="4" fill="none"></path></g><g transform="translate(1048.0414514557979 767.8192335318372) rotate(0 14.472000122070312 22.5)"><text x="14.472000122070312" y="0" font-family="Virgil, Segoe UI Emoji" font-size="36px" fill="#2f9e44" text-anchor="middle" style="white-space: pre;" direction="ltr" dominant-baseline="text-before-edge">T</text></g><g mask="url(#mask-YcaDqRgo3PcF8N3Bo6nv8)" stroke-linecap="round"><g transform="translate(502.75402647570627 527.5384646274342) rotate(0 253.55344975379194 128.02035282710563)"><path d="M0.71 0.66 C85.4 43.33, 422.91 212.32, 507.49 254.96 M-0.38 -0.04 C84.18 42.85, 421.72 213.65, 506.39 256.08" stroke="#2f9e44" stroke-width="4" fill="none"></path></g></g><mask id="mask-YcaDqRgo3PcF8N3Bo6nv8"><rect x="0" y="0" fill="#fff" width="1110.5361697497938" height="883.2878944584359"></rect><rect x="749.0571006762266" y="637.9131795429348" fill="#000" width="15.175994873046875" height="35" opacity="1"></rect></mask><g transform="translate(749.0571006762266 637.9131795429348) rotate(0 7.250375553271624 17.645637911605036)"><text x="7.5879974365234375" y="0" font-family="Virgil, Segoe UI Emoji" font-size="28px" fill="#2f9e44" text-anchor="middle" style="white-space: pre;" direction="ltr" dominant-baseline="text-before-edge">11</text></g><g mask="url(#mask-tSGxZ6WpeEGvYvtScNs7U)" stroke-linecap="round"><g transform="translate(496.16739059383144 464.39562748412027) rotate(0 156.042709220324 -119.64244435436876)"><path d="M0.4 0.75 C52.61 -39.12, 260.91 -199.98, 312.93 -240.04 M-0.84 0.1 C51.21 -39.57, 259.84 -199.15, 311.89 -238.91" stroke="#2f9e44" stroke-width="4" fill="none"></path></g></g><mask id="mask-tSGxZ6WpeEGvYvtScNs7U"><rect x="0" y="0" fill="#fff" width="909.280218815893" height="803.6535524507799"></rect><rect x="643.7638056203896" y="327.26666500079045" fill="#000" width="17.919998168945312" height="35" opacity="1"></rect></mask><g transform="translate(643.7638056203896 327.26666500079045) rotate(0 8.44629419376588 17.486518128961052)"><text x="8.959999084472656" y="0" font-family="Virgil, Segoe UI Emoji" font-size="28px" fill="#2f9e44" text-anchor="middle" style="white-space: pre;" direction="ltr" dominant-baseline="text-before-edge">4</text></g><g stroke-linecap="round" transform="translate(1094.674752855598 186.54597776899027) rotate(0 47.144709127266196 43.25269195895635)"><path d="M28.48 3.75 C35.64 -0.01, 47.16 -1.07, 55.51 0.15 C63.87 1.38, 72.55 5.97, 78.59 11.1 C84.64 16.24, 89.51 23.56, 91.78 30.96 C94.04 38.35, 94.67 48.06, 92.18 55.47 C89.7 62.88, 83.19 70.22, 76.85 75.42 C70.5 80.61, 62.32 85.6, 54.1 86.63 C45.88 87.67, 35.38 85.05, 27.54 81.63 C19.69 78.21, 11.7 72.69, 7.01 66.12 C2.33 59.54, -0.77 49.83, -0.59 42.2 C-0.41 34.56, 2.61 26.87, 8.1 20.29 C13.58 13.71, 27.42 5.74, 32.3 2.72 C37.18 -0.31, 37.09 1.48, 37.38 2.15 M38.66 1.96 C46.64 -0.34, 57.23 -0.4, 65.2 2.13 C73.17 4.66, 81.55 10.83, 86.5 17.12 C91.44 23.41, 94.85 31.88, 94.88 39.88 C94.91 47.88, 91.08 58.13, 86.66 65.13 C82.24 72.12, 75.56 78.23, 68.34 81.86 C61.13 85.49, 51.67 87.76, 43.36 86.9 C35.06 86.04, 25.13 81.85, 18.5 76.72 C11.87 71.59, 6.28 63.34, 3.59 56.13 C0.9 48.92, 0.76 40.85, 2.37 33.46 C3.99 26.07, 7.41 17.27, 13.29 11.8 C19.18 6.33, 33.37 2.18, 37.68 0.64 C42 -0.91, 38.91 1.8, 39.18 2.54" stroke="none" stroke-width="0" fill="#e7f5ff"></path><path d="M42.18 0.17 C50.07 -1.25, 61.3 0.36, 69.12 4.12 C76.94 7.87, 84.92 15.93, 89.08 22.71 C93.24 29.5, 94.57 37.31, 94.1 44.82 C93.63 52.34, 91.32 61.37, 86.24 67.81 C81.17 74.24, 71.84 80.44, 63.65 83.44 C55.46 86.44, 45.15 87.32, 37.08 85.82 C29.02 84.32, 21.17 79.74, 15.25 74.42 C9.34 69.1, 3.58 61.55, 1.59 53.88 C-0.4 46.22, 0.66 35.86, 3.31 28.44 C5.97 21.01, 10.35 14.11, 17.53 9.33 C24.7 4.56, 41.09 1.11, 46.38 -0.21 C51.67 -1.53, 49.37 0.79, 49.25 1.42 M34.52 0.96 C42.5 -1.58, 54.53 -0.65, 62.68 1.77 C70.82 4.2, 78.41 9.29, 83.38 15.53 C88.34 21.78, 91.44 31.42, 92.48 39.23 C93.52 47.05, 92.93 55.53, 89.62 62.44 C86.31 69.35, 80 76.92, 72.63 80.71 C65.26 84.49, 53.93 85.53, 45.39 85.15 C36.85 84.77, 28.55 82.71, 21.41 78.44 C14.27 74.17, 6.14 66.42, 2.54 59.55 C-1.06 52.67, -1.94 44.6, -0.19 37.18 C1.56 29.76, 7.03 21.15, 13.04 15.03 C19.05 8.91, 32.05 2.69, 35.88 0.47 C39.72 -1.75, 36.16 0.87, 36.04 1.72" stroke="#2f9e44" stroke-width="4" fill="none"></path></g><g transform="translate(1127.9431251757742 207.2143979391958) rotate(0 14.039993286132812 22.5)"><text x="14.039993286132812" y="0" font-family="Virgil, Segoe UI Emoji" font-size="36px" fill="#2f9e44" text-anchor="middle" style="white-space: pre;" direction="ltr" dominant-baseline="text-before-edge">D</text></g><g mask="url(#mask-QjXRrUhgzUmRp6pX_VqFO)" stroke-linecap="round"><g transform="translate(917.6827753137723 389.82093565077594) rotate(0 88.84387242853609 -66.38860344950172)"><path d="M0.09 -0.86 C29.96 -23.01, 149.34 -110.35, 179 -132.05 M-1.32 1.3 C28.41 -21.31, 147.75 -111.73, 178.05 -134.07" stroke="#2f9e44" stroke-width="4" fill="none"></path></g></g><mask id="mask-QjXRrUhgzUmRp6pX_VqFO"><rect x="0" y="0" fill="#fff" width="1196.6982853127656" height="622.0652001260523"></rect><rect x="997.6565337312377" y="306.1988034131373" fill="#000" width="19.0679931640625" height="35" opacity="1"></rect></mask><g transform="translate(997.6565337312377 306.1988034131373) rotate(0 8.870114011070655 17.233528788136937)"><text x="9.53399658203125" y="0" font-family="Virgil, Segoe UI Emoji" font-size="28px" fill="#2f9e44" text-anchor="middle" style="white-space: pre;" direction="ltr" dominant-baseline="text-before-edge">3</text></g><g stroke-linecap="round" transform="translate(1154.8446760663928 416.413788800186) rotate(0 47.144709127266196 43.25269195895635)"><path d="M49.54 -0.54 C57.66 -0.81, 66.92 2.42, 73.98 7.14 C81.04 11.86, 88.58 20.49, 91.92 27.78 C95.26 35.07, 95.84 43.3, 94.04 50.88 C92.23 58.45, 87.17 67.56, 81.08 73.23 C74.99 78.9, 65.74 82.95, 57.53 84.92 C49.32 86.89, 39.83 87.45, 31.81 85.06 C23.79 82.67, 14.78 76.81, 9.43 70.58 C4.07 64.34, 0.43 55.44, -0.31 47.66 C-1.05 39.88, 1.06 30.91, 5 23.88 C8.94 16.85, 15.02 9.3, 23.3 5.47 C31.59 1.64, 48.71 1.38, 54.72 0.92 C60.74 0.45, 59.68 1.91, 59.38 2.67 M31.93 2.3 C39.25 -0.21, 50.82 -0.27, 59.32 1.87 C67.82 4, 77.13 9.44, 82.92 15.13 C88.71 20.81, 92.69 28.6, 94.07 35.96 C95.45 43.33, 94.5 52.05, 91.18 59.32 C87.87 66.59, 81.62 75.11, 74.18 79.6 C66.73 84.08, 55.25 86.21, 46.51 86.23 C37.78 86.25, 28.61 83.67, 21.77 79.72 C14.93 75.78, 8.96 69.57, 5.46 62.55 C1.96 55.53, -0.35 45.6, 0.76 37.6 C1.88 29.6, 6.9 20.72, 12.13 14.53 C17.37 8.35, 28.56 2.23, 32.19 0.5 C35.81 -1.23, 33.44 3, 33.88 4.14" stroke="none" stroke-width="0" fill="#e7f5ff"></path><path d="M68.36 3.54 C75.81 6.3, 82.31 13.73, 86.48 20.5 C90.65 27.28, 93.27 36.39, 93.38 44.2 C93.49 52, 91.66 60.76, 87.14 67.33 C82.62 73.89, 74.07 80.54, 66.25 83.57 C58.43 86.6, 48.76 86.8, 40.21 85.48 C31.66 84.16, 21.39 80.8, 14.95 75.62 C8.51 70.45, 3.83 61.92, 1.58 54.45 C-0.68 46.97, -0.99 38.3, 1.42 30.78 C3.84 23.25, 9.5 14.48, 16.06 9.29 C22.62 4.09, 31.3 0.06, 40.79 -0.38 C50.27 -0.82, 66.94 4.63, 72.97 6.66 C78.99 8.69, 77.4 11.15, 76.92 11.79 M42.9 0.36 C51.3 -1.02, 62.47 1.97, 69.91 5.31 C77.35 8.64, 83.34 13.79, 87.53 20.38 C91.72 26.96, 95.58 36.94, 95.03 44.85 C94.49 52.75, 89.5 61.17, 84.28 67.81 C79.05 74.44, 71.28 81.53, 63.7 84.67 C56.12 87.81, 46.86 88.53, 38.8 86.67 C30.74 84.81, 21.47 79.16, 15.34 73.52 C9.21 67.87, 4.33 60.22, 2.03 52.8 C-0.27 45.37, -1.04 36.2, 1.51 28.99 C4.07 21.77, 10.68 14.1, 17.35 9.48 C24.02 4.87, 37.03 2.64, 41.53 1.3 C46.03 -0.04, 44.04 0.67, 44.35 1.44" stroke="#2f9e44" stroke-width="4" fill="none"></path></g><g transform="translate(1190.0210455179167 437.08220897039155) rotate(0 12.131996154785156 22.5)"><text x="12.131996154785156" y="0" font-family="Virgil, Segoe UI Emoji" font-size="36px" fill="#2f9e44" text-anchor="middle" style="white-space: pre;" direction="ltr" dominant-baseline="text-before-edge">E</text></g><g mask="url(#mask-ONjQxoOrIRPxKZo5Aa89_)" stroke-linecap="round"><g transform="translate(927.7788984026402 445.90420784545677) rotate(0 112.40859254232782 10.251483795398144)"><path d="M-0.85 1 C36.21 4.19, 185.89 16.01, 223.4 18.98 M0.91 0.48 C38.25 3.81, 188.58 16.83, 225.66 20.02" stroke="#2f9e44" stroke-width="4" fill="none"></path></g></g><mask id="mask-ONjQxoOrIRPxKZo5Aa89_"><rect x="0" y="0" fill="#fff" width="1252.0382900678323" height="565.8407742120235"></rect><rect x="1030.3745976532055" y="438.3724910287401" fill="#000" width="19.0679931640625" height="35" opacity="1"></rect></mask><g transform="translate(1030.3745976532036 438.3724910287401) rotate(0 9.81289329176343 17.783200612114797)"><text x="9.53399658203125" y="0" font-family="Virgil, Segoe UI Emoji" font-size="28px" fill="#2f9e44" text-anchor="middle" style="white-space: pre;" direction="ltr" dominant-baseline="text-before-edge">3</text></g><g mask="url(#mask-IgWEKZ7b1vMvCoCcv2PAW)" stroke-linecap="round"><g transform="translate(1157.1033987341589 278.1389008728511) rotate(0 13.268066141087274 63.57434841753593)"><path d="M-0.06 -1.09 C4.77 20.45, 23.42 106.78, 28.08 128.23 M-1.55 0.96 C3.21 22.25, 22.43 105.87, 27.22 126.62" stroke="#2f9e44" stroke-width="4" fill="none"></path></g></g><mask id="mask-IgWEKZ7b1vMvCoCcv2PAW"><rect x="0" y="0" fill="#fff" width="1285.0176873304245" height="505.3955344076121"></rect><rect x="1161.0925483423516" y="324.26721764023205" fill="#000" width="19.935989379882812" height="35" opacity="1"></rect></mask><g transform="translate(1161.0925483423516 324.26721764023205) rotate(0 9.278916532895437 17.446031650154964)"><text x="9.967994689941406" y="0" font-family="Virgil, Segoe UI Emoji" font-size="28px" fill="#2f9e44" text-anchor="middle" style="white-space: pre;" direction="ltr" dominant-baseline="text-before-edge">2</text></g><g stroke-linecap="round" transform="translate(1383.358547979179 162.22398297395193) rotate(0 47.144709127266196 43.25269195895635)"><path d="M48.19 0.98 C56.28 0.69, 65.81 3.73, 72.75 7.97 C79.7 12.21, 86.42 19.28, 89.85 26.41 C93.29 33.53, 94.72 43.14, 93.38 50.72 C92.04 58.3, 87.38 66.11, 81.84 71.89 C76.29 77.66, 68.13 83.2, 60.13 85.39 C52.13 87.58, 42.12 87.29, 33.83 85.01 C25.54 82.73, 16.05 77.69, 10.38 71.71 C4.7 65.72, 0.86 57.1, -0.23 49.09 C-1.31 41.08, 0.05 30.82, 3.86 23.65 C7.67 16.48, 14.62 9.92, 22.63 6.07 C30.64 2.22, 46.39 1.26, 51.9 0.54 C57.4 -0.18, 55.85 0.99, 55.67 1.76 M24.12 4.65 C30.73 0.61, 42.19 -0.9, 51.01 -0.01 C59.82 0.88, 70.21 5.16, 77.04 9.97 C83.86 14.79, 89.14 21.8, 91.96 28.87 C94.79 35.95, 96.2 45.08, 93.99 52.43 C91.79 59.78, 84.95 67.21, 78.72 72.98 C72.49 78.76, 64.73 85.12, 56.6 87.09 C48.48 89.07, 38.07 88, 29.97 84.83 C21.87 81.65, 12.93 74.46, 8.01 68.05 C3.09 61.65, 0.83 53.92, 0.46 46.38 C0.08 38.84, 1.74 29.62, 5.78 22.82 C9.82 16.01, 21.41 8.64, 24.68 5.58 C27.95 2.51, 24.93 3.82, 25.4 4.41" stroke="none" stroke-width="0" fill="#e7f5ff"></path><path d="M61.44 2.45 C69.18 4.27, 78.5 9.83, 83.81 15.95 C89.12 22.07, 92.52 31.52, 93.29 39.18 C94.05 46.84, 92.16 55.15, 88.39 61.92 C84.61 68.69, 77.78 75.74, 70.62 79.77 C63.46 83.8, 53.9 86.16, 45.44 86.1 C36.99 86.05, 26.89 83.86, 19.88 79.44 C12.86 75.02, 6.56 67.09, 3.35 59.6 C0.13 52.11, -1.09 42.14, 0.58 34.51 C2.24 26.88, 7.5 19.23, 13.35 13.82 C19.2 8.4, 26.47 3.63, 35.67 2.04 C44.88 0.44, 62.44 3.11, 68.6 4.27 C74.76 5.43, 73.1 8.43, 72.64 8.99 M38.23 1.87 C46.27 -0.6, 56.89 -0.64, 64.83 1.89 C72.77 4.43, 81.16 10.65, 85.87 17.09 C90.58 23.53, 92.79 32.61, 93.08 40.53 C93.37 48.45, 91.74 57.62, 87.58 64.61 C83.42 71.61, 75.25 78.82, 68.12 82.52 C61 86.21, 53.08 87.33, 44.85 86.76 C36.61 86.18, 25.82 83.85, 18.72 79.07 C11.62 74.28, 5.14 65.82, 2.24 58.06 C-0.66 50.29, -0.47 40.09, 1.32 32.48 C3.11 24.87, 7.11 17.83, 13 12.41 C18.88 6.99, 32.76 1.51, 36.64 -0.03 C40.52 -1.57, 35.87 2.17, 36.3 3.18" stroke="#2f9e44" stroke-width="4" fill="none"></path></g><g transform="translate(1416.4649177358788 182.89240314415747) rotate(0 14.201995849609375 22.5)"><text x="14.201995849609375" y="0" font-family="Virgil, Segoe UI Emoji" font-size="36px" fill="#2f9e44" text-anchor="middle" style="white-space: pre;" direction="ltr" dominant-baseline="text-before-edge">G</text></g><g mask="url(#mask-r7N92Q1jItzEJQCpYQw60)" stroke-linecap="round"><g transform="translate(1243.1845879798257 421.37256348487426) rotate(0 78.77973367083541 -87.39591224203286)"><path d="M-0.56 -0.8 C25.67 -30.29, 131.76 -146.83, 158.11 -176.19 M1.35 1.4 C27.37 -27.97, 131.41 -145.12, 157.3 -174.71" stroke="#2f9e44" stroke-width="4" fill="none"></path></g></g><mask id="mask-r7N92Q1jItzEJQCpYQw60"><rect x="0" y="0" fill="#fff" width="1501.0403016996206" height="697.4509473391463"></rect><rect x="1312.578448257691" y="315.83337155773825" fill="#000" width="19.0679931640625" height="35" opacity="1"></rect></mask><g transform="translate(1312.578448257692 315.83337155773825) rotate(0 9.385873392969188 18.143279685103153)"><text x="9.53399658203125" y="0" font-family="Virgil, Segoe UI Emoji" font-size="28px" fill="#2f9e44" text-anchor="middle" style="white-space: pre;" direction="ltr" dominant-baseline="text-before-edge">3</text></g><g stroke-linecap="round" transform="translate(1428.2570093455988 406.96050113757883) rotate(0 47.144709127266196 43.25269195895635)"><path d="M56.7 0.71 C64.87 1.66, 74.72 7.42, 80.93 13.05 C87.13 18.67, 92.32 26.81, 93.96 34.47 C95.6 42.13, 93.93 51.71, 90.74 59.01 C87.56 66.31, 81.68 73.87, 74.86 78.27 C68.05 82.68, 58.16 85.02, 49.83 85.45 C41.5 85.88, 32.2 84.37, 24.89 80.86 C17.58 77.35, 10.04 71.11, 5.97 64.38 C1.9 57.64, 0 48.19, 0.5 40.46 C0.99 32.74, 4.07 24.17, 8.93 18.01 C13.79 11.84, 20.94 6.29, 29.63 3.48 C38.33 0.66, 55.35 1.08, 61.11 1.11 C66.86 1.15, 64.46 2.76, 64.18 3.69 M61.71 1.07 C69.37 2.39, 76.43 7.47, 81.83 13.76 C87.23 20.05, 92.76 30.63, 94.12 38.81 C95.47 46.99, 93.75 56.07, 89.98 62.81 C86.2 69.56, 78.6 75.22, 71.47 79.3 C64.34 83.39, 55.62 87.13, 47.21 87.32 C38.8 87.51, 28.27 84.73, 20.99 80.45 C13.71 76.16, 6.98 69.09, 3.51 61.6 C0.05 54.11, -1.18 43.28, 0.2 35.52 C1.57 27.75, 6.26 20.48, 11.76 15.02 C17.27 9.55, 25.13 4.73, 33.23 2.74 C41.33 0.74, 55.93 3.27, 60.36 3.05 C64.79 2.84, 60.17 0.84, 59.8 1.44" stroke="none" stroke-width="0" fill="#e7f5ff"></path><path d="M57.82 0.52 C65.97 1.75, 75.49 7.2, 81.37 13.09 C87.26 18.97, 91.59 28.14, 93.13 35.84 C94.68 43.53, 93.82 52.31, 90.67 59.26 C87.52 66.21, 81.02 72.98, 74.24 77.53 C67.46 82.08, 58.41 85.9, 49.97 86.55 C41.53 87.19, 31.03 85.36, 23.62 81.38 C16.21 77.4, 9.56 69.64, 5.51 62.68 C1.46 55.71, -1.38 47.44, -0.67 39.6 C0.04 31.77, 4.42 21.96, 9.76 15.65 C15.1 9.35, 22.79 4.02, 31.39 1.78 C39.99 -0.46, 56.08 1.91, 61.35 2.24 C66.63 2.57, 63.5 3.08, 63.03 3.78 M37.7 1.03 C45.49 -0.74, 55.38 1.34, 63.63 4.29 C71.87 7.23, 82.03 12.29, 87.16 18.72 C92.3 25.14, 94.39 35.09, 94.41 42.82 C94.43 50.55, 91.57 58.81, 87.28 65.11 C83 71.4, 76.36 77.06, 68.71 80.59 C61.05 84.12, 49.96 87.04, 41.33 86.31 C32.71 85.58, 23.64 80.8, 16.93 76.19 C10.22 71.58, 3.56 65.71, 1.09 58.64 C-1.38 51.58, 0 41.63, 2.1 33.8 C4.21 25.98, 7.67 17.34, 13.74 11.68 C19.8 6.02, 34.44 1.48, 38.49 -0.15 C42.53 -1.78, 37.63 1.21, 38.01 1.92" stroke="#2f9e44" stroke-width="4" fill="none"></path></g><g transform="translate(1465.6473756843297 427.62892130778437) rotate(0 9.917999267578125 22.5)"><text x="9.917999267578125" y="0" font-family="Virgil, Segoe UI Emoji" font-size="36px" fill="#2f9e44" text-anchor="middle" style="white-space: pre;" direction="ltr" dominant-baseline="text-before-edge">H</text></g><g mask="url(#mask-c-2aefDzdh1F0y9qvmjCe)" stroke-linecap="round"><g transform="translate(1424.0160163536711 258.97174435840407) rotate(0 22.36973927124609 74.24783560549031)"><path d="M-0.91 -0.62 C6.23 24.15, 35.93 122.93, 43.38 147.54 M0.82 1.67 C8.28 26.74, 38.65 124.69, 45.65 149.12" stroke="#2f9e44" stroke-width="4" fill="none"></path></g></g><mask id="mask-c-2aefDzdh1F0y9qvmjCe"><rect x="0" y="0" fill="#fff" width="1568.2601366614172" height="506.4500661267966"></rect><rect x="1436.6040799255134" y="315.21090524260035" fill="#000" width="19.0679931640625" height="35" opacity="1"></rect></mask><g transform="translate(1436.6040799255134 315.21090524260035) rotate(0 9.781675699403877 18.008674721294028)"><text x="9.53399658203125" y="0" font-family="Virgil, Segoe UI Emoji" font-size="28px" fill="#2f9e44" text-anchor="middle" style="white-space: pre;" direction="ltr" dominant-baseline="text-before-edge">3</text></g><g stroke-linecap="round" transform="translate(1601.5591264082914 398.2339033688204) rotate(0 47.144709127266196 43.25269195895635)"><path d="M57.77 1.68 C65.74 2.58, 74.59 7.02, 80.58 12.53 C86.58 18.05, 91.99 26.9, 93.73 34.77 C95.47 42.64, 94.2 52.42, 91.04 59.75 C87.88 67.08, 81.82 74.21, 74.79 78.77 C67.76 83.32, 57.57 86.64, 48.86 87.08 C40.14 87.52, 29.77 85.54, 22.52 81.39 C15.27 77.24, 9.09 69.3, 5.35 62.2 C1.6 55.11, -0.74 46.34, 0.04 38.82 C0.82 31.3, 4.64 23.13, 10.03 17.09 C15.42 11.05, 22.79 4.6, 32.41 2.59 C42.03 0.57, 60.63 3.91, 67.75 4.99 C74.87 6.08, 75.61 8.53, 75.11 9.1 M67.72 4.25 C75.26 6.99, 83.93 15.34, 88.29 22.32 C92.64 29.3, 94.39 38.38, 93.85 46.14 C93.3 53.9, 89.92 62.89, 85.02 68.88 C80.13 74.87, 72.25 79.2, 64.48 82.07 C56.71 84.93, 46.86 87.12, 38.41 86.06 C29.96 85.01, 20.01 80.93, 13.78 75.72 C7.54 70.51, 2.98 62.75, 0.99 54.8 C-0.99 46.85, -0.73 35.48, 1.88 28.01 C4.49 20.55, 9.73 14.5, 16.65 10.03 C23.58 5.57, 34.53 1.93, 43.42 1.22 C52.32 0.5, 65.9 5.13, 70.03 5.74 C74.16 6.35, 68.83 4.34, 68.21 4.87" stroke="none" stroke-width="0" fill="#e7f5ff"></path><path d="M63.06 1.6 C71.01 3.6, 80.1 10.64, 85.3 17.12 C90.5 23.61, 93.64 32.81, 94.26 40.51 C94.87 48.21, 93.19 56.48, 89.02 63.33 C84.84 70.17, 76.73 77.86, 69.2 81.57 C61.66 85.29, 52.21 86.29, 43.81 85.61 C35.41 84.94, 25.45 81.93, 18.8 77.52 C12.16 73.12, 6.79 66.27, 3.93 59.17 C1.07 52.08, 0.14 42.58, 1.64 34.96 C3.13 27.33, 7.09 19.19, 12.88 13.41 C18.66 7.64, 27.41 2, 36.36 0.32 C45.3 -1.35, 61.02 2.53, 66.55 3.35 C72.08 4.17, 69.71 4.34, 69.52 5.24 M52.68 0.42 C60.77 0.34, 71.31 3.99, 77.71 9.01 C84.12 14.03, 88.77 23.07, 91.09 30.56 C93.42 38.05, 93.99 46.23, 91.65 53.97 C89.3 61.71, 83.12 71.52, 77.04 77.01 C70.96 82.5, 63.5 85.98, 55.17 86.93 C46.84 87.87, 34.96 86.14, 27.07 82.69 C19.19 79.24, 12.47 72.63, 7.86 66.2 C3.25 59.78, -0.72 51.92, -0.59 44.13 C-0.47 36.34, 3.85 26.26, 8.62 19.47 C13.4 12.68, 20.5 6.63, 28.05 3.37 C35.6 0.11, 49.58 0.36, 53.9 -0.09 C58.22 -0.55, 54.25 -0.28, 53.98 0.64" stroke="#2f9e44" stroke-width="4" fill="none"></path></g><g transform="translate(1637.8334954325692 418.90232353902593) rotate(0 11.03399658203125 22.5)"><text x="11.03399658203125" y="0" font-family="Virgil, Segoe UI Emoji" font-size="36px" fill="#2f9e44" text-anchor="middle" style="white-space: pre;" direction="ltr" dominant-baseline="text-before-edge">K</text></g><g mask="url(#mask-stZ8OEhcP6R1xE-wB4Riq)" stroke-linecap="round"><g transform="translate(1464.5369138214683 244.82504309872456) rotate(0 70.25084649411883 82.95889110098824)"><path d="M-0.17 -0.22 C23.05 27.7, 116.53 139.49, 140.13 167.3 M-1.71 -1.39 C21.78 26.23, 118.48 137.36, 142.22 165.6" stroke="#2f9e44" stroke-width="4" fill="none"></path></g></g><mask id="mask-stZ8OEhcP6R1xE-wB4Riq"><rect x="0" y="0" fill="#fff" width="1705.864127712969" height="511.3358751099913"></rect><rect x="1525.6665241851879" y="310.58045910435794" fill="#000" width="19.0679931640625" height="35" opacity="1"></rect></mask><g transform="translate(1525.6665241851888 310.58045910435794) rotate(0 9.121236130399211 17.20347509535486)"><text x="9.53399658203125" y="0" font-family="Virgil, Segoe UI Emoji" font-size="28px" fill="#2f9e44" text-anchor="middle" style="white-space: pre;" direction="ltr" dominant-baseline="text-before-edge">3</text></g><g mask="url(#mask-wat-u0NozyoiR61vAf_SJ)" stroke-linecap="round"><g transform="translate(1531.044685014569 462.2861740485814) rotate(0 31.80476512554924 -3.654079431602895)"><path d="M0.1 0.14 C11.12 -0.91, 54.32 -4.33, 64.91 -5.52 M-1.3 -0.83 C9.74 -2.33, 53.74 -6.55, 64.41 -7.45" stroke="#2f9e44" stroke-width="4" fill="none"></path></g></g><mask id="mask-wat-u0NozyoiR61vAf_SJ"><rect x="0" y="0" fill="#fff" width="1695.1043996051476" height="568.1666637326925"></rect><rect x="1553.1065476199165" y="441.8459292065254" fill="#000" width="19.935989379882812" height="35" opacity="1"></rect></mask><g transform="translate(1553.1065476199165 441.8459292065254) rotate(0 9.742902520201824 16.786165410453123)"><text x="9.967994689941406" y="0" font-family="Virgil, Segoe UI Emoji" font-size="28px" fill="#2f9e44" text-anchor="middle" style="white-space: pre;" direction="ltr" dominant-baseline="text-before-edge">2</text></g><g stroke-linecap="round" transform="translate(1348.717015500446 545.2737615061833) rotate(0 47.144709127266196 43.25269195895635)"><path d="M61.74 1.52 C69.67 3.28, 77.7 10.05, 83.24 16.08 C88.77 22.12, 93.8 30.11, 94.95 37.74 C96.11 45.36, 93.98 54.77, 90.15 61.81 C86.31 68.85, 79.22 75.93, 71.93 79.98 C64.63 84.03, 54.98 86.19, 46.37 86.1 C37.77 86.01, 27.32 83.67, 20.28 79.46 C13.25 75.26, 7.34 68.23, 4.15 60.87 C0.96 53.5, -0.33 43.2, 1.17 35.29 C2.66 27.38, 7.38 19.19, 13.11 13.42 C18.85 7.65, 26.1 1.87, 35.58 0.67 C45.07 -0.53, 62.94 4.27, 70.03 6.2 C77.12 8.14, 78.29 11.64, 78.11 12.29" stroke="none" stroke-width="0" fill="#e7f5ff"></path><path d="M59.2 0.96 C67.35 2.55, 77.17 8.82, 83.03 14.8 C88.88 20.78, 93.21 29.16, 94.32 36.86 C95.44 44.56, 93.29 54.06, 89.73 60.99 C86.17 67.92, 79.93 74.3, 72.97 78.47 C66.02 82.64, 56.38 85.88, 47.98 86.01 C39.58 86.14, 29.67 83.08, 22.57 79.23 C15.47 75.38, 9.02 69.8, 5.36 62.92 C1.71 56.05, -0.47 45.95, 0.63 37.98 C1.72 30.02, 6.5 21.12, 11.91 15.14 C17.32 9.15, 25 4.4, 33.08 2.08 C41.17 -0.24, 55.54 1.14, 60.45 1.24 C65.37 1.34, 62.78 2.04, 62.57 2.69" stroke="#1971c2" stroke-width="4.5" fill="none" stroke-dasharray="1.5 10"></path></g><g transform="translate(1385.6933880037277 565.9421816763897) rotate(0 10.331993103027344 22.5)"><text x="10.331993103027344" y="0" font-family="Virgil, Segoe UI Emoji" font-size="36px" fill="#1971c2" text-anchor="middle" style="white-space: pre;" direction="ltr" dominant-baseline="text-before-edge">F</text></g><g mask="url(#mask-D9Pw8_cXkPm--LVnrGNJ7)" stroke-linecap="round"><g transform="translate(1631.3831103616521 491.06182106694723) rotate(0 -88.26868051423753 43.13024359451924)"><path d="M-0.97 -0.49 C-30.62 14.26, -148.09 73.33, -177.26 88.06 M0.73 -1.8 C-28.59 12.67, -145.38 71.83, -174.91 86.45" stroke="#2f9e44" stroke-width="4" fill="none"></path></g></g><mask id="mask-D9Pw8_cXkPm--LVnrGNJ7"><rect x="0" y="0" fill="#fff" width="1907.9553387946307" height="678.1378254555743"></rect><rect x="1532.3869970606902" y="517.099823261261" fill="#000" width="21.419998168945312" height="35" opacity="1"></rect></mask><g transform="translate(1532.3869970606902 517.099823261261) rotate(0 10.727432786724421 17.092241400205467)"><text x="10.709999084472656" y="0" font-family="Virgil, Segoe UI Emoji" font-size="28px" fill="#2f9e44" text-anchor="middle" style="white-space: pre;" direction="ltr" dominant-baseline="text-before-edge">8</text></g><g stroke-linecap="round" transform="translate(1288.5682546199305 777.8187896608215) rotate(0 47.144709127266196 43.25269195895635)"><path d="M42.35 0.52 C50.32 -0.93, 60.51 1.81, 67.95 5.08 C75.39 8.35, 82.77 13.55, 87 20.14 C91.23 26.74, 93.34 36.73, 93.34 44.66 C93.34 52.59, 91.5 61.41, 87.01 67.72 C82.52 74.03, 74.42 79.43, 66.38 82.5 C58.34 85.57, 47.21 87.41, 38.78 86.13 C30.35 84.86, 21.91 80.24, 15.81 74.86 C9.72 69.48, 4.37 61.37, 2.19 53.84 C0.02 46.31, 0.37 37.01, 2.74 29.67 C5.11 22.33, 9.34 14.84, 16.44 9.79 C23.54 4.75, 39.87 0.94, 45.32 -0.59 C50.77 -2.12, 49.01 -0.12, 49.15 0.63 M29.34 4.56 C36.92 1.12, 47.97 0.58, 56.21 1.57 C64.45 2.56, 72.71 5.39, 78.75 10.49 C84.8 15.6, 90.13 24.45, 92.48 32.21 C94.83 39.98, 95.59 49.93, 92.84 57.1 C90.08 64.27, 82.6 70.24, 75.93 75.23 C69.27 80.22, 61.09 85.67, 52.84 87.05 C44.59 88.42, 34.19 86.8, 26.43 83.5 C18.68 80.2, 10.8 74.1, 6.29 67.23 C1.79 60.35, -0.8 50.04, -0.61 42.27 C-0.41 34.5, 2.59 27, 7.46 20.62 C12.33 14.24, 25.1 6.53, 28.61 3.99 C32.12 1.45, 28.39 5.01, 28.51 5.38" stroke="none" stroke-width="0" fill="#e7f5ff"></path><path d="M59.31 0.81 C67.37 2.03, 76.48 8.11, 82.24 13.91 C88.01 19.7, 92.41 27.62, 93.89 35.57 C95.36 43.51, 94.48 54.27, 91.09 61.57 C87.7 68.86, 80.58 75.27, 73.54 79.36 C66.51 83.45, 57.4 85.98, 48.87 86.11 C40.34 86.24, 29.86 84.28, 22.35 80.12 C14.84 75.96, 7.45 68.28, 3.79 61.12 C0.13 53.97, -0.71 44.97, 0.39 37.2 C1.49 29.43, 4.77 20.31, 10.39 14.52 C16 8.72, 24.28 4.19, 34.07 2.44 C43.87 0.69, 62.19 2.73, 69.15 4.01 C76.11 5.29, 76.39 9.43, 75.83 10.12 M53.33 -0.51 C61.29 -0.24, 70.88 4.25, 77.46 9.19 C84.03 14.12, 90.26 21.51, 92.76 29.11 C95.25 36.71, 94.56 46.96, 92.4 54.8 C90.25 62.64, 85.87 71.11, 79.82 76.13 C73.78 81.15, 64.41 83.91, 56.12 84.94 C47.83 85.96, 37.91 85.32, 30.06 82.28 C22.21 79.24, 14.25 72.9, 9.01 66.7 C3.77 60.5, -0.9 52.66, -1.39 45.1 C-1.88 37.54, 1.4 28.01, 6.08 21.34 C10.75 14.67, 18.89 8.72, 26.65 5.1 C34.41 1.48, 48.23 0.52, 52.64 -0.38 C57.05 -1.29, 53.09 -1.19, 53.13 -0.33" stroke="#2f9e44" stroke-width="4" fill="none"></path></g><g transform="translate(1322.4486264518255 798.487209831027) rotate(0 13.427993774414062 22.5)"><text x="13.427993774414062" y="0" font-family="Virgil, Segoe UI Emoji" font-size="36px" fill="#2f9e44" text-anchor="middle" style="white-space: pre;" direction="ltr" dominant-baseline="text-before-edge">W</text></g><g mask="url(#mask-Z_OVljakiRixdazW5b3gy)" stroke-linecap="round"><g transform="translate(1387.5328492456665 639.2018695377715) rotate(0 -14.968190725820932 65.65364389802289)"><path d="M0.58 -0.45 C-4.61 21.6, -25.39 109.47, -30.52 131.51 M-0.57 -1.73 C-5.45 20.59, -23.16 110.55, -28.27 133.03" stroke="#2f9e44" stroke-width="4" fill="none"></path></g></g><mask id="mask-Z_OVljakiRixdazW5b3gy"><rect x="0" y="0" fill="#fff" width="1517.1568347029433" height="870.7295781329794"></rect><rect x="1362.010857432555" y="687.4657238353757" fill="#000" width="21.419998168945312" height="35" opacity="1"></rect></mask><g transform="translate(1362.010857432556 687.4657238353757) rotate(0 10.553801087290594 17.38978960041868)"><text x="10.709999084472656" y="0" font-family="Virgil, Segoe UI Emoji" font-size="28px" fill="#2f9e44" text-anchor="middle" style="white-space: pre;" direction="ltr" dominant-baseline="text-before-edge">8</text></g><g mask="url(#mask-uoam23cBR_kDUecTvLlXm)" stroke-linecap="round"><g transform="translate(1442.296352411835 604.9169976599846) rotate(0 151.86833256378304 66.23251310005708)"><path d="M-0.59 0.23 C49.92 22.43, 251.32 111.1, 302.13 133.16 M1.31 -0.69 C52.25 21.18, 253.85 109.04, 304.32 131.5" stroke="#2f9e44" stroke-width="4" fill="none"></path></g></g><mask id="mask-uoam23cBR_kDUecTvLlXm"><rect x="0" y="0" fill="#fff" width="1845.4206820040108" height="837.1832214169053"></rect><rect x="1583.1485181234493" y="653.5501095384452" fill="#000" width="21.419998168945312" height="35" opacity="1"></rect></mask><g transform="translate(1583.1485181234502 653.5501095384452) rotate(0 11.016166852167771 17.59940122159651)"><text x="10.709999084472656" y="0" font-family="Virgil, Segoe UI Emoji" font-size="28px" fill="#2f9e44" text-anchor="middle" style="white-space: pre;" direction="ltr" dominant-baseline="text-before-edge">8</text></g><g mask="url(#mask-PRjiYyFX9VaI3rhcAQyGY)" stroke-linecap="round"><g transform="translate(1283.2033636725273 813.749870138101) rotate(0 -77.31453522560287 -8.016227601234732)"><path d="M1.19 0.31 C-24.47 -2.31, -128.82 -12.12, -154.94 -14.82 M0.36 -0.57 C-25.36 -3.57, -129.67 -14.01, -155.82 -16.34" stroke="#2f9e44" stroke-width="4" fill="none"></path></g></g><mask id="mask-PRjiYyFX9VaI3rhcAQyGY"><rect x="0" y="0" fill="#fff" width="1538.2794351948114" height="929.7110273806338"></rect><rect x="1196.131331329355" y="788.2692915168345" fill="#000" width="19.0679931640625" height="35" opacity="1"></rect></mask><g transform="translate(1196.131331329354 788.2692915168345) rotate(0 9.757497117570438 17.4643510200317)"><text x="9.53399658203125" y="0" font-family="Virgil, Segoe UI Emoji" font-size="28px" fill="#2f9e44" text-anchor="middle" style="white-space: pre;" direction="ltr" dominant-baseline="text-before-edge">3</text></g><g stroke-linecap="round" transform="translate(688.4551021933466 843.9096557458561) rotate(0 47.144709127266196 43.25269195895635)"><path d="M53.89 -0.05 C61.96 0.32, 71.74 4.88, 77.98 9.98 C84.23 15.08, 88.88 23.17, 91.35 30.55 C93.81 37.93, 94.78 46.8, 92.76 54.27 C90.73 61.73, 85.44 70.11, 79.19 75.32 C72.94 80.53, 63.92 84.42, 55.27 85.54 C46.63 86.65, 35.14 84.98, 27.3 82.01 C19.47 79.04, 12.72 73.93, 8.28 67.72 C3.84 61.51, 0.75 52.66, 0.68 44.76 C0.6 36.87, 3.51 27.15, 7.82 20.36 C12.14 13.57, 18.43 7.21, 26.57 4.04 C34.71 0.87, 51.1 1.77, 56.65 1.34 C62.21 0.91, 60.24 0.85, 59.91 1.46 M59.88 3.11 C67.75 4.41, 76.69 8.98, 82.26 14.92 C87.82 20.85, 91.97 30.9, 93.28 38.71 C94.6 46.52, 93.66 54.77, 90.15 61.77 C86.64 68.78, 79.57 76.84, 72.22 80.74 C64.87 84.65, 54.26 85.38, 46.03 85.2 C37.8 85.02, 29.94 83.46, 22.83 79.67 C15.72 75.88, 6.9 69.73, 3.38 62.48 C-0.13 55.24, 0.16 44.29, 1.74 36.21 C3.31 28.12, 7.2 19.81, 12.81 13.96 C18.42 8.11, 27.43 3.24, 35.39 1.13 C43.34 -0.98, 56.49 1.2, 60.55 1.29 C64.6 1.37, 59.99 0.86, 59.73 1.62" stroke="none" stroke-width="0" fill="#e7f5ff"></path><path d="M49.54 -0.54 C57.66 -0.81, 66.92 2.42, 73.98 7.14 C81.04 11.86, 88.58 20.49, 91.92 27.78 C95.26 35.07, 95.84 43.3, 94.04 50.88 C92.23 58.45, 87.17 67.56, 81.08 73.23 C74.99 78.9, 65.74 82.95, 57.53 84.92 C49.32 86.89, 39.83 87.45, 31.81 85.06 C23.79 82.67, 14.78 76.81, 9.43 70.58 C4.07 64.34, 0.43 55.44, -0.31 47.66 C-1.05 39.88, 1.06 30.91, 5 23.88 C8.94 16.85, 15.02 9.3, 23.3 5.47 C31.59 1.64, 48.71 1.38, 54.72 0.92 C60.74 0.45, 59.68 1.91, 59.38 2.67 M31.93 2.3 C39.25 -0.21, 50.82 -0.27, 59.32 1.87 C67.82 4, 77.13 9.44, 82.92 15.13 C88.71 20.81, 92.69 28.6, 94.07 35.96 C95.45 43.33, 94.5 52.05, 91.18 59.32 C87.87 66.59, 81.62 75.11, 74.18 79.6 C66.73 84.08, 55.25 86.21, 46.51 86.23 C37.78 86.25, 28.61 83.67, 21.77 79.72 C14.93 75.78, 8.96 69.57, 5.46 62.55 C1.96 55.53, -0.35 45.6, 0.76 37.6 C1.88 29.6, 6.9 20.72, 12.13 14.53 C17.37 8.35, 28.56 2.23, 32.19 0.5 C35.81 -1.23, 33.44 3, 33.88 4.14" stroke="#2f9e44" stroke-width="4" fill="none"></path></g><g transform="translate(724.8194675555151 864.5780759160616) rotate(0 10.944000244140625 22.5)"><text x="10.944000244140625" y="0" font-family="Virgil, Segoe UI Emoji" font-size="36px" fill="#2f9e44" text-anchor="middle" style="white-space: pre;" direction="ltr" dominant-baseline="text-before-edge">S</text></g><g mask="url(#mask-RIOYqa4mcl4CRSv0RwHmN)" stroke-linecap="round"><g transform="translate(1018.7904135628296 809.4691064626386) rotate(0 -111.88379143272005 35.41872232183846)"><path d="M-0.89 0.01 C-38.35 11.96, -187.25 58.62, -224.61 70.72 M0.84 -1.02 C-36.23 11.15, -185.01 59.88, -222.28 71.86" stroke="#2f9e44" stroke-width="4" fill="none"></path></g></g><mask id="mask-RIOYqa4mcl4CRSv0RwHmN"><rect x="0" y="0" fill="#fff" width="1342.6815121067184" height="980.9384695460876"></rect><rect x="897.8848652064125" y="827.7037880043631" fill="#000" width="17.919998168945312" height="35" opacity="1"></rect></mask><g transform="translate(897.8848652064125 827.7037880043631) rotate(0 9.021756923697012 17.184040780113946)"><text x="8.959999084472656" y="0" font-family="Virgil, Segoe UI Emoji" font-size="28px" fill="#2f9e44" text-anchor="middle" style="white-space: pre;" direction="ltr" dominant-baseline="text-before-edge">4</text></g><g stroke-linecap="round" transform="translate(1478.3606977659247 988.9253633455737) rotate(0 47.144709127266196 43.25269195895635)"><path d="M48.42 -0.25 C56.6 -0.73, 67.08 2.51, 73.92 6.7 C80.75 10.9, 86.06 17.63, 89.44 24.94 C92.82 32.24, 95.25 42.53, 94.19 50.53 C93.13 58.52, 88.68 67.18, 83.07 72.91 C77.47 78.64, 68.92 82.98, 60.55 84.91 C52.19 86.84, 41.09 86.71, 32.89 84.5 C24.69 82.29, 16.68 77.76, 11.36 71.67 C6.03 65.59, 2.24 55.8, 0.96 47.99 C-0.33 40.17, 0.02 31.69, 3.65 24.76 C7.28 17.83, 14.92 10.6, 22.71 6.41 C30.5 2.22, 45.5 0.56, 50.41 -0.4 C55.33 -1.36, 52.41 -0.11, 52.22 0.63 M69.16 6.18 C76.39 8.86, 83.01 14.29, 87.4 20.95 C91.78 27.61, 96.01 37.91, 95.49 46.14 C94.97 54.37, 89.32 64.18, 84.27 70.31 C79.21 76.44, 72.77 80.51, 65.17 82.92 C57.56 85.32, 46.94 86.29, 38.65 84.72 C30.36 83.14, 21.68 78.88, 15.43 73.47 C9.17 68.05, 3.32 59.91, 1.13 52.24 C-1.06 44.57, -0.59 34.68, 2.28 27.43 C5.16 20.18, 11.36 13.33, 18.37 8.75 C25.38 4.17, 35.98 0.58, 44.33 -0.05 C52.69 -0.67, 64.21 3.83, 68.5 5.01 C72.79 6.18, 70.34 6.25, 70.09 7.01" stroke="none" stroke-width="0" fill="#e7f5ff"></path><path d="M58.29 1.28 C66.08 2.5, 74.85 7.27, 80.75 13.09 C86.65 18.9, 92.09 28.31, 93.68 36.15 C95.27 43.99, 93.59 52.98, 90.29 60.12 C86.99 67.26, 80.77 74.49, 73.88 78.97 C66.99 83.46, 57.43 86.79, 48.96 87.02 C40.5 87.26, 30.29 84.33, 23.08 80.39 C15.87 76.46, 9.37 70.21, 5.68 63.4 C2 56.59, 0.34 47.22, 0.99 39.51 C1.64 31.8, 4.52 23.26, 9.56 17.14 C14.6 11.02, 22.36 5.34, 31.24 2.78 C40.13 0.22, 56.65 1.39, 62.85 1.78 C69.06 2.17, 68.58 4.24, 68.46 5.13 M57.02 -0.66 C65.2 0.3, 74.99 6.62, 80.79 12.19 C86.58 17.77, 90.03 25.3, 91.79 32.8 C93.55 40.31, 93.77 49.68, 91.35 57.24 C88.92 64.8, 83.8 73.3, 77.24 78.14 C70.67 82.99, 60.42 85.86, 51.96 86.32 C43.5 86.78, 34.29 84.73, 26.49 80.92 C18.69 77.11, 9.51 69.85, 5.15 63.46 C0.78 57.08, -0.3 49.92, 0.32 42.59 C0.93 35.26, 4.1 26.14, 8.84 19.47 C13.58 12.8, 20.81 5.57, 28.75 2.59 C36.69 -0.38, 52.02 1.6, 56.48 1.6 C60.94 1.61, 55.83 1.92, 55.52 2.6" stroke="#2f9e44" stroke-width="4" fill="none"></path></g><g transform="translate(1516.3630636163743 1009.5937835157793) rotate(0 9.305999755859375 22.5)"><text x="9.305999755859375" y="0" font-family="Virgil, Segoe UI Emoji" font-size="36px" fill="#2f9e44" text-anchor="middle" style="white-space: pre;" direction="ltr" dominant-baseline="text-before-edge">V</text></g><g mask="url(#mask-16fPdplLCp-KpCskvrXx6)" stroke-linecap="round"><g transform="translate(1106.3792602970634 818.3433989009609) rotate(0 185.05623607613506 94.54893048233271)"><path d="M-0.83 -0.11 C60.9 31.29, 309.06 157.44, 370.94 189.14 M0.94 -1.21 C62.46 30.27, 308.6 158.17, 370.01 190.3" stroke="#2f9e44" stroke-width="4" fill="none"></path></g></g><mask id="mask-16fPdplLCp-KpCskvrXx6"><rect x="0" y="0" fill="#fff" width="1577.2760215635108" height="1108.1996799943558"></rect><rect x="1284.2956432496221" y="895.7715394476581" fill="#000" width="15.063995361328125" height="35" opacity="1"></rect></mask><g transform="translate(1284.295643249623 895.7715394476581) rotate(0 7.139853123575449 17.120789935635457)"><text x="7.5319976806640625" y="0" font-family="Virgil, Segoe UI Emoji" font-size="28px" fill="#2f9e44" text-anchor="middle" style="white-space: pre;" direction="ltr" dominant-baseline="text-before-edge">7</text></g><g mask="url(#mask-NbswpDJTxW3RnaQtUlXaW)" stroke-linecap="round"><g transform="translate(739.7795318394192 935.2877471635002) rotate(0 27.634594790854862 63.90317702895527)"><path d="M0.83 -0.62 C9.88 20.68, 46.33 105.81, 55.47 127.08 M-0.2 1.68 C8.64 23.2, 45.55 107.36, 54.79 128.42" stroke="#2f9e44" stroke-width="4" fill="none"></path></g></g><mask id="mask-NbswpDJTxW3RnaQtUlXaW"><rect x="0" y="0" fill="#fff" width="894.7371283167231" height="1162.7291356892401"></rect><rect x="757.2903353881302" y="981.5084414263702" fill="#000" width="19.935989379882812" height="35" opacity="1"></rect></mask><g transform="translate(757.2903353881302 981.5084414263702) rotate(0 10.123791242143852 17.682482766085286)"><text x="9.967994689941406" y="0" font-family="Virgil, Segoe UI Emoji" font-size="28px" fill="#2f9e44" text-anchor="middle" style="white-space: pre;" direction="ltr" dominant-baseline="text-before-edge">2</text></g><g stroke-linecap="round" transform="translate(426.91527035296076 950.6043861505441) rotate(0 47.144709127266196 43.25269195895635)"><path d="M45.2 -0.85 C53.05 -1.94, 62.27 1.65, 69.65 5.63 C77.04 9.61, 85.3 16.21, 89.51 23.05 C93.73 29.89, 95.66 38.95, 94.95 46.68 C94.24 54.4, 90.61 63.23, 85.24 69.4 C79.87 75.57, 70.72 81.01, 62.72 83.69 C54.73 86.36, 45.47 87.23, 37.26 85.46 C29.05 83.69, 19.43 78.82, 13.48 73.08 C7.54 67.34, 3.43 58.49, 1.59 51.02 C-0.26 43.55, -0.6 35.49, 2.41 28.26 C5.43 21.02, 11.86 12.18, 19.67 7.61 C27.47 3.04, 43.95 1.79, 49.24 0.84 C54.52 -0.12, 51.64 1.15, 51.37 1.89 M37.43 -0.18 C45.18 -2.13, 56.06 -0.04, 64.21 2.96 C72.35 5.96, 81.46 11.51, 86.3 17.82 C91.15 24.14, 92.8 32.86, 93.28 40.85 C93.76 48.85, 93.27 58.91, 89.18 65.8 C85.08 72.69, 76.41 78.85, 68.73 82.18 C61.05 85.52, 51.34 86.73, 43.11 85.82 C34.88 84.91, 26.02 81.24, 19.33 76.71 C12.63 72.19, 6.01 65.69, 2.95 58.66 C-0.11 51.64, -0.8 42.25, 0.97 34.54 C2.73 26.84, 7.16 18.3, 13.55 12.43 C19.93 6.56, 35.28 0.93, 39.27 -0.66 C43.26 -2.25, 37.55 1.92, 37.5 2.88" stroke="none" stroke-width="0" fill="#e7f5ff"></path><path d="M41.76 0.85 C49.5 -0.67, 59.19 1.52, 66.64 4.84 C74.1 8.15, 82.03 14.41, 86.52 20.75 C91 27.08, 93.49 35.18, 93.53 42.83 C93.57 50.49, 91.29 59.97, 86.77 66.69 C82.24 73.4, 74.13 79.89, 66.38 83.14 C58.63 86.4, 48.75 87.37, 40.25 86.22 C31.76 85.06, 21.99 81.31, 15.42 76.22 C8.84 71.12, 2.99 63.4, 0.79 55.66 C-1.41 47.93, -0.4 37.4, 2.23 29.78 C4.85 22.17, 9.33 14.85, 16.52 10 C23.71 5.14, 39.7 2.14, 45.37 0.67 C51.03 -0.8, 50.47 0.46, 50.52 1.18 M35.43 2.84 C43.27 0.82, 53.92 1.35, 61.81 3.44 C69.69 5.53, 77.33 9.43, 82.75 15.38 C88.18 21.33, 93.32 31.16, 94.37 39.15 C95.42 47.13, 92.97 56.34, 89.05 63.31 C85.14 70.28, 78.14 77.3, 70.87 80.95 C63.6 84.59, 53.85 85.48, 45.46 85.2 C37.08 84.92, 27.68 83.27, 20.56 79.27 C13.45 75.26, 6.14 68.18, 2.77 61.15 C-0.6 54.12, -1.18 45.15, 0.32 37.09 C1.81 29.02, 6.15 18.61, 11.75 12.78 C17.35 6.95, 29.84 3.7, 33.94 2.11 C38.03 0.53, 35.68 2.51, 36.32 3.26" stroke="#2f9e44" stroke-width="4" fill="none"></path></g><g transform="translate(461.5336411472581 971.2728063207496) rotate(0 12.689994812011719 22.5)"><text x="12.689994812011719" y="0" font-family="Virgil, Segoe UI Emoji" font-size="36px" fill="#2f9e44" text-anchor="middle" style="white-space: pre;" direction="ltr" dominant-baseline="text-before-edge">Q</text></g><g mask="url(#mask-g6O8X8KI8SZy-nqc2Er5k)" stroke-linecap="round"><g transform="translate(769.6415987771461 1087.0322182411328) rotate(0 -120.19780179748977 -39.420613405403174)"><path d="M0.51 0.92 C-39.48 -12.48, -200.18 -66.31, -240.26 -79.76 M-0.68 0.35 C-40.75 -12.95, -200.97 -65.41, -240.91 -78.6" stroke="#2f9e44" stroke-width="4" fill="none"></path></g></g><mask id="mask-g6O8X8KI8SZy-nqc2Er5k"><rect x="0" y="0" fill="#fff" width="1110.479472369825" height="1266.069766412706"></rect><rect x="639.2546672908647" y="1030.0134441553464" fill="#000" width="19.935989379882812" height="35" opacity="1"></rect></mask><g transform="translate(639.2546672908647 1030.0134441553464) rotate(0 10.189129688791581 17.598160680383216)"><text x="9.967994689941406" y="0" font-family="Virgil, Segoe UI Emoji" font-size="28px" fill="#2f9e44" text-anchor="middle" style="white-space: pre;" direction="ltr" dominant-baseline="text-before-edge">2</text></g><g stroke-linecap="round" transform="translate(363.49595109862184 734.374048686559) rotate(0 47.144709127266196 43.25269195895635)"><path d="M43.8 -0.24 C51.62 -1.49, 61.35 0.85, 68.9 4.55 C76.44 8.25, 84.82 15.15, 89.08 21.95 C93.35 28.75, 95.01 37.7, 94.51 45.35 C94.01 53.01, 91.25 61.39, 86.09 67.89 C80.93 74.39, 71.57 81.48, 63.56 84.36 C55.55 87.23, 46.08 86.66, 38.04 85.13 C30.01 83.61, 21.56 80.4, 15.35 75.22 C9.14 70.03, 2.97 61.59, 0.77 54.02 C-1.44 46.45, -0.74 37.29, 2.1 29.81 C4.94 22.32, 9.81 14.11, 17.81 9.1 C25.82 4.08, 43.59 0.94, 50.12 -0.28 C56.66 -1.49, 57.05 0.94, 57.04 1.82 M45.43 1.18 C53.57 0.25, 62.75 2.57, 70.01 6.12 C77.28 9.67, 84.8 15.79, 89.01 22.47 C93.23 29.14, 95.97 38.15, 95.28 46.18 C94.58 54.22, 90.25 64.15, 84.83 70.65 C79.42 77.16, 70.98 82.73, 62.78 85.24 C54.59 87.76, 43.69 87.95, 35.67 85.75 C27.66 83.54, 20.58 77.43, 14.68 72 C8.78 66.56, 2.18 60.54, 0.27 53.16 C-1.63 45.78, 0.16 35.34, 3.24 27.7 C6.32 20.07, 11.97 12.17, 18.76 7.36 C25.54 2.55, 39.74 0.16, 43.97 -1.14 C48.19 -2.45, 43.87 -1.18, 44.11 -0.49" stroke="none" stroke-width="0" fill="#e7f5ff"></path><path d="M57.62 0.64 C65.8 1.86, 74.78 7.49, 80.78 13.13 C86.78 18.76, 91.96 26.79, 93.63 34.46 C95.31 42.13, 94.05 51.77, 90.82 59.15 C87.6 66.53, 81.01 74.3, 74.28 78.71 C67.56 83.12, 58.82 85.26, 50.47 85.62 C42.12 85.99, 31.69 84.43, 24.2 80.9 C16.71 77.38, 9.47 71.25, 5.56 64.48 C1.64 57.7, 0.06 48.01, 0.72 40.23 C1.38 32.46, 4.59 24.23, 9.52 17.84 C14.46 11.45, 21.94 4.53, 30.33 1.9 C38.72 -0.74, 54.13 1.71, 59.87 2.03 C65.61 2.34, 64.7 3.22, 64.78 3.78 M38.99 1.56 C46.67 -0.29, 57.32 1.46, 65.14 4.16 C72.96 6.86, 81.03 11.36, 85.89 17.77 C90.75 24.17, 94.22 34.4, 94.31 42.59 C94.4 50.77, 90.92 60.07, 86.43 66.87 C81.93 73.68, 74.92 80.38, 67.32 83.4 C59.72 86.41, 49.4 85.99, 40.83 84.97 C32.25 83.95, 22.14 81.86, 15.86 77.27 C9.58 72.67, 5.27 64.76, 3.13 57.38 C1 50, 0.98 40.81, 3.04 33.01 C5.1 25.21, 9.47 15.92, 15.5 10.57 C21.53 5.22, 35.09 2.28, 39.22 0.9 C43.35 -0.48, 40.34 1.83, 40.27 2.27" stroke="#2f9e44" stroke-width="4" fill="none"></path></g><g transform="translate(398.9063217098137 755.0424688567646) rotate(0 11.897994995117188 22.5)"><text x="11.897994995117188" y="0" font-family="Virgil, Segoe UI Emoji" font-size="36px" fill="#2f9e44" text-anchor="middle" style="white-space: pre;" direction="ltr" dominant-baseline="text-before-edge">P</text></g><g mask="url(#mask-LvxABitaF8X-mlqDYm9mR)" stroke-linecap="round"><g transform="translate(446.70842920530686 947.8156999458897) rotate(0 -15.243163341106083 -61.74898339009201)"><path d="M-1.13 0.33 C-6.18 -19.82, -25.14 -101.49, -29.77 -121.81 M0.48 -0.55 C-4.82 -21.01, -25.97 -103.31, -30.96 -123.82" stroke="#2f9e44" stroke-width="4" fill="none"></path></g></g><mask id="mask-LvxABitaF8X-mlqDYm9mR"><rect x="0" y="0" fill="#fff" width="576.011733265258" height="1169.8229911268436"></rect><rect x="422.08878248538986" y="869.3120543554128" fill="#000" width="19.935989379882812" height="35" opacity="1"></rect></mask><g transform="translate(422.08878248538986 869.3120543554128) rotate(0 9.376483378810917 16.754662200384928)"><text x="9.967994689941406" y="0" font-family="Virgil, Segoe UI Emoji" font-size="28px" fill="#2f9e44" text-anchor="middle" style="white-space: pre;" direction="ltr" dominant-baseline="text-before-edge">2</text></g><g stroke-linecap="round" transform="translate(119.86483324688106 711.2727119231149) rotate(0 47.144709127266196 43.25269195895635)"><path d="M50.68 -0.57 C58.58 -0.55, 67.36 4.59, 74.11 9.21 C80.86 13.83, 87.85 19.88, 91.2 27.15 C94.56 34.41, 96.05 44.95, 94.24 52.8 C92.43 60.66, 86.53 68.71, 80.34 74.3 C74.15 79.89, 65.36 84.73, 57.1 86.33 C48.83 87.94, 38.72 86.79, 30.77 83.93 C22.81 81.07, 14.59 75.38, 9.38 69.17 C4.17 62.96, 0.15 54.25, -0.5 46.64 C-1.15 39.04, 1.4 30.49, 5.48 23.53 C9.56 16.57, 15.27 8.5, 23.98 4.89 C32.68 1.28, 50.76 2, 57.71 1.85 C64.66 1.7, 65.79 3.39, 65.69 4 M39.48 1.69 C47.08 0.17, 57.65 1.81, 65.27 4.73 C72.89 7.66, 80.16 13.27, 85.21 19.25 C90.25 25.23, 95.27 32.68, 95.54 40.62 C95.8 48.56, 91.38 59.95, 86.78 66.87 C82.18 73.79, 75.55 79.08, 67.93 82.15 C60.32 85.21, 49.61 86.37, 41.1 85.25 C32.58 84.14, 23.38 80.49, 16.86 75.46 C10.34 70.44, 4.42 62.56, 2 55.11 C-0.42 47.66, 0.24 38.22, 2.36 30.75 C4.48 23.29, 8.77 15.48, 14.69 10.33 C20.62 5.17, 33.93 1.31, 37.93 -0.18 C41.92 -1.67, 38.16 0.66, 38.66 1.39" stroke="none" stroke-width="0" fill="#e7f5ff"></path><path d="M51.53 1.01 C59.72 1.01, 70.41 4.2, 77.12 8.97 C83.83 13.74, 89.21 21.98, 91.79 29.63 C94.37 37.28, 94.65 47.25, 92.63 54.87 C90.6 62.49, 85.86 70.07, 79.63 75.34 C73.39 80.61, 63.77 85.35, 55.22 86.51 C46.66 87.68, 36.29 85.44, 28.3 82.33 C20.32 79.22, 11.87 74.15, 7.31 67.86 C2.76 61.57, 0.91 52.49, 0.97 44.57 C1.02 36.65, 3.47 26.99, 7.64 20.34 C11.81 13.7, 17.14 7.86, 25.99 4.71 C34.84 1.56, 53.77 1.44, 60.74 1.43 C67.7 1.41, 68 3.92, 67.76 4.62 M26.6 4.98 C33.59 1.5, 45.01 0.93, 53.46 1.65 C61.92 2.38, 71.06 4.31, 77.34 9.33 C83.62 14.34, 88.49 23.89, 91.15 31.74 C93.81 39.59, 95.25 48.9, 93.3 56.43 C91.35 63.96, 86.02 72.1, 79.45 76.93 C72.89 81.76, 62.57 84.42, 53.9 85.42 C45.22 86.41, 35.03 85.91, 27.42 82.92 C19.81 79.93, 13.02 74.3, 8.22 67.48 C3.43 60.66, -1.23 49.79, -1.36 42 C-1.5 34.21, 2.62 26.88, 7.4 20.75 C12.17 14.61, 23.97 7.64, 27.27 5.19 C30.58 2.73, 26.98 5.6, 27.25 6.03" stroke="#2f9e44" stroke-width="4" fill="none"></path></g><g transform="translate(155.5812036139323 731.9411320933204) rotate(0 11.591995239257812 22.5)"><text x="11.591995239257812" y="0" font-family="Virgil, Segoe UI Emoji" font-size="36px" fill="#2f9e44" text-anchor="middle" style="white-space: pre;" direction="ltr" dominant-baseline="text-before-edge">N</text></g><g mask="url(#mask-5uJ1G1b96R8dZQRA_GpS7)" stroke-linecap="round"><g transform="translate(346.08899417530574 774.0753283824088) rotate(0 -60.48276224715437 -3.7508228351432535)"><path d="M0.74 -1.16 C-19.51 -2.46, -100.59 -7.09, -121.22 -8.35 M-0.33 0.85 C-20.68 -0.19, -101.66 -5.32, -121.71 -6.72" stroke="#2f9e44" stroke-width="4" fill="none"></path></g></g><mask id="mask-5uJ1G1b96R8dZQRA_GpS7"><rect x="0" y="0" fill="#fff" width="568.180982578866" height="882.6102015316037"></rect><rect x="275.50900339149484" y="752.3078918078113" fill="#000" width="19.0679931640625" height="35" opacity="1"></rect></mask><g transform="translate(275.50900339149484 752.3078918078113) rotate(0 10.09722853665653 18.016613739454215)"><text x="9.53399658203125" y="0" font-family="Virgil, Segoe UI Emoji" font-size="28px" fill="#2f9e44" text-anchor="middle" style="white-space: pre;" direction="ltr" dominant-baseline="text-before-edge">3</text></g><g stroke-linecap="round" transform="translate(9.99999999999909 463.92031345523355) rotate(0 47.144709127266196 43.25269195895635)"><path d="M33.97 2.39 C41.31 -0.17, 52.32 0.68, 60.46 2.84 C68.59 5, 77.28 9.61, 82.79 15.35 C88.31 21.09, 92.51 29.58, 93.56 37.29 C94.61 44.99, 92.68 54.37, 89.1 61.58 C85.52 68.78, 79.18 76.49, 72.06 80.54 C64.94 84.59, 54.9 85.95, 46.39 85.87 C37.89 85.79, 27.98 84.27, 21.03 80.05 C14.09 75.83, 8.08 67.78, 4.73 60.55 C1.39 53.32, -0.18 44.22, 0.96 36.68 C2.1 29.13, 4.85 21.3, 11.59 15.26 C18.34 9.23, 35.01 2.89, 41.42 0.46 C47.83 -1.96, 49.76 0.12, 50.06 0.71 M51.81 1.5 C59.7 1.99, 70.44 5.23, 77.04 9.8 C83.64 14.37, 88.83 21.7, 91.39 28.91 C93.95 36.11, 94.48 45.55, 92.37 53.01 C90.27 60.47, 84.82 68.43, 78.76 73.67 C72.69 78.91, 64.42 83.04, 55.99 84.44 C47.56 85.85, 36.34 85.02, 28.17 82.1 C20 79.17, 11.78 73.16, 6.97 66.89 C2.17 60.61, -0.79 52.19, -0.67 44.43 C-0.54 36.66, 3.34 26.73, 7.73 20.29 C12.12 13.86, 18.17 9.22, 25.69 5.82 C33.21 2.43, 48.18 0.58, 52.82 -0.07 C57.46 -0.71, 53.85 1.24, 53.54 1.96" stroke="none" stroke-width="0" fill="#e7f5ff"></path><path d="M42.35 0.52 C50.32 -0.93, 60.51 1.81, 67.95 5.08 C75.39 8.35, 82.77 13.55, 87 20.14 C91.23 26.74, 93.34 36.73, 93.34 44.66 C93.34 52.59, 91.5 61.41, 87.01 67.72 C82.52 74.03, 74.42 79.43, 66.38 82.5 C58.34 85.57, 47.21 87.41, 38.78 86.13 C30.35 84.86, 21.91 80.24, 15.81 74.86 C9.72 69.48, 4.37 61.37, 2.19 53.84 C0.02 46.31, 0.37 37.01, 2.74 29.67 C5.11 22.33, 9.34 14.84, 16.44 9.79 C23.54 4.75, 39.87 0.94, 45.32 -0.59 C50.77 -2.12, 49.01 -0.12, 49.15 0.63 M29.34 4.56 C36.92 1.12, 47.97 0.58, 56.21 1.57 C64.45 2.56, 72.71 5.39, 78.75 10.49 C84.8 15.6, 90.13 24.45, 92.48 32.21 C94.83 39.98, 95.59 49.93, 92.84 57.1 C90.08 64.27, 82.6 70.24, 75.93 75.23 C69.27 80.22, 61.09 85.67, 52.84 87.05 C44.59 88.42, 34.19 86.8, 26.43 83.5 C18.68 80.2, 10.8 74.1, 6.29 67.23 C1.79 60.35, -0.8 50.04, -0.61 42.27 C-0.41 34.5, 2.59 27, 7.46 20.62 C12.33 14.24, 25.1 6.53, 28.61 3.99 C32.12 1.45, 28.39 5.01, 28.51 5.38" stroke="#2f9e44" stroke-width="4" fill="none"></path></g><g transform="translate(44.45636823081986 484.5887336254391) rotate(0 12.851997375488281 22.5)"><text x="12.851997375488281" y="0" font-family="Virgil, Segoe UI Emoji" font-size="36px" fill="#2f9e44" text-anchor="middle" style="white-space: pre;" direction="ltr" dominant-baseline="text-before-edge">U</text></g><g mask="url(#mask-6mKV9YcYkdoVqwO7ECMlm)" stroke-linecap="round"><g transform="translate(366.46627042378805 750.7528192140999) rotate(0 -133.56458699774703 -103.86287479809425)"><path d="M0.78 0.7 C-43.7 -34.01, -222.54 -173.47, -267.11 -208.43 M-0.28 0.02 C-44.86 -34.47, -223.45 -172.21, -267.91 -206.89" stroke="#2f9e44" stroke-width="4" fill="none"></path></g></g><mask id="mask-6mKV9YcYkdoVqwO7ECMlm"><rect x="0" y="0" fill="#fff" width="733.86097717762" height="1059.1886320457502"></rect><rect x="223.2349204648408" y="629.0349127982745" fill="#000" width="19.0679931640625" height="35" opacity="1"></rect></mask><g transform="translate(223.2349204648408 629.0349127982745) rotate(0 9.66676296120022 17.85503161773113)"><text x="9.53399658203125" y="0" font-family="Virgil, Segoe UI Emoji" font-size="28px" fill="#2f9e44" text-anchor="middle" style="white-space: pre;" direction="ltr" dominant-baseline="text-before-edge">3</text></g><g stroke-linecap="round" transform="translate(164.5005130241634 307.4896575363073) rotate(0 47.144709127266196 43.25269195895635)"><path d="M46.13 -0.17 C54.24 -0.67, 65.02 3.19, 72.29 7.28 C79.57 11.37, 86.18 17.27, 89.76 24.36 C93.34 31.45, 94.77 42.01, 93.77 49.81 C92.76 57.62, 89.17 65.35, 83.74 71.19 C78.3 77.02, 69.47 82.41, 61.15 84.81 C52.84 87.22, 42.17 87.74, 33.86 85.61 C25.56 83.48, 16.74 78.03, 11.31 72.01 C5.87 66, 2.3 57.36, 1.25 49.52 C0.19 41.68, 1.58 31.92, 4.97 24.98 C8.36 18.04, 13.96 12.09, 21.59 7.89 C29.21 3.68, 44.8 0.76, 50.74 -0.25 C56.68 -1.27, 57.14 1.04, 57.23 1.77 M31.99 0.78 C39.63 -2.17, 51.43 -2.08, 59.6 -0.08 C67.78 1.92, 75.57 6.97, 81.02 12.78 C86.46 18.59, 90.78 26.96, 92.28 34.79 C93.77 42.61, 92.89 52.51, 90.01 59.74 C87.13 66.96, 81.96 73.46, 74.99 78.15 C68.02 82.83, 56.78 87.53, 48.18 87.86 C39.58 88.18, 30.41 84.17, 23.4 80.1 C16.39 76.03, 10.15 70.4, 6.13 63.42 C2.1 56.44, -1.33 46.28, -0.76 38.24 C-0.19 30.21, 4.14 21.1, 9.55 15.21 C14.95 9.33, 28.06 4.88, 31.65 2.94 C35.24 1, 30.5 2.95, 31.08 3.58" stroke="none" stroke-width="0" fill="#e7f5ff"></path><path d="M30.36 3.23 C37.89 -0.24, 48.59 -1.32, 56.73 0.15 C64.86 1.62, 73.06 6.66, 79.18 12.06 C85.3 17.47, 91.25 25.13, 93.45 32.59 C95.66 40.04, 95.17 49.41, 92.42 56.79 C89.66 64.18, 83.8 71.98, 76.9 76.9 C70 81.82, 59.49 85.6, 51 86.31 C42.5 87.02, 33.26 84.75, 25.95 81.16 C18.64 77.58, 11.33 71.51, 7.14 64.81 C2.96 58.11, 0.75 48.84, 0.85 40.96 C0.96 33.08, 2.34 23.92, 7.79 17.52 C13.25 11.12, 28.58 5.01, 33.59 2.56 C38.59 0.12, 37.54 2.23, 37.81 2.82 M37.8 1.83 C45.34 -0.61, 54.37 -1.28, 62.2 1.44 C70.03 4.16, 79.49 11.5, 84.77 18.16 C90.06 24.82, 93.38 33.54, 93.9 41.39 C94.41 49.24, 91.98 58.65, 87.86 65.26 C83.74 71.87, 76.6 77.31, 69.17 81.08 C61.74 84.84, 51.63 88.33, 43.29 87.88 C34.95 87.42, 25.88 83.08, 19.12 78.34 C12.35 73.6, 5.88 67.04, 2.71 59.45 C-0.46 51.86, -1.96 40.58, 0.1 32.8 C2.16 25.03, 9.04 17.88, 15.07 12.81 C21.09 7.74, 32.35 4.34, 36.25 2.39 C40.16 0.43, 38 0.76, 38.5 1.09" stroke="#2f9e44" stroke-width="4" fill="none"></path></g><g transform="translate(202.5028788746131 328.1580777065128) rotate(0 9.305999755859375 22.5)"><text x="9.305999755859375" y="0" font-family="Virgil, Segoe UI Emoji" font-size="36px" fill="#2f9e44" text-anchor="middle" style="white-space: pre;" direction="ltr" dominant-baseline="text-before-edge">V</text></g><g mask="url(#mask-h3ynYA_EfHt092-lbx3eA)" stroke-linecap="round"><g transform="translate(104.50579252939406 464.42236350801613) rotate(0 33.618254454773705 -33.599262487615306)"><path d="M0.21 1.13 C11.76 -9.81, 57.15 -55.21, 68.38 -66.77 M-1.14 0.68 C10.34 -10.47, 55.59 -57.03, 67.47 -68.33" stroke="#2f9e44" stroke-width="4" fill="none"></path></g></g><mask id="mask-h3ynYA_EfHt092-lbx3eA"><rect x="0" y="0" fill="#fff" width="272.81522256383414" height="632.2490572477063"></rect><rect x="128.6925128566727" y="413.0090166381706" fill="#000" width="19.935989379882812" height="35" opacity="1"></rect></mask><g transform="translate(128.6925128566727 413.0090166381706) rotate(0 9.43153412749507 17.81408438223025)"><text x="9.967994689941406" y="0" font-family="Virgil, Segoe UI Emoji" font-size="28px" fill="#2f9e44" text-anchor="middle" style="white-space: pre;" direction="ltr" dominant-baseline="text-before-edge">2</text></g><g stroke-linecap="round" transform="translate(1169.4934502478127 10) rotate(0 47.144709127266196 43.25269195895635)"><path d="M33.25 1.99 C40.8 -0.98, 51.41 -0.57, 59.46 1.56 C67.5 3.68, 75.88 8.99, 81.5 14.73 C87.11 20.47, 91.51 28.49, 93.14 36.01 C94.78 43.53, 94.39 52.78, 91.31 59.83 C88.23 66.88, 81.75 73.74, 74.67 78.32 C67.58 82.9, 57.58 87.07, 48.78 87.33 C39.98 87.58, 29.05 84.01, 21.87 79.86 C14.68 75.71, 9.27 69.41, 5.68 62.43 C2.09 55.45, -0.39 45.78, 0.33 37.99 C1.04 30.2, 3.78 21.9, 9.97 15.67 C16.15 9.43, 31.91 2.95, 37.46 0.58 C43.01 -1.78, 43.15 0.81, 43.28 1.48 M30.94 2.33 C38.72 -0.65, 50.86 -1.51, 59.13 0.56 C67.4 2.62, 74.79 9.04, 80.56 14.72 C86.33 20.4, 91.82 27.07, 93.74 34.63 C95.66 42.19, 95.46 52.82, 92.09 60.06 C88.73 67.3, 80.79 73.81, 73.54 78.06 C66.29 82.31, 57.01 84.99, 48.59 85.56 C40.18 86.13, 30.51 85.13, 23.05 81.49 C15.58 77.84, 7.38 70.68, 3.81 63.7 C0.23 56.72, 0.49 47.29, 1.61 39.58 C2.73 31.87, 5.66 23.5, 10.52 17.43 C15.39 11.37, 27.39 5.71, 30.79 3.2 C34.19 0.69, 30.67 1.78, 30.93 2.37" stroke="none" stroke-width="0" fill="#e7f5ff"></path><path d="M53.89 -0.05 C61.96 0.32, 71.74 4.88, 77.98 9.98 C84.23 15.08, 88.88 23.17, 91.35 30.55 C93.81 37.93, 94.78 46.8, 92.76 54.27 C90.73 61.73, 85.44 70.11, 79.19 75.32 C72.94 80.53, 63.92 84.42, 55.27 85.54 C46.63 86.65, 35.14 84.98, 27.3 82.01 C19.47 79.04, 12.72 73.93, 8.28 67.72 C3.84 61.51, 0.75 52.66, 0.68 44.76 C0.6 36.87, 3.51 27.15, 7.82 20.36 C12.14 13.57, 18.43 7.21, 26.57 4.04 C34.71 0.87, 51.1 1.77, 56.65 1.34 C62.21 0.91, 60.24 0.85, 59.91 1.46 M59.88 3.11 C67.75 4.41, 76.69 8.98, 82.26 14.92 C87.82 20.85, 91.97 30.9, 93.28 38.71 C94.6 46.52, 93.66 54.77, 90.15 61.77 C86.64 68.78, 79.57 76.84, 72.22 80.74 C64.87 84.65, 54.26 85.38, 46.03 85.2 C37.8 85.02, 29.94 83.46, 22.83 79.67 C15.72 75.88, 6.9 69.73, 3.38 62.48 C-0.13 55.24, 0.16 44.29, 1.74 36.21 C3.31 28.12, 7.2 19.81, 12.81 13.96 C18.42 8.11, 27.43 3.24, 35.39 1.13 C43.34 -0.98, 56.49 1.2, 60.55 1.29 C64.6 1.37, 59.99 0.86, 59.73 1.62" stroke="#2f9e44" stroke-width="4" fill="none"></path></g><g transform="translate(1206.0198181734577 30.668420170205536) rotate(0 10.781997680664062 22.5)"><text x="10.781997680664062" y="0" font-family="Virgil, Segoe UI Emoji" font-size="36px" fill="#2f9e44" text-anchor="middle" style="white-space: pre;" direction="ltr" dominant-baseline="text-before-edge">L</text></g><g mask="url(#mask-BV4j7ArPOMJZFGkhsCjst)" stroke-linecap="round"><g transform="translate(902.0510041030939 162.68952565138807) rotate(0 130.07406888096966 -46.76541040928487)"><path d="M-0.32 0.77 C43.04 -14.74, 216.96 -76.66, 260.46 -92.46 M1.72 0.14 C44.85 -15.8, 216.25 -78.74, 259.26 -94.3" stroke="#2f9e44" stroke-width="4" fill="none"></path></g></g><mask id="mask-BV4j7ArPOMJZFGkhsCjst"><rect x="0" y="0" fill="#fff" width="1263.0068049645015" height="355.66548455519114"></rect><rect x="1023.8769041065516" y="98.70154619948698" fill="#000" width="17.304000854492188" height="35" opacity="1"></rect></mask><g transform="translate(1023.8769041065525 98.70154619948698) rotate(0 8.248168877511944 17.222569042616215)"><text x="8.652000427246094" y="0" font-family="Virgil, Segoe UI Emoji" font-size="28px" fill="#2f9e44" text-anchor="middle" style="white-space: pre;" direction="ltr" dominant-baseline="text-before-edge">5</text></g><g mask="url(#mask-ynnL72BnNI3UBsGp2PPHS)" stroke-linecap="round"><g transform="translate(1269.6382057543588 76.7954472304773) rotate(0 267.3835357260182 311.0463958386181)"><path d="M-0.26 -1.03 C65.22 16.57, 303.63 2.07, 392.43 106.09 C481.23 210.12, 509.11 536.93, 532.53 623.12 M1.8 1.05 C67.17 18.21, 302.63 0.74, 391.5 104.1 C480.37 207.47, 511.43 535.05, 535.03 621.23" stroke="#2f9e44" stroke-width="4" fill="none"></path></g></g><mask id="mask-ynnL72BnNI3UBsGp2PPHS"><rect x="0" y="0" fill="#fff" width="1902.929493607572" height="799.0637536131926"></rect><rect x="1644.5418206592321" y="165.13898012373465" fill="#000" width="34.99998474121094" height="35" opacity="1"></rect></mask><g transform="translate(1644.5418206592321 165.13898012373465) rotate(0 -107.52007917885521 222.70286294536072)"><text x="17.49999237060547" y="0" font-family="Virgil, Segoe UI Emoji" font-size="28px" fill="#2f9e44" text-anchor="middle" style="white-space: pre;" direction="ltr" dominant-baseline="text-before-edge">27</text></g><g stroke-linecap="round" transform="translate(167.1129649047789 100.96078383224813) rotate(0 47.144709127266196 43.25269195895635)"><path d="M42.49 1.07 C50.14 -0.27, 59.72 0.8, 67.41 4.18 C75.09 7.56, 84.1 14.62, 88.58 21.35 C93.06 28.08, 94.86 36.81, 94.28 44.55 C93.71 52.29, 90.15 61.37, 85.14 67.79 C80.13 74.21, 72.14 79.99, 64.22 83.08 C56.31 86.17, 46.04 87.77, 37.66 86.32 C29.28 84.87, 20.1 79.94, 13.95 74.38 C7.8 68.82, 2.76 60.53, 0.75 52.96 C-1.25 45.4, -0.88 36.14, 1.93 29 C4.75 21.86, 9.5 15, 17.63 10.13 C25.77 5.25, 43.59 0.98, 50.76 -0.26 C57.92 -1.51, 60.66 1.76, 60.63 2.68 M58.92 0.7 C66.94 2.29, 76.19 9.16, 81.74 15.22 C87.3 21.28, 90.58 29.43, 92.23 37.07 C93.89 44.7, 94.79 53.86, 91.69 61.04 C88.6 68.22, 81.12 75.79, 73.66 80.17 C66.2 84.54, 55.69 87.47, 46.94 87.29 C38.19 87.11, 28.39 83.31, 21.18 79.1 C13.96 74.88, 7.34 68.75, 3.67 62.01 C0 55.28, -1.96 46.63, -0.87 38.68 C0.23 30.73, 4.5 20.36, 10.25 14.3 C15.99 8.24, 25.3 4.64, 33.61 2.33 C41.92 0.02, 55.75 0.3, 60.12 0.44 C64.49 0.58, 59.89 2.14, 59.81 3.19" stroke="none" stroke-width="0" fill="#e7f5ff"></path><path d="M40.47 -0.48 C48.34 -1.83, 60.06 1.19, 67.97 4.85 C75.88 8.51, 83.44 14.95, 87.93 21.48 C92.43 28.02, 95.29 36.44, 94.95 44.06 C94.61 51.67, 90.7 60.63, 85.9 67.19 C81.11 73.75, 73.78 80.43, 66.15 83.4 C58.53 86.38, 48.7 86.38, 40.14 85.04 C31.58 83.7, 21.1 80.46, 14.78 75.37 C8.47 70.28, 4.22 62.09, 2.25 54.5 C0.29 46.92, 0.42 37.33, 3.01 29.86 C5.6 22.38, 10.43 14.68, 17.81 9.64 C25.18 4.61, 41.2 1.02, 47.27 -0.36 C53.35 -1.74, 54.21 0.61, 54.27 1.36 M64.34 2.64 C72.18 5.01, 78.53 12.23, 83.7 18.27 C88.86 24.3, 94.3 31.45, 95.35 38.85 C96.41 46.24, 93.96 55.7, 90.01 62.62 C86.07 69.53, 79.27 76.47, 71.66 80.35 C64.05 84.24, 53.18 86.45, 44.38 85.93 C35.57 85.4, 25.72 81.73, 18.82 77.22 C11.91 72.7, 5.77 65.97, 2.94 58.84 C0.11 51.71, 0.25 42.09, 1.83 34.44 C3.41 26.79, 6.46 18.3, 12.43 12.93 C18.39 7.56, 29.21 3.85, 37.61 2.21 C46.01 0.58, 58.6 3.01, 62.82 3.11 C67.05 3.22, 62.99 2.37, 62.95 2.84" stroke="#2f9e44" stroke-width="4" fill="none"></path></g><g transform="translate(202.82933527183013 121.62920400245366) rotate(0 11.591995239257812 22.5)"><text x="11.591995239257812" y="0" font-family="Virgil, Segoe UI Emoji" font-size="36px" fill="#2f9e44" text-anchor="middle" style="white-space: pre;" direction="ltr" dominant-baseline="text-before-edge">N</text></g><g mask="url(#mask-boKQyN_mJ6AyI5iADlx2V)" stroke-linecap="round"><g transform="translate(807.1206895956857 146.41410438737512) rotate(0 -272.28769743608564 -18.68053280329559)"><path d="M-0.53 -0.98 C-47.12 -7.13, -188.95 -32.39, -279.79 -35.93 C-370.63 -39.47, -501.35 -24.51, -545.58 -22.23 M1.39 1.12 C-44.8 -5.47, -186.37 -33.55, -277.59 -37.76 C-368.82 -41.97, -500.9 -26.38, -545.96 -24.15" stroke="#2f9e44" stroke-width="4" fill="none"></path></g></g><mask id="mask-boKQyN_mJ6AyI5iADlx2V"><rect x="0" y="0" fill="#fff" width="1453.4294495505046" height="282.900086165886"></rect><rect x="514.5519666035316" y="92.42812260886421" fill="#000" width="27.52398681640625" height="35" opacity="1"></rect></mask><g transform="translate(514.5519666035316 92.42812260886421) rotate(0 20.28102555606847 35.30544897521531)"><text x="13.761993408203125" y="0" font-family="Virgil, Segoe UI Emoji" font-size="28px" fill="#2f9e44" text-anchor="middle" style="white-space: pre;" direction="ltr" dominant-baseline="text-before-edge">12</text></g><g stroke-linecap="round" transform="translate(1744.7540055740747 705.4734189629053) rotate(0 47.144709127266196 43.25269195895635)"><path d="M39.18 1.37 C46.93 -0.28, 57.57 1.48, 65.45 4.61 C73.33 7.75, 81.65 13.82, 86.47 20.19 C91.3 26.56, 94.27 35.21, 94.41 42.84 C94.56 50.47, 91.81 59.21, 87.35 65.96 C82.89 72.71, 75.41 79.83, 67.63 83.34 C59.86 86.84, 49.2 88.18, 40.71 87 C32.21 85.81, 23.26 81.5, 16.67 76.24 C10.08 70.98, 3.52 63.06, 1.17 55.45 C-1.19 47.83, 0.09 38.05, 2.55 30.53 C5.01 23.01, 9 15.55, 15.93 10.31 C22.85 5.08, 39.06 0.67, 44.1 -0.86 C49.14 -2.39, 46.15 0.26, 46.15 1.13 M37.55 1.13 C45.16 -1.05, 55.6 -0.44, 63.68 2.41 C71.76 5.26, 80.82 11.51, 86.03 18.23 C91.24 24.96, 94.54 34.78, 94.96 42.74 C95.39 50.7, 92.78 59.51, 88.57 65.98 C84.37 72.45, 77.57 78.32, 69.74 81.57 C61.92 84.81, 50.44 86.23, 41.63 85.45 C32.82 84.67, 23.46 81.42, 16.9 76.9 C10.33 72.38, 4.88 65.54, 2.23 58.35 C-0.42 51.16, -0.94 41.48, 1.01 33.76 C2.96 26.05, 7.76 17.52, 13.93 12.03 C20.1 6.54, 34.03 2.45, 38.03 0.82 C42.03 -0.82, 37.89 1.43, 37.95 2.22" stroke="none" stroke-width="0" fill="#ffff"></path><path d="M53.32 -0.6 C61.43 -0.3, 70.41 4.94, 76.74 9.97 C83.07 15, 88.51 22.24, 91.28 29.58 C94.04 36.93, 95.58 46.49, 93.34 54.03 C91.1 61.57, 84.1 69.64, 77.84 74.8 C71.58 79.95, 64.01 83.64, 55.77 84.97 C47.54 86.29, 36.3 85.57, 28.42 82.74 C20.53 79.9, 13.05 74.2, 8.46 67.94 C3.88 61.68, 1.23 53.22, 0.92 45.19 C0.62 37.15, 2.28 26.5, 6.63 19.72 C10.98 12.94, 18.32 7.72, 27.01 4.53 C35.7 1.34, 52.43 0.47, 58.77 0.56 C65.11 0.64, 65.08 4.11, 65.07 5.02 M51.98 -0.81 C60.18 -0.76, 71.11 4.11, 77.76 9.26 C84.41 14.4, 89.32 22.43, 91.89 30.06 C94.45 37.69, 95.17 47.6, 93.14 55.03 C91.11 62.47, 86.16 69.29, 79.68 74.66 C73.21 80.03, 62.88 85.96, 54.31 87.26 C45.73 88.55, 35.81 85.55, 28.23 82.44 C20.66 79.32, 13.69 74.83, 8.88 68.56 C4.07 62.3, -0.42 52.91, -0.65 44.83 C-0.88 36.75, 3.02 26.92, 7.51 20.08 C12 13.24, 18.96 7.13, 26.28 3.81 C33.6 0.48, 47.13 0.75, 51.44 0.11 C55.74 -0.52, 51.92 -0.53, 52.1 0" stroke="#2f9e44" stroke-width="1" fill="none"></path></g><g transform="translate(1778.27437679562 726.1418391331108) rotate(0 13.787994384765625 22.5)"><text x="13.787994384765625" y="0" font-family="Virgil, Segoe UI Emoji" font-size="36px" fill="#2f9e44" text-anchor="middle" style="white-space: pre;" direction="ltr" dominant-baseline="text-before-edge">M</text></g></svg>