<svg version="1.1" xmlns="http://www.w3.org/2000/svg" viewBox="0 0 1860.0008242230633 1274.6979822198264" width="1860.0008242230633" height="1274.6979822198264">
  <!-- svg-source:excalidraw -->
  
  <defs>
    <style class="style-fonts">
      @font-face {
        font-family: "Virgil";
        src: url("https://excalidraw.com/Virgil.woff2");
      }
      @font-face {
        font-family: "Cascadia";
        src: url("https://excalidraw.com/Cascadia.woff2");
      }
    </style>
    
  </defs>
  <rect x="0" y="0" width="1860.0008242230633" height="1274.6979822198264" fill="#ffffff"></rect><g stroke-linecap="round" transform="translate(406.01441477882145 261.02099729002293) rotate(0 47.14470912726574 43.25269195895635)"><path d="M62.1 3.07 C69.95 5.04, 79.29 11.16, 84.48 17.05 C89.68 22.94, 92.63 30.9, 93.28 38.44 C93.92 45.97, 92.22 55.18, 88.33 62.26 C84.44 69.35, 77.03 76.94, 69.94 80.95 C62.85 84.96, 54.02 86.66, 45.77 86.32 C37.52 85.98, 27.33 83.27, 20.43 78.91 C13.53 74.54, 7.64 67.44, 4.34 60.13 C1.04 52.81, -0.8 42.73, 0.62 35.02 C2.05 27.31, 6.92 19.48, 12.87 13.88 C18.83 8.28, 27.31 3.1, 36.35 1.4 C45.38 -0.31, 61.48 2.79, 67.09 3.65 C72.69 4.51, 70.25 5.96, 69.97 6.55 M61.65 1.79 C69.27 3.41, 76.44 9.49, 81.98 15.45 C87.52 21.42, 93.47 29.78, 94.88 37.58 C96.29 45.38, 94.36 55.02, 90.43 62.27 C86.51 69.53, 78.77 76.87, 71.32 81.11 C63.88 85.36, 53.97 88.12, 45.77 87.75 C37.56 87.38, 28.81 83.5, 22.1 78.9 C15.39 74.3, 9.05 67.4, 5.51 60.16 C1.97 52.92, -0.44 43.27, 0.85 35.46 C2.14 27.66, 7.55 19.14, 13.26 13.33 C18.96 7.53, 27.06 2.44, 35.1 0.63 C43.14 -1.19, 57.27 2.32, 61.51 2.45 C65.75 2.59, 60.94 0.8, 60.54 1.45" stroke="none" stroke-width="0" fill="#e7f5ff"></path><path d="M65.93 2.85 C73.51 5.4, 82.09 13.24, 86.68 19.96 C91.27 26.69, 93.37 35.55, 93.46 43.23 C93.55 50.9, 91.57 59.64, 87.23 66 C82.89 72.37, 75.19 78.04, 67.42 81.44 C59.65 84.84, 49.18 87.19, 40.61 86.38 C32.04 85.57, 22.4 81.53, 15.99 76.57 C9.59 71.6, 4.48 63.93, 2.17 56.57 C-0.14 49.2, -0.05 39.99, 2.12 32.37 C4.29 24.76, 8.79 16.11, 15.17 10.88 C21.55 5.65, 31.16 1.88, 40.41 1.01 C49.65 0.13, 64.75 4.07, 70.63 5.6 C76.51 7.13, 75.91 9.38, 75.69 10.19 M24.31 4.82 C30.84 1.22, 42.17 -0.05, 51.01 0.59 C59.86 1.23, 70.4 4.11, 77.38 8.67 C84.37 13.23, 90.49 20.23, 92.93 27.96 C95.38 35.69, 94.06 47.48, 92.04 55.02 C90.02 62.57, 86.89 68.34, 80.81 73.22 C74.73 78.11, 63.9 82.74, 55.56 84.35 C47.22 85.96, 38.52 85.56, 30.77 82.88 C23.03 80.2, 14.39 74.77, 9.09 68.26 C3.8 61.75, -0.49 51.81, -1.01 43.83 C-1.53 35.86, 1.63 27.03, 5.99 20.42 C10.36 13.82, 21.61 6.82, 25.2 4.21 C28.79 1.59, 26.92 4.05, 27.55 4.71" stroke="#1e1e1e" stroke-width="4" fill="none"></path></g><g transform="translate(441.514781727903 281.68941746022847) rotate(0 11.807998657226562 22.5)"><text x="11.807998657226562" y="0" font-family="Virgil, Segoe UI Emoji" font-size="36px" fill="#1e1e1e" text-anchor="middle" style="white-space: pre;" direction="ltr" dominant-baseline="text-before-edge">A</text></g><g stroke-linecap="round" transform="translate(424.5586326357352 564.1523568103239) rotate(0 47.14470912726574 43.25269195895635)"><path d="M62.56 1.97 C70.2 3.72, 78.86 9.98, 83.99 16.35 C89.12 22.71, 92.43 32.29, 93.34 40.17 C94.26 48.05, 93.28 56.73, 89.49 63.62 C85.69 70.5, 78 77.57, 70.58 81.49 C63.17 85.42, 53.63 87.77, 45.01 87.18 C36.4 86.59, 25.91 82.64, 18.89 77.95 C11.88 73.26, 5.86 66.3, 2.94 59.06 C0.02 51.81, -0.43 42.24, 1.37 34.48 C3.16 26.71, 7.93 18.1, 13.72 12.48 C19.5 6.86, 27.2 2.34, 36.08 0.78 C44.95 -0.79, 61.37 2.14, 66.98 3.08 C72.59 4.01, 70.14 5.53, 69.74 6.39 M46.53 0.01 C54.87 -0.77, 64.91 2.5, 71.9 6.69 C78.89 10.88, 84.94 18.07, 88.49 25.16 C92.04 32.24, 93.81 41.72, 93.18 49.19 C92.55 56.66, 89.67 64.23, 84.71 69.98 C79.75 75.73, 71.6 81.37, 63.43 83.71 C55.27 86.05, 43.95 86.05, 35.7 84.01 C27.46 81.97, 19.68 77.15, 13.97 71.46 C8.26 65.77, 3.08 57.26, 1.44 49.88 C-0.19 42.5, 1.06 34.44, 4.18 27.19 C7.3 19.95, 13.37 10.89, 20.18 6.41 C26.99 1.93, 41.03 1.46, 45.06 0.32 C49.08 -0.83, 44.15 -1.12, 44.35 -0.46" stroke="none" stroke-width="0" fill="#e7f5ff"></path><path d="M26.97 4.3 C34.05 0.59, 45.67 -0.63, 54.24 0.28 C62.81 1.2, 72.09 4.58, 78.39 9.79 C84.69 15, 89.86 23.85, 92.06 31.54 C94.26 39.24, 93.95 48.42, 91.6 55.95 C89.24 63.49, 84.19 71.57, 77.92 76.73 C71.65 81.89, 62.51 85.95, 53.96 86.9 C45.42 87.86, 34.33 85.8, 26.65 82.47 C18.97 79.14, 12.43 73.58, 7.88 66.92 C3.32 60.26, -0.67 50.3, -0.68 42.5 C-0.69 34.69, 2.39 26.66, 7.83 20.08 C13.26 13.51, 27.44 5.88, 31.92 3.05 C36.4 0.22, 34.68 2.67, 34.72 3.08 M49.89 -0.7 C58.32 -1.3, 68.65 1.63, 75.32 6.45 C81.99 11.26, 86.65 21, 89.9 28.19 C93.15 35.38, 96.26 42.39, 94.82 49.59 C93.39 56.8, 87.07 65.56, 81.27 71.42 C75.47 77.28, 68.14 82.6, 60.03 84.75 C51.91 86.91, 41.05 86.97, 32.6 84.35 C24.14 81.73, 14.75 75.3, 9.28 69.03 C3.82 62.75, 0.6 54.35, -0.19 46.72 C-0.99 39.09, 0.36 30.18, 4.5 23.26 C8.63 16.34, 16.99 9.15, 24.59 5.22 C32.19 1.28, 46.24 0.26, 50.08 -0.33 C53.93 -0.93, 47.72 0.79, 47.67 1.64" stroke="#1e1e1e" stroke-width="4" fill="none"></path></g><g transform="translate(458.7809997068871 584.8207769805294) rotate(0 13.08599853515625 22.5)"><text x="13.08599853515625" y="0" font-family="Virgil, Segoe UI Emoji" font-size="36px" fill="#1e1e1e" text-anchor="middle" style="white-space: pre;" direction="ltr" dominant-baseline="text-before-edge">B</text></g><g stroke-linecap="round" transform="translate(807.894319790681 247.5620706943555) rotate(0 47.14470912726665 43.25269195895635)"><path d="M27.33 3.4 C34.36 -0.71, 44.02 -1.68, 52.46 -0.65 C60.91 0.37, 71.35 4.42, 78 9.54 C84.65 14.66, 90.02 22.73, 92.35 30.06 C94.68 37.39, 94.29 46.11, 92.01 53.52 C89.72 60.93, 84.86 69.18, 78.64 74.52 C72.42 79.86, 62.86 84.22, 54.69 85.56 C46.51 86.9, 37.22 85.58, 29.59 82.54 C21.96 79.5, 13.96 73.61, 8.89 67.33 C3.82 61.05, -0.61 52.58, -0.84 44.87 C-1.07 37.17, 1.94 28.29, 7.5 21.09 C13.06 13.88, 27.1 4.86, 32.54 1.64 C37.97 -1.58, 39.77 1.14, 40.14 1.76" stroke="none" stroke-width="0" fill="#ffec99"></path><path d="M58.88 0.38 C66.78 1.69, 75.54 8.06, 81.19 13.96 C86.85 19.85, 91.21 28.04, 92.81 35.77 C94.42 43.5, 93.89 53.06, 90.84 60.35 C87.78 67.65, 81.58 75.19, 74.48 79.53 C67.39 83.88, 56.72 86.2, 48.26 86.44 C39.79 86.69, 31.03 85.03, 23.71 80.99 C16.39 76.94, 8.22 69.16, 4.35 62.18 C0.47 55.21, -0.6 46.7, 0.46 39.14 C1.53 31.57, 5.61 22.8, 10.74 16.8 C15.86 10.8, 23.02 5.78, 31.22 3.13 C39.42 0.48, 54.66 0.96, 59.91 0.9 C65.17 0.84, 62.77 1.8, 62.74 2.75" stroke="#1e1e1e" stroke-width="4.5" fill="none" stroke-dasharray="1.5 10"></path></g><g transform="translate(845.3926878383954 268.23049086456103) rotate(0 9.80999755859375 22.5)"><text x="9.80999755859375" y="0" font-family="Virgil, Segoe UI Emoji" font-size="36px" fill="#1e1e1e" text-anchor="middle" style="white-space: pre;" direction="ltr" dominant-baseline="text-before-edge">I</text></g><g stroke-linecap="round"><g transform="translate(478.78520702891 353.1914332547967) rotate(0 2.7102847501428187 102.32582042371041)"><path d="M-0.23 0.21 C0.52 34.2, 3.98 170.17, 5.11 204.09 M-1.81 -0.73 C-0.76 33.41, 5.94 171.16, 7.23 205.38" stroke="#1e1e1e" stroke-width="4" fill="none"></path></g></g><mask></mask><g stroke-linecap="round"><g transform="translate(506.43186975768003 296.9620428637463) rotate(0 146.93687596239124 -2.145310443966082)"><path d="M0.29 -0.85 C49.63 -1.71, 245.72 -4.87, 294.88 -5.61 M-1.01 1.32 C48.29 0.72, 244.79 -2.56, 294.12 -4.01" stroke="#1e1e1e" stroke-width="4" fill="none"></path></g></g><mask></mask><g stroke-linecap="round" transform="translate(843.3758391192478 488.59716899879277) rotate(0 47.14470912726574 43.25269195895635)"><path d="M45.6 0.2 C53.67 -0.84, 63.98 1.71, 71.12 5.59 C78.26 9.46, 84.54 16.56, 88.43 23.45 C92.33 30.34, 95.13 39.06, 94.49 46.93 C93.85 54.8, 89.96 64.36, 84.58 70.65 C79.21 76.95, 70.39 82.4, 62.23 84.7 C54.07 87, 43.85 86.3, 35.63 84.44 C27.4 82.58, 18.69 79.01, 12.88 73.53 C7.07 68.05, 2.27 59.42, 0.78 51.55 C-0.72 43.68, 0.55 33.7, 3.91 26.32 C7.26 18.94, 12.91 11.55, 20.88 7.28 C28.86 3.02, 45.91 1.5, 51.78 0.74 C57.65 -0.02, 56.36 2.06, 56.09 2.71 M30.4 2.09 C37.52 -0.92, 48.5 -0.09, 56.7 1.35 C64.9 2.79, 73.63 5.38, 79.59 10.72 C85.56 16.06, 90.69 25.85, 92.5 33.41 C94.31 40.98, 93.07 48.81, 90.46 56.12 C87.84 63.43, 83.48 72.02, 76.81 77.28 C70.13 82.55, 59.14 87.13, 50.4 87.71 C41.66 88.28, 31.93 84.64, 24.37 80.73 C16.81 76.82, 9 70.8, 5.02 64.26 C1.04 57.71, -0.2 49.3, 0.51 41.48 C1.22 33.66, 4.24 23.54, 9.28 17.33 C14.32 11.11, 27.22 6.44, 30.76 4.21 C34.29 1.98, 30.15 3.64, 30.49 3.96" stroke="none" stroke-width="0" fill="#e7f5ff"></path><path d="M66.16 3.95 C73.84 6.21, 80.74 12, 85.46 18.43 C90.18 24.87, 94.08 34.58, 94.48 42.56 C94.87 50.54, 92.41 59.58, 87.81 66.32 C83.21 73.06, 74.73 79.86, 66.88 83.01 C59.02 86.17, 48.95 86.39, 40.69 85.24 C32.42 84.08, 23.63 80.77, 17.27 76.08 C10.91 71.39, 5.21 64.29, 2.51 57.1 C-0.18 49.9, -0.89 40.63, 1.1 32.9 C3.09 25.17, 7.95 15.96, 14.46 10.72 C20.97 5.49, 30.52 2.1, 40.15 1.49 C49.77 0.87, 65.85 5, 72.21 7.03 C78.57 9.06, 78.62 13.01, 78.31 13.69 M48.38 -0.98 C56.55 -1.19, 66.19 2.74, 73.47 7.23 C80.75 11.71, 88.54 18.71, 92.06 25.94 C95.59 33.16, 96.58 42.64, 94.63 50.57 C92.68 58.49, 86.17 67.64, 80.37 73.47 C74.56 79.3, 67.87 83.86, 59.8 85.56 C51.74 87.25, 40.04 86.09, 31.98 83.64 C23.93 81.19, 16.64 77.01, 11.49 70.85 C6.34 64.69, 2.36 54.69, 1.11 46.68 C-0.14 38.67, 0.51 29.77, 3.98 22.79 C7.45 15.82, 14.38 8.43, 21.91 4.85 C29.45 1.26, 44.76 1.78, 49.21 1.27 C53.65 0.77, 48.57 1.05, 48.58 1.8" stroke="#1e1e1e" stroke-width="4" fill="none"></path></g><g transform="translate(879.0922094862981 509.2655891689983) rotate(0 11.591995239257812 22.5)"><text x="11.591995239257812" y="0" font-family="Virgil, Segoe UI Emoji" font-size="36px" fill="#1e1e1e" text-anchor="middle" style="white-space: pre;" direction="ltr" dominant-baseline="text-before-edge">C</text></g><g stroke-linecap="round"><g transform="translate(526.8698216016764 601.6430207156354) rotate(0 155.38943536113857 -25.679786038421298)"><path d="M-0.04 0.64 C51.85 -7.89, 260.44 -43.4, 312.29 -52 M-1.51 -0.07 C50.18 -8.4, 259.73 -42.66, 311.65 -50.89" stroke="#1e1e1e" stroke-width="4" fill="none"></path></g></g><mask></mask><g stroke-linecap="round" transform="translate(1025.8379221369705 856.4379266965698) rotate(0 47.14470912726574 43.25269195895635)"><path d="M41.48 0.8 C49.31 -0.58, 59.55 1.44, 67.13 4.55 C74.71 7.66, 82.44 12.82, 86.98 19.45 C91.52 26.08, 94.45 36.34, 94.38 44.33 C94.31 52.32, 91.16 61.09, 86.55 67.41 C81.94 73.72, 74.34 79.19, 66.72 82.2 C59.09 85.21, 49.12 86.44, 40.79 85.45 C32.47 84.46, 23.32 81.17, 16.76 76.27 C10.21 71.36, 3.99 63.59, 1.47 56.02 C-1.05 48.46, -0.76 38.33, 1.64 30.87 C4.03 23.4, 9.1 16.25, 15.86 11.21 C22.61 6.18, 37.38 2.3, 42.14 0.64 C46.91 -1.01, 44.15 0.66, 44.42 1.28 M26.47 2.51 C33.72 -1.15, 46.15 -1.14, 54.57 0.44 C62.98 2.03, 70.84 7.07, 76.97 12.04 C83.09 17, 88.96 23.09, 91.31 30.25 C93.67 37.41, 93.24 47.31, 91.08 54.99 C88.93 62.68, 84.51 71.33, 78.37 76.38 C72.22 81.43, 62.52 84.09, 54.21 85.3 C45.9 86.52, 36.23 86.8, 28.5 83.68 C20.77 80.57, 12.38 73.53, 7.86 66.62 C3.34 59.71, 1.2 49.97, 1.36 42.21 C1.53 34.46, 4.32 26.25, 8.84 20.08 C13.37 13.9, 25.3 7.72, 28.5 5.16 C31.71 2.61, 27.78 4.24, 28.09 4.73" stroke="none" stroke-width="0" fill="#e7f5ff"></path><path d="M55.91 1.81 C63.73 2.48, 73.09 6.26, 79.31 11.49 C85.53 16.72, 91.16 25.33, 93.22 33.2 C95.28 41.07, 94.69 51.15, 91.68 58.69 C88.67 66.24, 82.13 73.95, 75.17 78.47 C68.21 82.99, 58.16 85.17, 49.92 85.8 C41.68 86.42, 33.23 85.85, 25.73 82.23 C18.23 78.61, 9.36 70.87, 4.93 64.06 C0.5 57.25, -1.51 49.07, -0.85 41.38 C-0.18 33.69, 3.7 24.44, 8.92 17.9 C14.13 11.36, 21.79 4.81, 30.44 2.13 C39.09 -0.55, 55.01 1.46, 60.8 1.8 C66.6 2.13, 65.36 3.24, 65.21 4.13 M34.01 2.13 C41.65 -0.19, 54.61 0.35, 62.85 2.55 C71.09 4.75, 78.09 9.27, 83.46 15.32 C88.83 21.38, 93.92 31.25, 95.05 38.91 C96.18 46.56, 94.34 54.53, 90.23 61.26 C86.11 67.99, 77.99 75.26, 70.36 79.26 C62.74 83.26, 52.74 85.13, 44.48 85.27 C36.22 85.42, 27.63 84.2, 20.8 80.13 C13.96 76.06, 6.7 68.03, 3.45 60.87 C0.2 53.71, -0.38 45.06, 1.32 37.18 C3.02 29.29, 8.02 19.57, 13.66 13.58 C19.31 7.58, 31.42 3, 35.18 1.19 C38.94 -0.61, 35.96 1.99, 36.22 2.75" stroke="#1e1e1e" stroke-width="4" fill="none"></path></g><g transform="translate(1058.6742876212084 877.1063468667753) rotate(0 14.472000122070312 22.5)"><text x="14.472000122070312" y="0" font-family="Virgil, Segoe UI Emoji" font-size="36px" fill="#1e1e1e" text-anchor="middle" style="white-space: pre;" direction="ltr" dominant-baseline="text-before-edge">T</text></g><g stroke-linecap="round"><g transform="translate(513.3868626411186 636.8255779623723) rotate(0 254.25974700149982 127.21346907399129)"><path d="M0.74 -1.13 C85.47 41.23, 424.53 211.79, 508.85 254.61 M-0.33 0.89 C84.29 43.32, 423.59 212.84, 508.46 255.56" stroke="#1e1e1e" stroke-width="4" fill="none"></path></g></g><mask></mask><g stroke-linecap="round"><g transform="translate(507.0463452700933 573.6846790475774) rotate(0 156.65816313426876 -120.41168431974529)"><path d="M-1.16 0.09 C50.68 -39.54, 259.68 -198.96, 312.13 -238.95 M0.43 -0.9 C52.57 -40.82, 262.36 -201.26, 314.48 -240.92" stroke="#1e1e1e" stroke-width="4" fill="none"></path></g></g><mask></mask><g stroke-linecap="round" transform="translate(1105.3075890210075 295.8330911039284) rotate(0 47.14470912726574 43.25269195895635)"><path d="M57.86 0.41 C65.96 1.57, 75.39 7.44, 81.23 13.19 C87.07 18.95, 91.25 27.39, 92.88 34.94 C94.5 42.48, 93.98 51.16, 90.96 58.46 C87.93 65.76, 81.59 74, 74.73 78.73 C67.88 83.47, 58.27 86.38, 49.81 86.86 C41.36 87.34, 31.27 85.45, 24 81.64 C16.73 77.83, 10.32 70.93, 6.19 63.98 C2.07 57.03, -1.29 47.85, -0.74 39.95 C-0.18 32.06, 4.46 22.74, 9.53 16.61 C14.59 10.47, 20.68 5.6, 29.66 3.15 C38.65 0.7, 56.72 1.56, 63.44 1.9 C70.17 2.24, 70.38 4.55, 70.01 5.21 M38.85 -0.02 C46.75 -1.87, 57.98 1.22, 65.85 4.28 C73.72 7.34, 81.11 12.33, 86.07 18.35 C91.03 24.37, 95.08 32.58, 95.6 40.4 C96.12 48.22, 93.55 58.19, 89.19 65.3 C84.83 72.41, 77.22 79.54, 69.45 83.06 C61.67 86.57, 51.02 87.31, 42.55 86.38 C34.08 85.46, 25.3 82.6, 18.63 77.51 C11.96 72.41, 5.2 63.05, 2.52 55.81 C-0.15 48.56, 0.75 41.43, 2.58 34.05 C4.42 26.67, 7.35 17.07, 13.52 11.52 C19.69 5.98, 35.34 2.35, 39.6 0.77 C43.86 -0.8, 39.36 1.38, 39.07 2.06" stroke="none" stroke-width="0" fill="#e7f5ff"></path><path d="M65.76 4.04 C73.47 6.33, 80.08 11.76, 84.67 18.14 C89.26 24.51, 92.82 34.43, 93.3 42.3 C93.78 50.17, 91.69 58.91, 87.58 65.37 C83.47 71.83, 76.3 77.64, 68.64 81.08 C60.98 84.52, 50.21 86.71, 41.63 85.99 C33.05 85.27, 23.75 81.4, 17.17 76.76 C10.6 72.12, 4.91 65.33, 2.2 58.13 C-0.52 50.94, -1.18 41.47, 0.87 33.6 C2.92 25.74, 8.17 16.33, 14.51 10.97 C20.86 5.6, 29.87 2.49, 38.92 1.41 C47.96 0.34, 63.43 3.43, 68.8 4.53 C74.17 5.62, 71.47 7.2, 71.12 7.97 M27.68 2.18 C35.09 -0.86, 47.1 0.2, 55.63 1.89 C64.16 3.58, 72.57 7.02, 78.86 12.33 C85.15 17.64, 90.98 26.41, 93.36 33.74 C95.74 41.08, 95.87 49.2, 93.12 56.34 C90.36 63.48, 83.48 71.51, 76.82 76.58 C70.16 81.65, 61.52 85.82, 53.14 86.75 C44.76 87.69, 34.37 85.93, 26.54 82.2 C18.72 78.47, 10.68 70.97, 6.19 64.38 C1.7 57.78, -0.54 50.08, -0.38 42.63 C-0.22 35.19, 2.16 26.23, 7.14 19.68 C12.11 13.14, 25.68 5.98, 29.47 3.38 C33.27 0.78, 29.91 3.39, 29.92 4.08" stroke="#1e1e1e" stroke-width="4" fill="none"></path></g><g transform="translate(1138.5759613411828 316.5015112741339) rotate(0 14.039993286132812 22.5)"><text x="14.039993286132812" y="0" font-family="Virgil, Segoe UI Emoji" font-size="36px" fill="#1e1e1e" text-anchor="middle" style="white-space: pre;" direction="ltr" dominant-baseline="text-before-edge">D</text></g><g stroke-linecap="round"><g transform="translate(928.3156114791836 499.10804898571405) rotate(0 89.68840890908996 -66.1772622343251)"><path d="M-0.69 1.08 C29.17 -20.98, 150.15 -111.03, 180.07 -133.44 M1.15 0.6 C30.86 -21.26, 150.21 -110.31, 179.67 -132.52" stroke="#1e1e1e" stroke-width="4" fill="none"></path></g></g><mask></mask><g stroke-linecap="round" transform="translate(1165.4775122318042 525.7009021351241) rotate(0 47.14470912726574 43.25269195895635)"><path d="M68.61 6.03 C75.97 9.03, 83.35 15.94, 87.51 22.66 C91.66 29.37, 93.87 38.64, 93.54 46.33 C93.21 54.01, 90.57 62.6, 85.51 68.77 C80.45 74.93, 71.13 80.65, 63.16 83.32 C55.2 85.99, 46.06 86.26, 37.73 84.79 C29.41 83.32, 19.31 79.95, 13.21 74.5 C7.12 69.04, 2.74 59.84, 1.16 52.06 C-0.42 44.27, 0.96 35.1, 3.75 27.77 C6.55 20.43, 11.39 12.58, 17.93 8.02 C24.47 3.47, 33.66 0.48, 42.98 0.44 C52.3 0.4, 68.27 5.93, 73.85 7.79 C79.42 9.64, 76.79 10.98, 76.43 11.58 M49.82 0.33 C57.81 0.31, 67.81 4.51, 74.61 8.87 C81.4 13.24, 87.32 19.51, 90.6 26.53 C93.89 33.55, 95.79 43.57, 94.33 50.99 C92.86 58.41, 87.49 65.18, 81.82 71.05 C76.16 76.92, 68.73 84.04, 60.32 86.2 C51.91 88.37, 39.43 86.63, 31.35 84.04 C23.28 81.44, 16.95 76.53, 11.87 70.62 C6.78 64.71, 2.25 56.38, 0.84 48.6 C-0.57 40.83, -0.31 31.08, 3.43 23.98 C7.17 16.88, 15.97 9.84, 23.29 5.98 C30.61 2.12, 43.11 1.43, 47.35 0.82 C51.59 0.22, 48.48 1.67, 48.72 2.34" stroke="none" stroke-width="0" fill="#e7f5ff"></path><path d="M68.15 3.8 C75.59 6.44, 82.52 14, 86.76 20.74 C91 27.48, 93.78 36.26, 93.6 44.25 C93.41 52.24, 90.43 62.09, 85.64 68.69 C80.85 75.3, 72.67 81.16, 64.85 83.88 C57.03 86.59, 46.91 86.36, 38.71 84.99 C30.51 83.63, 21.81 80.87, 15.65 75.69 C9.49 70.51, 4.06 61.47, 1.77 53.93 C-0.51 46.39, -0.74 37.74, 1.92 30.46 C4.58 23.17, 11.19 15.38, 17.72 10.24 C24.26 5.1, 32.63 0.57, 41.13 -0.4 C49.63 -1.38, 63.99 3.16, 68.72 4.37 C73.46 5.58, 69.64 6.1, 69.53 6.84 M62.31 1.62 C70.09 2.97, 77.77 9.15, 83.15 15.26 C88.53 21.38, 93.45 30.52, 94.59 38.31 C95.73 46.1, 93.82 55.25, 89.96 62.01 C86.1 68.76, 78.77 74.65, 71.44 78.85 C64.11 83.04, 54.58 86.96, 45.99 87.17 C37.4 87.39, 26.8 84.58, 19.9 80.15 C13 75.72, 7.67 67.88, 4.57 60.57 C1.47 53.27, 0.25 43.98, 1.3 36.31 C2.34 28.64, 5.15 20.34, 10.86 14.55 C16.58 8.75, 27.1 3.55, 35.59 1.55 C44.07 -0.45, 57.72 2.14, 61.79 2.55 C65.86 2.96, 60.5 3.19, 60.03 3.98" stroke="#1e1e1e" stroke-width="4" fill="none"></path></g><g transform="translate(1200.6538816833272 546.3693223053297) rotate(0 12.131996154785156 22.5)"><text x="12.131996154785156" y="0" font-family="Virgil, Segoe UI Emoji" font-size="36px" fill="#1e1e1e" text-anchor="middle" style="white-space: pre;" direction="ltr" dominant-baseline="text-before-edge">E</text></g><g stroke-linecap="round"><g transform="translate(938.4117345680515 555.1913211803949) rotate(0 112.4172790464454 9.517598888033262)"><path d="M0.4 0.09 C37.45 3.3, 186.17 15.76, 223.42 18.94 M-0.85 -0.92 C36.48 2.45, 188.39 16.46, 225.69 19.95" stroke="#1e1e1e" stroke-width="4" fill="none"></path></g></g><mask></mask><g stroke-linecap="round"><g transform="translate(1167.7362348995684 387.4260142077892) rotate(0 13.552466529336016 63.691968914905374)"><path d="M-0.36 -0.8 C4.36 20.51, 22.57 105.62, 27.46 126.86 M1.66 1.39 C6.25 22.96, 21.75 107.14, 26.28 128.19" stroke="#1e1e1e" stroke-width="4" fill="none"></path></g></g><mask></mask><g stroke-linecap="round" transform="translate(1393.9913841445905 271.51109630889005) rotate(0 47.14470912726574 43.25269195895635)"><path d="M38.72 0.94 C46.55 -0.83, 57.87 -0.1, 65.96 2.83 C74.06 5.76, 82.66 12.03, 87.28 18.5 C91.89 24.97, 93.72 33.69, 93.66 41.65 C93.59 49.62, 91.2 59.47, 86.87 66.3 C82.55 73.12, 75.41 79.17, 67.72 82.6 C60.03 86.03, 49.08 87.85, 40.74 86.87 C32.39 85.9, 24.08 81.7, 17.66 76.73 C11.24 71.77, 4.97 64.42, 2.21 57.07 C-0.56 49.73, -1.2 40.23, 1.07 32.66 C3.35 25.08, 8.97 17, 15.86 11.61 C22.74 6.23, 37.77 2.01, 42.39 0.32 C47 -1.37, 43.57 0.78, 43.56 1.49 M23.67 4.8 C30.48 0.58, 43.34 -0.6, 52.1 0.15 C60.86 0.9, 69.89 4.59, 76.21 9.27 C82.53 13.96, 87.12 21.07, 90.01 28.28 C92.91 35.49, 95.42 44.78, 93.59 52.55 C91.77 60.31, 85.15 69.12, 79.06 74.87 C72.97 80.62, 65.09 85.49, 57.04 87.04 C49 88.6, 38.94 87.36, 30.77 84.21 C22.59 81.05, 13 74.46, 8 68.11 C3 61.77, 1.34 53.67, 0.74 46.13 C0.15 38.59, 0.67 29.55, 4.45 22.89 C8.23 16.22, 20.13 8.91, 23.44 6.14 C26.74 3.37, 23.48 5.95, 24.28 6.27" stroke="none" stroke-width="0" fill="#e7f5ff"></path><path d="M64.44 3.5 C72.3 5.69, 80.47 11.12, 85.36 17.41 C90.24 23.69, 93.21 33.28, 93.76 41.19 C94.31 49.09, 92.84 58.23, 88.66 64.82 C84.47 71.4, 76.3 77.23, 68.64 80.7 C60.98 84.16, 51.17 86.05, 42.7 85.59 C34.23 85.13, 24.31 82.55, 17.81 77.94 C11.31 73.33, 6.36 65.23, 3.68 57.93 C1.01 50.63, -0.13 41.6, 1.76 34.15 C3.64 26.7, 9.09 18.76, 15.01 13.21 C20.92 7.66, 28.46 2.24, 37.24 0.84 C46.02 -0.55, 62.01 3.79, 67.7 4.84 C73.4 5.89, 71.72 6.64, 71.41 7.16 M28.2 4.1 C35.59 0.63, 47.71 -0.54, 56.37 0.71 C65.03 1.97, 74.25 6.28, 80.14 11.64 C86.04 17.01, 89.62 25.33, 91.73 32.91 C93.84 40.48, 95.22 49.64, 92.8 57.1 C90.37 64.56, 84.13 72.6, 77.18 77.66 C70.23 82.73, 59.8 86.58, 51.1 87.49 C42.41 88.39, 32.29 86.88, 25 83.08 C17.72 79.28, 11.3 71.7, 7.38 64.67 C3.47 57.64, 1.27 48.79, 1.51 40.89 C1.76 32.99, 3.98 23.75, 8.85 17.27 C13.71 10.79, 27.11 4.37, 30.7 1.99 C34.29 -0.38, 30.22 2.06, 30.39 3.02" stroke="#1e1e1e" stroke-width="4" fill="none"></path></g><g transform="translate(1427.0977539012893 292.1795164790956) rotate(0 14.201995849609375 22.5)"><text x="14.201995849609375" y="0" font-family="Virgil, Segoe UI Emoji" font-size="36px" fill="#1e1e1e" text-anchor="middle" style="white-space: pre;" direction="ltr" dominant-baseline="text-before-edge">G</text></g><g stroke-linecap="round"><g transform="translate(1253.8174241452343 530.6596768198124) rotate(0 78.81301473486928 -88.56171748036877)"><path d="M-1.03 0.6 C25.27 -28.65, 132.21 -146.23, 158.65 -175.76 M0.63 -0.14 C26.77 -29.73, 132.1 -148.48, 158.12 -177.72" stroke="#1e1e1e" stroke-width="4" fill="none"></path></g></g><mask></mask><g stroke-linecap="round" transform="translate(1408.3907510109748 505.4388907911034) rotate(0 47.14470912726665 43.25269195895635)"><path d="M29.81 3.2 C37.24 0.16, 48.6 -0.42, 56.89 1.22 C65.19 2.86, 73.43 7.59, 79.59 13.04 C85.75 18.49, 91.86 26.26, 93.86 33.89 C95.85 41.52, 94.66 51.4, 91.56 58.83 C88.45 66.25, 81.92 73.77, 75.2 78.45 C68.48 83.13, 59.46 86.4, 51.24 86.91 C43.02 87.41, 33.41 85.12, 25.88 81.45 C18.35 77.78, 10.34 71.69, 6.08 64.89 C1.81 58.08, -0.03 48.35, 0.31 40.63 C0.64 32.9, 2.03 25.23, 8.11 18.53 C14.19 11.83, 31.14 3.19, 36.78 0.43 C42.42 -2.34, 41.89 1.05, 41.95 1.94 M54.71 0.28 C62.83 0.96, 70.81 6.18, 77.15 11.61 C83.48 17.05, 90.12 25.43, 92.71 32.88 C95.3 40.34, 95.39 49.25, 92.69 56.33 C89.99 63.42, 82.95 70.4, 76.52 75.38 C70.08 80.36, 62.57 84.94, 54.1 86.23 C45.63 87.51, 33.75 86.24, 25.71 83.09 C17.66 79.93, 10.3 73.96, 5.85 67.32 C1.39 60.68, -1.52 51.36, -1.02 43.25 C-0.52 35.14, 4 25.1, 8.85 18.66 C13.7 12.22, 20.67 7.68, 28.09 4.62 C35.5 1.55, 49.12 0.71, 53.34 0.25 C57.57 -0.21, 53.42 1.18, 53.45 1.88" stroke="none" stroke-width="0" fill="#e7f5ff"></path><path d="M62.56 1.97 C70.2 3.72, 78.86 9.98, 83.99 16.35 C89.12 22.71, 92.43 32.29, 93.34 40.17 C94.26 48.05, 93.28 56.73, 89.49 63.62 C85.69 70.5, 78 77.57, 70.58 81.49 C63.17 85.42, 53.63 87.77, 45.01 87.18 C36.4 86.59, 25.91 82.64, 18.89 77.95 C11.88 73.26, 5.86 66.3, 2.94 59.06 C0.02 51.81, -0.43 42.24, 1.37 34.48 C3.16 26.71, 7.93 18.1, 13.72 12.48 C19.5 6.86, 27.2 2.34, 36.08 0.78 C44.95 -0.79, 61.37 2.14, 66.98 3.08 C72.59 4.01, 70.14 5.53, 69.74 6.39 M46.53 0.01 C54.87 -0.77, 64.91 2.5, 71.9 6.69 C78.89 10.88, 84.94 18.07, 88.49 25.16 C92.04 32.24, 93.81 41.72, 93.18 49.19 C92.55 56.66, 89.67 64.23, 84.71 69.98 C79.75 75.73, 71.6 81.37, 63.43 83.71 C55.27 86.05, 43.95 86.05, 35.7 84.01 C27.46 81.97, 19.68 77.15, 13.97 71.46 C8.26 65.77, 3.08 57.26, 1.44 49.88 C-0.19 42.5, 1.06 34.44, 4.18 27.19 C7.3 19.95, 13.37 10.89, 20.18 6.41 C26.99 1.93, 41.03 1.46, 45.06 0.32 C49.08 -0.83, 44.15 -1.12, 44.35 -0.46" stroke="#1e1e1e" stroke-width="4" fill="none"></path></g><g transform="translate(1445.7811173497048 526.1073109613089) rotate(0 9.917999267578125 22.5)"><text x="9.917999267578125" y="0" font-family="Virgil, Segoe UI Emoji" font-size="36px" fill="#1e1e1e" text-anchor="middle" style="white-space: pre;" direction="ltr" dominant-baseline="text-before-edge">H</text></g><g stroke-linecap="round"><g transform="translate(1428.785434478048 367.35332666964496) rotate(0 12.850985635644065 68.18272109623149)"><path d="M0.67 -0.96 C4.51 21.69, 20.01 113.39, 23.85 136.25 M-0.44 1.16 C3.71 23.9, 21.71 114.69, 26.14 137.32" stroke="#1e1e1e" stroke-width="4" fill="none"></path></g></g><mask></mask><g stroke-linecap="round" transform="translate(1612.191962573701 507.5210167037585) rotate(0 47.14470912726574 43.25269195895635)"><path d="M63.55 3.59 C71.12 5.68, 79.05 11.92, 84.19 18.09 C89.33 24.25, 93.49 32.95, 94.37 40.59 C95.25 48.22, 93.53 57.04, 89.46 63.88 C85.38 70.72, 77.47 77.89, 69.92 81.64 C62.37 85.39, 52.79 86.86, 44.14 86.39 C35.49 85.91, 24.75 83.55, 18.02 78.77 C11.29 73.99, 6.63 64.99, 3.76 57.7 C0.9 50.4, -0.84 42.44, 0.82 35.01 C2.48 27.58, 7.64 18.94, 13.72 13.12 C19.8 7.29, 28.46 1.54, 37.29 0.07 C46.12 -1.41, 61.35 3.36, 66.71 4.25 C72.07 5.14, 69.65 4.78, 69.43 5.41 M68 4.22 C75.48 7.08, 84.75 15.11, 88.87 22.14 C92.99 29.17, 93.56 38.49, 92.72 46.42 C91.88 54.35, 88.76 63.46, 83.83 69.72 C78.91 75.97, 70.67 81.44, 63.18 83.95 C55.68 86.45, 47 86.21, 38.87 84.74 C30.74 83.26, 20.83 80.43, 14.41 75.09 C7.98 69.76, 2.35 60.4, 0.3 52.75 C-1.75 45.11, -0.91 36.55, 2.1 29.2 C5.12 21.85, 11.53 13.56, 18.39 8.67 C25.26 3.78, 34.63 0.62, 43.31 -0.13 C51.99 -0.89, 66.13 3.03, 70.45 4.13 C74.78 5.22, 69.99 5.9, 69.26 6.45" stroke="none" stroke-width="0" fill="#e7f5ff"></path><path d="M53.72 0.75 C61.83 1.24, 72.04 5.96, 78.41 10.89 C84.78 15.82, 89.6 22.94, 91.94 30.33 C94.29 37.73, 94.62 47.68, 92.45 55.24 C90.28 62.79, 85.22 70.6, 78.92 75.66 C72.63 80.72, 63.27 84.44, 54.69 85.6 C46.11 86.75, 35.19 85.8, 27.46 82.61 C19.74 79.42, 12.82 72.83, 8.34 66.46 C3.86 60.08, 0.81 51.94, 0.6 44.35 C0.39 36.76, 2.71 27.73, 7.08 20.91 C11.45 14.09, 18.83 6.7, 26.82 3.43 C34.81 0.15, 50.07 1.47, 55.02 1.26 C59.96 1.05, 56.59 1.66, 56.51 2.17 M66.48 2.98 C74.55 5, 82.9 11.97, 87.58 18.3 C92.26 24.63, 94.35 33.27, 94.56 40.96 C94.78 48.65, 93.18 57.75, 88.85 64.44 C84.52 71.13, 76.34 77.39, 68.58 81.12 C60.81 84.84, 50.83 87.72, 42.25 86.77 C33.66 85.82, 23.84 80.4, 17.09 75.41 C10.35 70.42, 4.59 64.26, 1.8 56.83 C-0.99 49.4, -2 38.42, 0.36 30.83 C2.71 23.25, 9.63 16.12, 15.91 11.32 C22.19 6.52, 29.94 3.48, 38.04 2.01 C46.13 0.54, 60.15 2.23, 64.47 2.5 C68.79 2.78, 64 2.8, 63.95 3.68" stroke="#1e1e1e" stroke-width="4" fill="none"></path></g><g transform="translate(1648.4663315979778 528.189436873964) rotate(0 11.03399658203125 22.5)"><text x="11.03399658203125" y="0" font-family="Virgil, Segoe UI Emoji" font-size="36px" fill="#1e1e1e" text-anchor="middle" style="white-space: pre;" direction="ltr" dominant-baseline="text-before-edge">K</text></g><g stroke-linecap="round"><g transform="translate(1475.1697499868806 354.1121564336627) rotate(0 70.04639788456643 83.85682359437669)"><path d="M-0.17 0.72 C23.41 28.5, 118.07 140.07, 141.81 167.66 M-1.72 0.06 C21.72 28.05, 117.17 138.24, 141.12 166.13" stroke="#1e1e1e" stroke-width="4" fill="none"></path></g></g><mask></mask><g stroke-linecap="round"><g transform="translate(1510.0887944308106 564.5038494071869) rotate(0 47.247839159766045 -1.407350083815345)"><path d="M0.92 -0.26 C16.6 -0.88, 78.84 -2.26, 94.55 -2.55 M-0.05 -1.45 C15.42 -1.36, 77.76 -0.65, 93.55 -1.09" stroke="#1e1e1e" stroke-width="4" fill="none"></path></g></g><mask></mask><g stroke-linecap="round" transform="translate(1359.3498516658565 654.5608748411214) rotate(0 47.14470912726574 43.25269195895635)"><path d="M55.51 0.93 C63.44 1.69, 72.4 5.58, 78.69 10.9 C84.99 16.22, 91.24 24.96, 93.29 32.83 C95.34 40.7, 93.93 50.84, 91.01 58.12 C88.08 65.39, 82.4 71.86, 75.74 76.49 C69.08 81.12, 59.31 84.99, 51.03 85.91 C42.75 86.84, 33.44 85.6, 26.06 82.04 C18.68 78.48, 10.98 71.19, 6.77 64.55 C2.55 57.91, 0.39 49.87, 0.75 42.17 C1.11 34.48, 3.97 25, 8.9 18.4 C13.83 11.8, 21.52 5.3, 30.31 2.57 C39.09 -0.16, 55.71 1.63, 61.61 2.05 C67.51 2.47, 66.07 4.42, 65.7 5.09" stroke="none" stroke-width="0" fill="#ffec99"></path><path d="M50.35 -0.11 C58.5 -0.16, 69.38 3.35, 76.34 8.22 C83.3 13.09, 89.34 21.54, 92.12 29.08 C94.91 36.63, 95.09 46.07, 93.07 53.47 C91.04 60.86, 86.04 67.99, 79.97 73.47 C73.9 78.94, 64.97 84.54, 56.66 86.3 C48.34 88.05, 37.95 87.02, 30.08 84 C22.21 80.98, 14.3 74.62, 9.43 68.15 C4.57 61.69, 1.31 52.81, 0.88 45.22 C0.46 37.63, 2.91 29.16, 6.9 22.63 C10.88 16.09, 16.16 9.51, 24.78 6 C33.41 2.5, 51.85 1.67, 58.63 1.59 C65.41 1.52, 65.71 4.82, 65.45 5.56" stroke="#1e1e1e" stroke-width="4.5" fill="none" stroke-dasharray="1.5 10"></path></g><g transform="translate(1396.3262241691373 675.2292950113269) rotate(0 10.331993103027344 22.5)"><text x="10.331993103027344" y="0" font-family="Virgil, Segoe UI Emoji" font-size="36px" fill="#1e1e1e" text-anchor="middle" style="white-space: pre;" direction="ltr" dominant-baseline="text-before-edge">F</text></g><g stroke-linecap="round"><g transform="translate(1642.0159465270608 600.3489344018853) rotate(0 -88.23975019180762 43.34254302739964)"><path d="M-0.44 -0.93 C-29.96 13.65, -147.39 72.83, -176.89 87.62 M1.53 1.2 C-28.19 15.41, -148.58 71.67, -178.01 85.78" stroke="#1e1e1e" stroke-width="4" fill="none"></path></g></g><mask></mask><g stroke-linecap="round" transform="translate(1299.2010907853419 887.1059029957596) rotate(0 47.14470912726574 43.25269195895635)"><path d="M66.45 2.72 C74.08 5.14, 81.73 13.15, 86.35 19.68 C90.96 26.2, 93.92 34.11, 94.14 41.88 C94.37 49.65, 91.99 59.49, 87.68 66.29 C83.38 73.08, 75.99 79.45, 68.29 82.63 C60.58 85.81, 50.11 86.33, 41.43 85.35 C32.76 84.37, 22.77 81.81, 16.23 76.76 C9.68 71.7, 4.51 62.69, 2.17 55.01 C-0.17 47.33, -0.22 38.14, 2.16 30.69 C4.54 23.23, 10.14 15.17, 16.45 10.27 C22.77 5.37, 31.38 2.16, 40.05 1.29 C48.71 0.42, 63.14 4.18, 68.46 5.06 C73.78 5.94, 72.24 6.01, 71.95 6.55 M55.57 0.38 C63.84 0.99, 74.17 5.19, 80.46 10.64 C86.75 16.1, 91.55 25.68, 93.31 33.13 C95.07 40.59, 93.99 48.35, 91.03 55.39 C88.06 62.44, 81.86 70.44, 75.51 75.43 C69.15 80.42, 61.25 84.33, 52.91 85.33 C44.57 86.34, 33.23 84.92, 25.47 81.45 C17.71 77.98, 10.36 71.2, 6.35 64.5 C2.33 57.8, 0.87 48.83, 1.37 41.27 C1.88 33.71, 4.63 25.55, 9.4 19.14 C14.17 12.73, 22.46 5.97, 29.99 2.81 C37.52 -0.35, 50.25 0.5, 54.6 0.17 C58.94 -0.15, 56.14 0.28, 56.06 0.88" stroke="none" stroke-width="0" fill="#e7f5ff"></path><path d="M56.77 0.16 C64.82 1.12, 74.28 7.45, 80.34 13.12 C86.4 18.79, 91.21 26.78, 93.13 34.18 C95.05 41.58, 94.61 50.36, 91.83 57.52 C89.05 64.68, 83.16 72.23, 76.47 77.14 C69.77 82.05, 60.33 86.11, 51.67 86.97 C43.02 87.84, 32.22 86.1, 24.53 82.34 C16.84 78.59, 9.72 71.27, 5.53 64.44 C1.33 57.62, -1.14 49.12, -0.66 41.39 C-0.18 33.66, 3.33 24.41, 8.39 18.05 C13.45 11.69, 20.7 5.86, 29.7 3.21 C38.7 0.55, 56.38 1.9, 62.4 2.12 C68.41 2.33, 66.05 3.93, 65.77 4.49 M25.56 5.67 C32.26 1.76, 43.41 -1.24, 51.82 -0.61 C60.23 0.02, 69.25 4.24, 76.04 9.44 C82.83 14.65, 89.71 23.2, 92.56 30.6 C95.41 38, 95.26 46.18, 93.13 53.83 C91 61.48, 86.1 71.14, 79.78 76.51 C73.47 81.87, 63.56 85.1, 55.23 86.02 C46.9 86.94, 37.44 85.09, 29.78 82.03 C22.12 78.97, 14.11 73.77, 9.29 67.67 C4.46 61.57, 1.21 53.25, 0.83 45.42 C0.45 37.59, 2.57 27.49, 7 20.68 C11.44 13.88, 24.1 7.46, 27.44 4.6 C30.79 1.75, 26.67 2.8, 27.09 3.58" stroke="#1e1e1e" stroke-width="4" fill="none"></path></g><g transform="translate(1333.081462617236 907.7743231659651) rotate(0 13.427993774414062 22.5)"><text x="13.427993774414062" y="0" font-family="Virgil, Segoe UI Emoji" font-size="36px" fill="#1e1e1e" text-anchor="middle" style="white-space: pre;" direction="ltr" dominant-baseline="text-before-edge">W</text></g><g stroke-linecap="round"><g transform="translate(1398.1656854110752 748.48898287271) rotate(0 -14.992473443525341 66.03326774920288)"><path d="M0.56 -0.08 C-4.61 21.86, -25.65 109.71, -30.55 131.64 M-0.6 -1.17 C-5.45 20.99, -23.56 110.9, -28.32 133.24" stroke="#1e1e1e" stroke-width="4" fill="none"></path></g></g><mask></mask><g stroke-linecap="round"><g transform="translate(1452.9284237245247 714.2059517768412) rotate(0 151.85393333956563 65.84702883835962)"><path d="M0.8 -0.01 C51.61 22.1, 253.62 110.55, 303.95 132.76 M-0.25 -1.06 C50.53 20.67, 252.96 108.81, 303.27 130.89" stroke="#1e1e1e" stroke-width="4" fill="none"></path></g></g><mask></mask><g stroke-linecap="round"><g transform="translate(1293.8361998379387 923.0369834730391) rotate(0 -77.28551227969183 -7.799339047436661)"><path d="M-0.68 0.96 C-26.72 -1.61, -130.13 -12.08, -155.74 -14.96 M1.17 0.42 C-24.52 -2.51, -127.39 -13.96, -153.37 -16.56" stroke="#1e1e1e" stroke-width="4" fill="none"></path></g></g><mask></mask><g stroke-linecap="round" transform="translate(699.087938358758 953.1967690807942) rotate(0 47.14470912726574 43.25269195895635)"><path d="M57.67 0.06 C65.79 1.1, 75.23 6.23, 81.2 12.04 C87.17 17.84, 91.89 27.14, 93.47 34.89 C95.06 42.64, 93.62 51.47, 90.69 58.54 C87.77 65.61, 82.65 72.74, 75.91 77.31 C69.17 81.88, 58.78 85.32, 50.27 85.96 C41.76 86.61, 32.3 84.83, 24.84 81.18 C17.38 77.52, 9.68 70.72, 5.53 64.02 C1.38 57.31, -0.62 48.67, -0.07 40.94 C0.49 33.2, 3.64 24.09, 8.85 17.62 C14.06 11.15, 22.87 4.94, 31.18 2.12 C39.48 -0.7, 53.75 0.46, 58.68 0.69 C63.61 0.91, 60.9 2.69, 60.75 3.45 M40.44 0.12 C48.5 -1.51, 58.75 0.86, 66.52 3.89 C74.28 6.93, 82.53 12.04, 87.02 18.31 C91.51 24.58, 93.22 33.73, 93.44 41.51 C93.66 49.28, 92.65 58.37, 88.32 64.94 C83.99 71.5, 75.08 77.22, 67.45 80.91 C59.82 84.61, 50.85 88.03, 42.53 87.12 C34.2 86.2, 24.04 80.69, 17.51 75.41 C10.99 70.12, 5.8 62.7, 3.36 55.42 C0.92 48.14, 1.01 39.3, 2.87 31.74 C4.73 24.19, 8.71 15.38, 14.54 10.07 C20.36 4.77, 33.8 1.47, 37.81 -0.11 C41.82 -1.69, 38.4 -0.13, 38.59 0.6" stroke="none" stroke-width="0" fill="#e7f5ff"></path><path d="M68.61 6.03 C75.97 9.03, 83.35 15.94, 87.51 22.66 C91.66 29.37, 93.87 38.64, 93.54 46.33 C93.21 54.01, 90.57 62.6, 85.51 68.77 C80.45 74.93, 71.13 80.65, 63.16 83.32 C55.2 85.99, 46.06 86.26, 37.73 84.79 C29.41 83.32, 19.31 79.95, 13.21 74.5 C7.12 69.04, 2.74 59.84, 1.16 52.06 C-0.42 44.27, 0.96 35.1, 3.75 27.77 C6.55 20.43, 11.39 12.58, 17.93 8.02 C24.47 3.47, 33.66 0.48, 42.98 0.44 C52.3 0.4, 68.27 5.93, 73.85 7.79 C79.42 9.64, 76.79 10.98, 76.43 11.58 M49.82 0.33 C57.81 0.31, 67.81 4.51, 74.61 8.87 C81.4 13.24, 87.32 19.51, 90.6 26.53 C93.89 33.55, 95.79 43.57, 94.33 50.99 C92.86 58.41, 87.49 65.18, 81.82 71.05 C76.16 76.92, 68.73 84.04, 60.32 86.2 C51.91 88.37, 39.43 86.63, 31.35 84.04 C23.28 81.44, 16.95 76.53, 11.87 70.62 C6.78 64.71, 2.25 56.38, 0.84 48.6 C-0.57 40.83, -0.31 31.08, 3.43 23.98 C7.17 16.88, 15.97 9.84, 23.29 5.98 C30.61 2.12, 43.11 1.43, 47.35 0.82 C51.59 0.22, 48.48 1.67, 48.72 2.34" stroke="#1e1e1e" stroke-width="4" fill="none"></path></g><g transform="translate(735.4523037209256 973.8651892509997) rotate(0 10.944000244140625 22.5)"><text x="10.944000244140625" y="0" font-family="Virgil, Segoe UI Emoji" font-size="36px" fill="#1e1e1e" text-anchor="middle" style="white-space: pre;" direction="ltr" dominant-baseline="text-before-edge">S</text></g><g stroke-linecap="round"><g transform="translate(1029.423249728241 918.7562197975767) rotate(0 -111.46179067064531 35.30612486926407)"><path d="M0.23 -0.91 C-37.09 10.92, -185.53 58.56, -222.79 70.5 M-1.1 1.23 C-38.6 13.22, -186.04 59.8, -223.16 71.52" stroke="#1e1e1e" stroke-width="4" fill="none"></path></g></g><mask></mask><g stroke-linecap="round" transform="translate(1488.993533931336 1098.2124766805118) rotate(0 47.14470912726574 43.25269195895635)"><path d="M65.27 2.5 C73.08 4.61, 80.52 11.3, 85.41 17.75 C90.29 24.21, 94.2 33.35, 94.59 41.22 C94.98 49.1, 92.1 58.12, 87.75 65 C83.41 71.89, 76.14 78.95, 68.52 82.55 C60.9 86.16, 50.38 87.63, 42.03 86.65 C33.68 85.66, 25.15 81.67, 18.41 76.64 C11.68 71.62, 4.63 63.71, 1.62 56.51 C-1.39 49.31, -1.7 40.95, 0.37 33.45 C2.44 25.95, 7.77 16.97, 14.03 11.49 C20.28 6.01, 28.86 1.53, 37.92 0.58 C46.97 -0.37, 62.65 4.48, 68.34 5.8 C74.04 7.11, 72.31 7.88, 72.1 8.47 M39.9 -0.01 C47.8 -1.97, 57.18 -1.02, 64.99 2.27 C72.81 5.56, 81.89 13.33, 86.8 19.73 C91.72 26.14, 94.18 33.24, 94.47 40.68 C94.76 48.12, 92.76 57.57, 88.56 64.38 C84.36 71.19, 77.18 78.12, 69.27 81.54 C61.35 84.96, 49.92 85.83, 41.05 84.9 C32.17 83.98, 22.58 80.85, 16.02 75.99 C9.45 71.13, 4.21 63.12, 1.64 55.73 C-0.92 48.34, -1.55 38.94, 0.62 31.65 C2.8 24.35, 8.49 17.35, 14.72 11.96 C20.95 6.57, 33.73 1.16, 38.01 -0.67 C42.3 -2.51, 40.19 0.11, 40.43 0.94" stroke="none" stroke-width="0" fill="#e7f5ff"></path><path d="M55.06 0.43 C63.08 1.1, 73.6 5.56, 79.76 11.04 C85.92 16.52, 90.03 25.72, 92.03 33.3 C94.02 40.88, 94.19 49.31, 91.74 56.49 C89.29 63.68, 84.1 71.6, 77.34 76.43 C70.58 81.25, 59.83 84.52, 51.16 85.46 C42.49 86.4, 32.73 85.42, 25.31 82.07 C17.89 78.71, 10.93 72, 6.63 65.33 C2.34 58.66, -0.94 49.84, -0.47 42.05 C-0.01 34.26, 4.41 24.91, 9.41 18.58 C14.41 12.25, 21.39 6.79, 29.53 4.06 C37.68 1.33, 52.91 2.31, 58.28 2.22 C63.65 2.13, 61.69 2.96, 61.74 3.52 M48.47 -1.46 C56.64 -1.72, 68.16 4.07, 74.98 8.66 C81.8 13.25, 86.08 19.08, 89.39 26.08 C92.7 33.08, 96.01 42.83, 94.84 50.65 C93.68 58.46, 88.6 67.24, 82.41 72.96 C76.22 78.67, 65.93 83.06, 57.7 84.93 C49.47 86.8, 41.07 86.42, 33.03 84.17 C24.99 81.93, 14.89 77.19, 9.47 71.43 C4.05 65.68, 1.23 57.43, 0.53 49.64 C-0.17 41.85, 1.75 32.08, 5.26 24.71 C8.78 17.33, 14.3 9.5, 21.61 5.41 C28.92 1.31, 44.91 0.78, 49.14 0.13 C53.37 -0.52, 47.35 0.66, 46.98 1.53" stroke="#1e1e1e" stroke-width="4" fill="none"></path></g><g transform="translate(1526.9958997817848 1118.8808968507174) rotate(0 9.305999755859375 22.5)"><text x="9.305999755859375" y="0" font-family="Virgil, Segoe UI Emoji" font-size="36px" fill="#1e1e1e" text-anchor="middle" style="white-space: pre;" direction="ltr" dominant-baseline="text-before-edge">V</text></g><g stroke-linecap="round"><g transform="translate(1117.0120964624748 927.630512235899) rotate(0 184.44095868153363 94.5340016465068)"><path d="M-0.11 -1.02 C61.57 30.59, 308.84 158.46, 370.51 190.09 M-1.63 1.06 C59.82 32.24, 307.04 156.68, 369.36 188.09" stroke="#1e1e1e" stroke-width="4" fill="none"></path></g></g><mask></mask><g stroke-linecap="round" transform="translate(774.683021446579 1178.1925983019137) rotate(0 47.14470912726574 43.25269195895635)"><path d="M46.84 0.84 C54.85 0.26, 64.68 3.19, 71.94 7.15 C79.21 11.11, 86.94 17.72, 90.42 24.61 C93.91 31.49, 94.29 40.56, 92.87 48.45 C91.44 56.34, 87.37 65.95, 81.88 71.93 C76.39 77.9, 67.96 82.18, 59.92 84.29 C51.88 86.4, 41.78 86.54, 33.62 84.58 C25.47 82.63, 16.57 78.28, 10.99 72.55 C5.41 66.82, 1.23 57.95, 0.15 50.19 C-0.92 42.44, 1.03 33.33, 4.54 26.02 C8.05 18.72, 13.26 10.57, 21.22 6.37 C29.18 2.17, 46.26 1.6, 52.3 0.83 C58.35 0.05, 57.68 0.99, 57.51 1.7 M61.99 0.68 C70.09 2.4, 79.25 8.85, 84.45 14.78 C89.64 20.71, 92.48 28.57, 93.16 36.26 C93.84 43.96, 92.13 53.8, 88.52 60.92 C84.91 68.05, 78.66 74.86, 71.52 79.02 C64.38 83.18, 54.16 85.74, 45.68 85.89 C37.2 86.05, 27.78 84.35, 20.65 79.95 C13.53 75.54, 6.1 66.78, 2.94 59.46 C-0.21 52.15, 0.31 43.65, 1.72 36.06 C3.13 28.48, 5.92 19.68, 11.42 13.95 C16.93 8.22, 26.29 3.5, 34.74 1.68 C43.19 -0.14, 57.93 2.93, 62.13 3.04 C66.33 3.16, 60.39 1.7, 59.93 2.37" stroke="none" stroke-width="0" fill="#e7f5ff"></path><path d="M57.11 0.07 C65.06 0.88, 73.22 5.62, 79.14 11.19 C85.06 16.75, 90.49 25.69, 92.61 33.46 C94.74 41.24, 94.72 50.4, 91.9 57.83 C89.07 65.26, 82.28 73.23, 75.67 78.03 C69.07 82.82, 60.63 85.86, 52.27 86.62 C43.9 87.37, 33.27 86.05, 25.5 82.56 C17.73 79.06, 9.85 72.46, 5.65 65.64 C1.44 58.82, -0.4 49.56, 0.27 41.63 C0.94 33.71, 4.76 24.43, 9.68 18.09 C14.6 11.74, 21.74 6.38, 29.79 3.55 C37.84 0.71, 53.25 1.16, 57.96 1.09 C62.68 1.02, 58.15 2.54, 58.06 3.11 M42.34 0.73 C49.84 -0.74, 58.94 0.96, 66.55 4.29 C74.16 7.63, 83.57 13.89, 87.99 20.73 C92.41 27.57, 93.38 37.25, 93.09 45.32 C92.8 53.39, 90.8 62.77, 86.26 69.15 C81.73 75.54, 73.96 80.99, 65.89 83.65 C57.83 86.3, 46.21 86.47, 37.88 85.06 C29.54 83.66, 22.19 80.24, 15.89 75.21 C9.59 70.18, 2.55 62.25, 0.05 54.86 C-2.44 47.47, -1.81 38.31, 0.9 30.86 C3.61 23.4, 9.3 15.36, 16.31 10.12 C23.32 4.87, 38.66 0.74, 42.95 -0.62 C47.24 -1.97, 42.32 1.17, 42.07 2" stroke="#1e1e1e" stroke-width="4" fill="none"></path></g><g transform="translate(809.7873923019106 1198.8610184721192) rotate(0 12.203994750976562 22.5)"><text x="12.203994750976562" y="0" font-family="Virgil, Segoe UI Emoji" font-size="36px" fill="#1e1e1e" text-anchor="middle" style="white-space: pre;" direction="ltr" dominant-baseline="text-before-edge">R</text></g><g stroke-linecap="round"><g transform="translate(750.4123680048306 1044.5748604984383) rotate(0 27.69986581660214 64.24313552551939)"><path d="M-0.92 1.11 C8.01 22.23, 44.93 105.71, 54.07 126.69 M0.79 0.65 C10.06 21.91, 47.07 106.6, 56.32 127.83" stroke="#1e1e1e" stroke-width="4" fill="none"></path></g></g><mask></mask><g stroke-linecap="round" transform="translate(437.54810651837215 1059.8914994854822) rotate(0 47.14470912726574 43.25269195895635)"><path d="M32.55 2.27 C40.14 -0.38, 51.19 -0.81, 59.47 1.22 C67.74 3.26, 76.58 8.41, 82.19 14.48 C87.81 20.55, 91.89 29.81, 93.16 37.67 C94.43 45.52, 93.15 54.53, 89.83 61.6 C86.52 68.68, 80.37 76.05, 73.26 80.1 C66.15 84.16, 55.77 85.91, 47.17 85.95 C38.56 85.99, 28.83 84.48, 21.63 80.35 C14.43 76.22, 7.65 68.26, 3.99 61.19 C0.33 54.11, -1.65 45.57, -0.34 37.92 C0.98 30.28, 5.05 21.47, 11.87 15.31 C18.69 9.16, 34.44 3.26, 40.59 1.01 C46.73 -1.24, 48.57 1.29, 48.75 1.8 M26.38 3.25 C33.45 -0.44, 43.92 -1.5, 52.36 -0.24 C60.8 1.02, 70.57 5.88, 77.03 10.8 C83.49 15.71, 88.34 21.99, 91.12 29.26 C93.9 36.52, 95.89 46.76, 93.7 54.38 C91.52 62.01, 84.49 69.71, 78 74.99 C71.52 80.27, 62.91 84.55, 54.79 86.05 C46.66 87.55, 37.23 87.18, 29.27 83.96 C21.32 80.74, 11.97 73.25, 7.06 66.73 C2.15 60.2, -0.27 52.48, -0.19 44.81 C-0.1 37.13, 3.15 27.54, 7.56 20.68 C11.98 13.82, 22.86 6.24, 26.28 3.66 C29.69 1.08, 27.74 4.39, 28.06 5.22" stroke="none" stroke-width="0" fill="#e7f5ff"></path><path d="M53.72 1.2 C61.88 1.71, 72.6 5.91, 79.07 11.1 C85.54 16.28, 90.45 24.73, 92.55 32.32 C94.64 39.91, 94.09 49.24, 91.66 56.64 C89.22 64.04, 84.15 71.81, 77.93 76.72 C71.71 81.63, 62.78 85.09, 54.34 86.13 C45.89 87.16, 35.07 86.24, 27.26 82.94 C19.46 79.63, 12.2 72.85, 7.5 66.32 C2.79 59.78, -1.14 51.63, -0.98 43.71 C-0.83 35.79, 3.66 25.3, 8.44 18.78 C13.21 12.26, 19.59 7.5, 27.69 4.59 C35.78 1.68, 51.66 1.84, 57.01 1.31 C62.36 0.79, 59.97 0.76, 59.79 1.45 M44.02 1.57 C52.29 0.4, 62.96 2.48, 70.18 5.84 C77.4 9.2, 83.23 14.97, 87.34 21.74 C91.44 28.51, 95.47 38.45, 94.82 46.47 C94.16 54.48, 88.83 63.45, 83.39 69.83 C77.95 76.22, 70.07 82.11, 62.18 84.78 C54.3 87.46, 43.96 87.86, 36.08 85.88 C28.21 83.91, 20.75 78.36, 14.94 72.93 C9.13 67.5, 3.38 60.8, 1.23 53.29 C-0.91 45.78, -0.77 35.23, 2.07 27.88 C4.91 20.52, 11.3 13.82, 18.25 9.15 C25.2 4.47, 39.5 1.22, 43.79 -0.19 C48.09 -1.6, 43.75 0.06, 44.01 0.68" stroke="#1e1e1e" stroke-width="4" fill="none"></path></g><g transform="translate(472.1664773126686 1080.5599196556877) rotate(0 12.689994812011719 22.5)"><text x="12.689994812011719" y="0" font-family="Virgil, Segoe UI Emoji" font-size="36px" fill="#1e1e1e" text-anchor="middle" style="white-space: pre;" direction="ltr" dominant-baseline="text-before-edge">Q</text></g><g stroke-linecap="round"><g transform="translate(780.2744349425575 1196.319331576071) rotate(0 -120.04815309981586 -39.055576633314104)"><path d="M0.39 -0.62 C-39.66 -13.69, -199.84 -65.07, -239.99 -78.13 M-0.86 1.66 C-41.03 -11.76, -200.46 -66.56, -240.49 -79.77" stroke="#1e1e1e" stroke-width="4" fill="none"></path></g></g><mask></mask><g stroke-linecap="round" transform="translate(374.12878726403324 843.6611620214971) rotate(0 47.14470912726574 43.25269195895635)"><path d="M42.15 0.9 C50.27 -0.48, 61.35 2.04, 68.92 5.38 C76.48 8.72, 83.38 14.22, 87.54 20.94 C91.71 27.65, 94.3 37.86, 93.91 45.68 C93.52 53.51, 90.2 61.51, 85.22 67.87 C80.25 74.23, 71.77 80.84, 64.06 83.84 C56.36 86.84, 47.36 87.3, 38.99 85.89 C30.62 84.47, 20.25 80.6, 13.84 75.36 C7.44 70.13, 2.5 62.25, 0.56 54.49 C-1.38 46.72, -0.55 36.44, 2.19 28.78 C4.92 21.11, 9.78 13.36, 16.98 8.5 C24.19 3.63, 40.12 0.94, 45.41 -0.43 C50.69 -1.79, 48.66 -0.44, 48.69 0.29 M57.31 0.25 C65.46 1.18, 73.28 5.9, 79.29 11.39 C85.29 16.88, 91.08 25.32, 93.34 33.19 C95.6 41.06, 95.83 51.32, 92.86 58.61 C89.88 65.91, 82.4 72.16, 75.49 76.94 C68.57 81.73, 59.63 86.5, 51.36 87.34 C43.09 88.19, 33.5 85.87, 25.86 82.03 C18.22 78.2, 9.72 71.12, 5.52 64.35 C1.32 57.58, 0.27 49.04, 0.68 41.43 C1.08 33.82, 3.07 25.17, 7.93 18.68 C12.79 12.2, 21.63 5.6, 29.84 2.54 C38.04 -0.52, 52.87 0.49, 57.14 0.3 C61.41 0.12, 55.91 0.46, 55.44 1.43" stroke="none" stroke-width="0" fill="#e7f5ff"></path><path d="M68.03 4.93 C75.82 7.49, 83.93 14.17, 88.32 20.82 C92.7 27.47, 94.66 37.06, 94.33 44.85 C94.01 52.64, 91.31 61.04, 86.36 67.54 C81.41 74.04, 72.37 80.93, 64.64 83.86 C56.91 86.79, 48.23 86.41, 39.98 85.1 C31.73 83.8, 21.54 81.1, 15.14 76.03 C8.74 70.97, 3.69 62.56, 1.59 54.73 C-0.5 46.9, -0.01 36.49, 2.57 29.06 C5.15 21.63, 10.6 15.08, 17.09 10.15 C23.58 5.23, 32.04 -0.03, 41.49 -0.49 C50.94 -0.95, 67.61 5.36, 73.79 7.38 C79.97 9.41, 79.03 11.22, 78.57 11.66 M33.19 2.18 C40.46 -0.21, 51.64 0.69, 59.82 2.98 C68.01 5.26, 76.43 10.22, 82.3 15.89 C88.18 21.56, 93.81 29.16, 95.07 36.97 C96.32 44.79, 93.84 55.65, 89.83 62.79 C85.82 69.93, 78.37 75.77, 71 79.81 C63.64 83.85, 53.98 87.18, 45.64 87.03 C37.29 86.88, 27.87 83.38, 20.94 78.91 C14.01 74.44, 7.24 67.47, 4.06 60.22 C0.88 52.97, 0.45 42.97, 1.87 35.43 C3.29 27.89, 7.26 20.89, 12.59 15 C17.91 9.11, 30.29 2.45, 33.8 0.1 C37.31 -2.25, 33.18 0.14, 33.64 0.92" stroke="#1e1e1e" stroke-width="4" fill="none"></path></g><g transform="translate(409.5391578752242 864.3295821917027) rotate(0 11.897994995117188 22.5)"><text x="11.897994995117188" y="0" font-family="Virgil, Segoe UI Emoji" font-size="36px" fill="#1e1e1e" text-anchor="middle" style="white-space: pre;" direction="ltr" dominant-baseline="text-before-edge">P</text></g><g stroke-linecap="round"><g transform="translate(457.34126537071825 1057.1028132808278) rotate(0 -14.11026216971186 -61.143700785695955)"><path d="M1.03 0.25 C-3.93 -19.79, -23.59 -100.6, -28.65 -120.96 M0.11 -0.66 C-5.04 -20.95, -24.22 -102.55, -29.25 -122.54" stroke="#1e1e1e" stroke-width="4" fill="none"></path></g></g><mask></mask><g stroke-linecap="round" transform="translate(20.63283616541048 573.2074267901717) rotate(0 47.14470912726574 43.25269195895635)"><path d="M49.48 0.98 C57.67 0.67, 68.06 3.67, 74.87 8.03 C81.68 12.38, 87.38 19.8, 90.36 27.09 C93.34 34.39, 94.48 44.14, 92.76 51.81 C91.04 59.47, 86.01 67.53, 80.05 73.08 C74.08 78.63, 65.11 83.43, 56.98 85.11 C48.84 86.78, 39.31 85.62, 31.26 83.12 C23.21 80.62, 13.91 76.26, 8.67 70.11 C3.42 63.96, 0.34 54.1, -0.23 46.24 C-0.8 38.38, 1.15 29.62, 5.26 22.94 C9.36 16.27, 15.23 9.83, 24.4 6.18 C33.57 2.53, 53.08 1.18, 60.29 1.02 C67.49 0.86, 67.83 4.41, 67.61 5.23 M53.54 0.63 C61.61 1.11, 69.99 5.74, 76.44 10.58 C82.89 15.43, 89.38 22.45, 92.25 29.71 C95.11 36.96, 95.97 46.54, 93.63 54.11 C91.29 61.69, 84.83 69.66, 78.21 75.15 C71.58 80.63, 62.28 85.87, 53.9 87.02 C45.52 88.17, 35.79 85.07, 27.91 82.04 C20.03 79.02, 11.06 75.15, 6.63 68.86 C2.2 62.57, 1.2 52.28, 1.34 44.3 C1.49 36.31, 3.18 27.84, 7.5 20.95 C11.81 14.07, 19.91 6.33, 27.24 3 C34.57 -0.32, 47.4 1.07, 51.48 0.99 C55.56 0.92, 51.51 1.94, 51.72 2.53" stroke="none" stroke-width="0" fill="#e7f5ff"></path><path d="M66.45 2.72 C74.08 5.14, 81.73 13.15, 86.35 19.68 C90.96 26.2, 93.92 34.11, 94.14 41.88 C94.37 49.65, 91.99 59.49, 87.68 66.29 C83.38 73.08, 75.99 79.45, 68.29 82.63 C60.58 85.81, 50.11 86.33, 41.43 85.35 C32.76 84.37, 22.77 81.81, 16.23 76.76 C9.68 71.7, 4.51 62.69, 2.17 55.01 C-0.17 47.33, -0.22 38.14, 2.16 30.69 C4.54 23.23, 10.14 15.17, 16.45 10.27 C22.77 5.37, 31.38 2.16, 40.05 1.29 C48.71 0.42, 63.14 4.18, 68.46 5.06 C73.78 5.94, 72.24 6.01, 71.95 6.55 M55.57 0.38 C63.84 0.99, 74.17 5.19, 80.46 10.64 C86.75 16.1, 91.55 25.68, 93.31 33.13 C95.07 40.59, 93.99 48.35, 91.03 55.39 C88.06 62.44, 81.86 70.44, 75.51 75.43 C69.15 80.42, 61.25 84.33, 52.91 85.33 C44.57 86.34, 33.23 84.92, 25.47 81.45 C17.71 77.98, 10.36 71.2, 6.35 64.5 C2.33 57.8, 0.87 48.83, 1.37 41.27 C1.88 33.71, 4.63 25.55, 9.4 19.14 C14.17 12.73, 22.46 5.97, 29.99 2.81 C37.52 -0.35, 50.25 0.5, 54.6 0.17 C58.94 -0.15, 56.14 0.28, 56.06 0.88" stroke="#1e1e1e" stroke-width="4" fill="none"></path></g><g transform="translate(55.08920439623034 593.8758469603772) rotate(0 12.851997375488281 22.5)"><text x="12.851997375488281" y="0" font-family="Virgil, Segoe UI Emoji" font-size="36px" fill="#1e1e1e" text-anchor="middle" style="white-space: pre;" direction="ltr" dominant-baseline="text-before-edge">U</text></g><g stroke-linecap="round"><g transform="translate(377.09910658919944 860.039932549038) rotate(0 -134.0531919104069 -104.09975655487688)"><path d="M0.43 0.36 C-44.49 -34.4, -223.96 -173.73, -268.53 -208.56 M-0.81 -0.49 C-45.46 -35.06, -221.96 -172.61, -266.42 -207.09" stroke="#1e1e1e" stroke-width="4" fill="none"></path></g></g><mask></mask><g stroke-linecap="round" transform="translate(175.13334918957298 416.7767708712454) rotate(0 47.14470912726574 43.25269195895635)"><path d="M27.03 3.27 C34.12 -0.34, 44.94 -1.02, 53.51 0.08 C62.08 1.18, 72.12 4.57, 78.45 9.87 C84.79 15.18, 89.27 24.35, 91.53 31.9 C93.79 39.45, 94.32 47.81, 92 55.2 C89.67 62.59, 83.93 70.95, 77.56 76.22 C71.2 81.5, 62.05 85.89, 53.83 86.86 C45.61 87.84, 36.03 85.48, 28.26 82.08 C20.5 78.68, 11.81 72.89, 7.21 66.46 C2.62 60.02, 0.59 51.31, 0.68 43.45 C0.78 35.59, 3.07 25.94, 7.77 19.31 C12.46 12.68, 24.95 6.4, 28.88 3.67 C32.8 0.94, 30.9 2.31, 31.32 2.93 M38.33 0.46 C45.85 -1.18, 56.53 1.53, 64.37 4.41 C72.22 7.29, 80.65 11.26, 85.4 17.74 C90.15 24.22, 92.29 35.31, 92.89 43.28 C93.49 51.25, 93.02 59.06, 88.98 65.57 C84.95 72.07, 76.43 79.08, 68.69 82.31 C60.95 85.55, 51.33 85.77, 42.56 84.97 C33.79 84.18, 22.94 82.02, 16.07 77.55 C9.19 73.09, 3.67 65.72, 1.31 58.19 C-1.05 50.66, -0.18 40.4, 1.89 32.39 C3.96 24.38, 7.49 15.6, 13.74 10.13 C19.98 4.67, 35.26 0.89, 39.34 -0.4 C43.43 -1.68, 38.01 1.69, 38.25 2.42" stroke="none" stroke-width="0" fill="#e7f5ff"></path><path d="M30.09 3.57 C37.27 0.02, 47.78 -1.52, 55.89 -0.11 C64 1.31, 72.58 6.76, 78.75 12.04 C84.92 17.32, 90.65 24.26, 92.9 31.58 C95.16 38.91, 94.89 48.54, 92.3 55.98 C89.71 63.43, 84.03 71.09, 77.38 76.26 C70.73 81.43, 61.07 86.06, 52.41 87.02 C43.75 87.98, 32.97 85.75, 25.43 82.03 C17.89 78.31, 11.42 71.5, 7.16 64.7 C2.9 57.91, -0.4 48.94, -0.13 41.25 C0.14 33.56, 3.1 25.15, 8.78 18.57 C14.46 11.99, 28.87 4.48, 33.96 1.77 C39.05 -0.94, 39.17 1.55, 39.33 2.29 M56.13 -0.41 C64.4 0.7, 75.22 6.22, 81.3 11.92 C87.38 17.62, 91.01 26.15, 92.61 33.77 C94.22 41.4, 93.61 50.41, 90.93 57.7 C88.25 64.98, 83.15 72.64, 76.54 77.5 C69.93 82.37, 59.82 86.38, 51.28 86.9 C42.74 87.41, 33.04 84.52, 25.29 80.59 C17.55 76.65, 8.87 70.16, 4.81 63.28 C0.75 56.39, 0.23 47.17, 0.94 39.29 C1.64 31.41, 3.93 21.96, 9.05 16 C14.17 10.04, 23.56 6.25, 31.65 3.54 C39.75 0.82, 53.18 0.18, 57.62 -0.3 C62.05 -0.78, 58.24 -0.17, 58.26 0.67" stroke="#1e1e1e" stroke-width="4" fill="none"></path></g><g transform="translate(213.13571504002175 437.4451910414509) rotate(0 9.305999755859375 22.5)"><text x="9.305999755859375" y="0" font-family="Virgil, Segoe UI Emoji" font-size="36px" fill="#1e1e1e" text-anchor="middle" style="white-space: pre;" direction="ltr" dominant-baseline="text-before-edge">V</text></g><g stroke-linecap="round"><g transform="translate(115.13862869480545 573.7094768429542) rotate(0 33.72956003759555 -34.061033296610276)"><path d="M0.18 1.17 C11.77 -10.17, 57.45 -55.79, 68.65 -67.39 M-1.19 0.74 C10.36 -11.03, 56.06 -57.92, 67.88 -69.29" stroke="#1e1e1e" stroke-width="4" fill="none"></path></g></g><mask></mask><g stroke-linecap="round" transform="translate(1180.126286413224 119.28711333493811) rotate(0 47.14470912726574 43.25269195895635)"><path d="M29.95 2.55 C37.34 -0.75, 48.01 -0.62, 56.4 1.16 C64.78 2.94, 74.01 7.87, 80.26 13.22 C86.51 18.56, 92.07 25.78, 93.9 33.23 C95.72 40.68, 94.13 50.47, 91.21 57.92 C88.29 65.37, 83.06 73.27, 76.38 77.93 C69.7 82.59, 59.76 85.22, 51.13 85.86 C42.49 86.51, 32.06 85.48, 24.57 81.79 C17.07 78.1, 10.17 70.57, 6.15 63.71 C2.14 56.85, 0.03 48.18, 0.48 40.6 C0.93 33.03, 2.97 24.89, 8.83 18.27 C14.69 11.65, 30.15 3.84, 35.63 0.89 C41.11 -2.07, 41.37 -0.15, 41.73 0.55 M34.48 2.13 C42.31 -0.84, 52.17 0.08, 60.22 1.91 C68.28 3.75, 77.48 7.28, 82.82 13.14 C88.16 19, 91.19 28.95, 92.26 37.09 C93.34 45.22, 92.36 54.93, 89.26 61.94 C86.16 68.96, 80.78 75.31, 73.67 79.17 C66.55 83.02, 55.03 85.13, 46.55 85.09 C38.07 85.05, 29.9 82.66, 22.78 78.93 C15.65 75.21, 7.36 69.76, 3.81 62.74 C0.26 55.72, 0.19 44.75, 1.47 36.82 C2.75 28.88, 6.17 21.09, 11.5 15.11 C16.83 9.12, 29.9 2.93, 33.47 0.9 C37.04 -1.13, 32.57 1.95, 32.94 2.95" stroke="none" stroke-width="0" fill="#e7f5ff"></path><path d="M57.67 0.06 C65.79 1.1, 75.23 6.23, 81.2 12.04 C87.17 17.84, 91.89 27.14, 93.47 34.89 C95.06 42.64, 93.62 51.47, 90.69 58.54 C87.77 65.61, 82.65 72.74, 75.91 77.31 C69.17 81.88, 58.78 85.32, 50.27 85.96 C41.76 86.61, 32.3 84.83, 24.84 81.18 C17.38 77.52, 9.68 70.72, 5.53 64.02 C1.38 57.31, -0.62 48.67, -0.07 40.94 C0.49 33.2, 3.64 24.09, 8.85 17.62 C14.06 11.15, 22.87 4.94, 31.18 2.12 C39.48 -0.7, 53.75 0.46, 58.68 0.69 C63.61 0.91, 60.9 2.69, 60.75 3.45 M40.44 0.12 C48.5 -1.51, 58.75 0.86, 66.52 3.89 C74.28 6.93, 82.53 12.04, 87.02 18.31 C91.51 24.58, 93.22 33.73, 93.44 41.51 C93.66 49.28, 92.65 58.37, 88.32 64.94 C83.99 71.5, 75.08 77.22, 67.45 80.91 C59.82 84.61, 50.85 88.03, 42.53 87.12 C34.2 86.2, 24.04 80.69, 17.51 75.41 C10.99 70.12, 5.8 62.7, 3.36 55.42 C0.92 48.14, 1.01 39.3, 2.87 31.74 C4.73 24.19, 8.71 15.38, 14.54 10.07 C20.36 4.77, 33.8 1.47, 37.81 -0.11 C41.82 -1.69, 38.4 -0.13, 38.59 0.6" stroke="#1e1e1e" stroke-width="4" fill="none"></path></g><g transform="translate(1216.6526543388682 139.95553350514365) rotate(0 10.781997680664062 22.5)"><text x="10.781997680664062" y="0" font-family="Virgil, Segoe UI Emoji" font-size="36px" fill="#1e1e1e" text-anchor="middle" style="white-space: pre;" direction="ltr" dominant-baseline="text-before-edge">L</text></g><g stroke-linecap="round"><g transform="translate(912.3628974283401 271.98629420888665) rotate(0 130.5310617247942 -46.69542309538065)"><path d="M-1.19 0.52 C42.08 -14.87, 216.53 -76.67, 260.14 -92.2 M0.39 -0.26 C43.96 -15.99, 218.5 -78.74, 262.25 -93.91" stroke="#1e1e1e" stroke-width="4" fill="none"></path></g></g><mask></mask><g stroke-linecap="round"><g transform="translate(1280.2710419197701 186.0825605654154) rotate(0 266.4494709382898 311.1781566178993)"><path d="M-0.82 0.29 C64.93 17.68, 304.23 1.35, 393.32 105.13 C482.41 208.9, 510.46 536.8, 533.72 622.95 M0.95 -0.6 C66.72 16.86, 304.18 2.69, 392.85 106.29 C481.53 209.88, 509.7 534.84, 533.02 620.97" stroke="#1e1e1e" stroke-width="4" fill="none"></path></g></g><mask></mask><g stroke-linecap="round" transform="translate(1755.71140596853 814.7605322978434) rotate(0 47.14470912726665 43.25269195895635)"><path d="M33.49 2.42 C40.93 -0.32, 51.9 -0.58, 60.08 1.4 C68.27 3.38, 76.88 8.43, 82.62 14.32 C88.36 20.21, 93.4 29.08, 94.53 36.74 C95.67 44.4, 92.91 52.99, 89.43 60.29 C85.95 67.59, 80.67 76.09, 73.65 80.52 C66.62 84.95, 55.91 86.93, 47.28 86.85 C38.66 86.76, 29.21 84.43, 21.9 80 C14.59 75.58, 6.91 67.55, 3.42 60.28 C-0.08 53.01, -0.57 43.91, 0.92 36.39 C2.42 28.88, 5.75 21.36, 12.4 15.21 C19.05 9.06, 35.04 1.82, 40.83 -0.51 C46.62 -2.85, 47.14 0.42, 47.13 1.2 M61.49 1.57 C69.27 3.16, 78.18 8.27, 83.5 14.31 C88.82 20.35, 92.17 29.8, 93.4 37.83 C94.63 45.87, 94.46 55.41, 90.89 62.54 C87.31 69.67, 79.46 76.43, 71.94 80.61 C64.42 84.8, 54.37 87.65, 45.77 87.65 C37.18 87.65, 27.12 85.11, 20.38 80.62 C13.63 76.12, 8.79 67.84, 5.3 60.68 C1.81 53.51, -1.78 45.21, -0.57 37.63 C0.65 30.05, 6.75 21.01, 12.61 15.19 C18.47 9.36, 26.77 4.71, 34.62 2.68 C42.47 0.66, 55.51 2.82, 59.69 3.02 C63.86 3.23, 59.46 3.49, 59.67 3.91" stroke="none" stroke-width="0" fill="#e7f5ff"></path><path d="M66.79 3.16 C74.37 5.43, 81.2 12, 85.62 18.69 C90.04 25.38, 93.19 35.43, 93.32 43.3 C93.45 51.16, 90.84 59.39, 86.42 65.88 C81.99 72.37, 74.46 78.72, 66.76 82.24 C59.07 85.76, 48.67 87.91, 40.25 87.02 C31.83 86.12, 22.56 81.97, 16.24 76.88 C9.93 71.78, 4.82 64.12, 2.35 56.45 C-0.11 48.78, -0.76 38.4, 1.45 30.88 C3.66 23.36, 9.27 16.47, 15.63 11.35 C21.98 6.23, 30.56 1.01, 39.6 0.16 C48.63 -0.7, 63.99 4.76, 69.83 6.22 C75.67 7.69, 75.06 8.27, 74.65 8.93 M27.88 2.17 C34.6 -1.34, 45.31 -1.51, 53.69 -0.14 C62.08 1.22, 71.86 5.1, 78.2 10.37 C84.55 15.64, 89.55 23.69, 91.76 31.46 C93.98 39.23, 94.11 49.7, 91.5 57.01 C88.88 64.32, 82.32 70.53, 76.06 75.31 C69.79 80.08, 62.22 84.61, 53.89 85.65 C45.56 86.69, 33.86 84.85, 26.09 81.55 C18.31 78.24, 11.39 72.18, 7.25 65.82 C3.1 59.45, 1.18 51.22, 1.2 43.36 C1.22 35.5, 2.83 25.12, 7.37 18.65 C11.9 12.17, 24.74 6.85, 28.4 4.51 C32.07 2.18, 29.14 4.24, 29.36 4.65" stroke="#1e1e1e" stroke-width="4" fill="none"></path></g><g transform="translate(1789.2317771900725 835.4289524680489) rotate(0 13.787994384765625 22.5)"><text x="13.787994384765625" y="0" font-family="Virgil, Segoe UI Emoji" font-size="36px" fill="#1e1e1e" text-anchor="middle" style="white-space: pre;" direction="ltr" dominant-baseline="text-before-edge">M</text></g><g transform="translate(10 10) rotate(0 498.48223876953125 34.624262186753185)"><text x="0" y="0" font-family="Virgil, Segoe UI Emoji" font-size="55.398819498805445px" fill="#1e1e1e" text-anchor="start" style="white-space: pre;" direction="ltr" dominant-baseline="text-before-edge">Distancia direta de cada n para F</text></g><g transform="translate(838.8987700291073 203.36517459500556) rotate(0 15.839996337890625 22.5)"><text x="0" y="0" font-family="Virgil, Segoe UI Emoji" font-size="36px" fill="#1e1e1e" text-anchor="start" style="white-space: pre;" direction="ltr" dominant-baseline="text-before-edge">19</text></g><g transform="translate(449.047782235617 217.7652757951273) rotate(0 15.839996337890625 22.5)"><text x="0" y="0" font-family="Virgil, Segoe UI Emoji" font-size="36px" fill="#1e1e1e" text-anchor="start" style="white-space: pre;" direction="ltr" dominant-baseline="text-before-edge">19</text></g><g transform="translate(446.0367339776858 516.2723344636424) rotate(0 16.397994995117188 22.5)"><text x="0" y="0" font-family="Virgil, Segoe UI Emoji" font-size="36px" fill="#1e1e1e" text-anchor="start" style="white-space: pre;" direction="ltr" dominant-baseline="text-before-edge">16</text></g><g transform="translate(858.608051202611 442.8095044172269) rotate(0 17.13599395751953 22.5)"><text x="0" y="0" font-family="Virgil, Segoe UI Emoji" font-size="36px" fill="#1e1e1e" text-anchor="start" style="white-space: pre;" direction="ltr" dominant-baseline="text-before-edge">13</text></g><g transform="translate(1132.8285206114142 240.24270886903196) rotate(0 17.13599395751953 22.5)"><text x="0" y="0" font-family="Virgil, Segoe UI Emoji" font-size="36px" fill="#1e1e1e" text-anchor="start" style="white-space: pre;" direction="ltr" dominant-baseline="text-before-edge">13</text></g><g transform="translate(1199.91501317045 484.0448403640612) rotate(0 9.755996704101562 22.5)"><text x="0" y="0" font-family="Virgil, Segoe UI Emoji" font-size="36px" fill="#1e1e1e" text-anchor="start" style="white-space: pre;" direction="ltr" dominant-baseline="text-before-edge">11</text></g><g transform="translate(1427.852186740036 227.39725649697448) rotate(0 10.961997985839844 22.5)"><text x="0" y="0" font-family="Virgil, Segoe UI Emoji" font-size="36px" fill="#1e1e1e" text-anchor="start" style="white-space: pre;" direction="ltr" dominant-baseline="text-before-edge">9</text></g><g transform="translate(1467.0043532851705 455.62121955391467) rotate(0 9.755996704101562 22.5)"><text x="0" y="0" font-family="Virgil, Segoe UI Emoji" font-size="36px" fill="#1e1e1e" text-anchor="start" style="white-space: pre;" direction="ltr" dominant-baseline="text-before-edge">11</text></g><g transform="translate(1652.1710648013923 451.9691638237091) rotate(0 9.755996704101562 22.5)"><text x="0" y="0" font-family="Virgil, Segoe UI Emoji" font-size="36px" fill="#1e1e1e" text-anchor="start" style="white-space: pre;" direction="ltr" dominant-baseline="text-before-edge">11</text></g><g transform="translate(1384.187769845621 615.6200583576492) rotate(0 12.383995056152344 22.5)"><text x="0" y="0" font-family="Virgil, Segoe UI Emoji" font-size="36px" fill="#1e1e1e" text-anchor="start" style="white-space: pre;" direction="ltr" dominant-baseline="text-before-edge">0</text></g><g transform="translate(1334.8590034147 843.3970030457667) rotate(0 11.123992919921875 22.5)"><text x="0" y="0" font-family="Virgil, Segoe UI Emoji" font-size="36px" fill="#1e1e1e" text-anchor="start" style="white-space: pre;" direction="ltr" dominant-baseline="text-before-edge">5</text></g><g transform="translate(1064.7198155126298 802.0857583193165) rotate(0 9.683998107910156 22.5)"><text x="0" y="0" font-family="Virgil, Segoe UI Emoji" font-size="36px" fill="#1e1e1e" text-anchor="start" style="white-space: pre;" direction="ltr" dominant-baseline="text-before-edge">7</text></g><g transform="translate(735.8132357634422 900.1936388129943) rotate(0 9.755996704101562 22.5)"><text x="0" y="0" font-family="Virgil, Segoe UI Emoji" font-size="36px" fill="#1e1e1e" text-anchor="start" style="white-space: pre;" direction="ltr" dominant-baseline="text-before-edge">11</text></g><g transform="translate(814.8128825960866 1130.2141096540818) rotate(0 9.755996704101562 22.5)"><text x="0" y="0" font-family="Virgil, Segoe UI Emoji" font-size="36px" fill="#1e1e1e" text-anchor="start" style="white-space: pre;" direction="ltr" dominant-baseline="text-before-edge">11</text></g><g transform="translate(472.6329727243192 1015.600286749288) rotate(0 10.961997985839844 22.5)"><text x="0" y="0" font-family="Virgil, Segoe UI Emoji" font-size="36px" fill="#1e1e1e" text-anchor="start" style="white-space: pre;" direction="ltr" dominant-baseline="text-before-edge">9</text></g><g transform="translate(407.93349445182866 794.7900811677537) rotate(0 10.961997985839844 22.5)"><text x="0" y="0" font-family="Virgil, Segoe UI Emoji" font-size="36px" fill="#1e1e1e" text-anchor="start" style="white-space: pre;" direction="ltr" dominant-baseline="text-before-edge">9</text></g><g transform="translate(48.302999578223535 530.5431850306459) rotate(0 17.261993408203125 22.5)"><text x="0" y="0" font-family="Virgil, Segoe UI Emoji" font-size="36px" fill="#1e1e1e" text-anchor="start" style="white-space: pre;" direction="ltr" dominant-baseline="text-before-edge">10</text></g><g transform="translate(210.38554595226196 368.7984442958432) rotate(0 13.769996643066406 22.5)"><text x="0" y="0" font-family="Virgil, Segoe UI Emoji" font-size="36px" fill="#1e1e1e" text-anchor="start" style="white-space: pre;" direction="ltr" dominant-baseline="text-before-edge">8</text></g><g transform="translate(1207.2837131590077 69.49012628698347) rotate(0 18.647994995117188 22.5)"><text x="0" y="0" font-family="Virgil, Segoe UI Emoji" font-size="36px" fill="#1e1e1e" text-anchor="start" style="white-space: pre;" direction="ltr" dominant-baseline="text-before-edge">18</text></g><g transform="translate(1771.8185319042714 770.7607352662371) rotate(0 10.961997985839844 22.5)"><text x="0" y="0" font-family="Virgil, Segoe UI Emoji" font-size="36px" fill="#1e1e1e" text-anchor="start" style="white-space: pre;" direction="ltr" dominant-baseline="text-before-edge">9</text></g><g transform="translate(1522.525665350664 1051.7497344621484) rotate(0 13.769996643066406 22.5)"><text x="0" y="0" font-family="Virgil, Segoe UI Emoji" font-size="36px" fill="#1e1e1e" text-anchor="start" style="white-space: pre;" direction="ltr" dominant-baseline="text-before-edge">8</text></g><g stroke-linecap="round"><g transform="translate(394.17488015026356 840.3618442390871) rotate(0 -19.799107222675048 -64.65586183943697)"><path d="M-1.2 -1.13 C-7.55 -22.61, -32.5 -107.3, -38.98 -128.59 M0.37 0.88 C-6.07 -20.94, -33.62 -108.25, -39.97 -130.2" stroke="#1e1e1e" stroke-width="4" fill="none"></path></g></g><mask></mask><g stroke-linecap="round" transform="translate(275.72806595770817 626.7657831110182) rotate(0 47.14470912726665 43.25269195895635)"><path d="M57.05 0.09 C65.11 1.19, 74.75 7.03, 80.81 12.72 C86.88 18.41, 91.77 26.82, 93.44 34.23 C95.1 41.63, 93.7 49.85, 90.79 57.14 C87.88 64.43, 82.67 72.96, 75.96 77.98 C69.25 83.01, 59.12 86.76, 50.52 87.29 C41.92 87.81, 31.67 85.08, 24.36 81.13 C17.05 77.17, 10.61 70.47, 6.67 63.56 C2.72 56.66, 0.25 47.37, 0.68 39.7 C1.12 32.03, 4.43 23.63, 9.29 17.52 C14.14 11.42, 20.8 5.4, 29.8 3.07 C38.81 0.74, 56.75 3.04, 63.3 3.52 C69.86 4, 69.47 5.4, 69.14 5.94 M62.28 1.11 C70.49 3.28, 80.35 11.33, 85.44 17.64 C90.54 23.94, 92.13 31.29, 92.85 38.92 C93.57 46.56, 93.28 56.66, 89.77 63.43 C86.27 70.2, 79.32 75.92, 71.8 79.54 C64.29 83.16, 53.52 85.15, 44.69 85.17 C35.86 85.19, 25.78 83.76, 18.84 79.67 C11.9 75.57, 5.97 68.2, 3.06 60.6 C0.15 53, -0.4 41.67, 1.38 34.06 C3.15 26.45, 8.12 20.18, 13.71 14.95 C19.31 9.71, 26.98 4.81, 34.96 2.65 C42.93 0.5, 57.02 2.12, 61.55 2.02 C66.08 1.92, 61.99 1.41, 62.13 2.04" stroke="none" stroke-width="0" fill="#e7f5ff"></path><path d="M67.88 4.11 C75.38 6.91, 82.78 13.89, 87.22 20.6 C91.65 27.3, 94.74 36.47, 94.51 44.32 C94.28 52.17, 90.48 61.4, 85.84 67.71 C81.19 74.01, 74.21 79.11, 66.61 82.15 C59.02 85.19, 48.76 87.06, 40.25 85.94 C31.75 84.81, 22.02 80.59, 15.57 75.41 C9.12 70.24, 3.76 62.26, 1.57 54.87 C-0.62 47.49, 0.11 38.43, 2.45 31.09 C4.79 23.74, 9.17 16.01, 15.61 10.8 C22.05 5.59, 31.92 0.52, 41.1 -0.19 C50.29 -0.9, 65.13 4.92, 70.7 6.53 C76.27 8.14, 74.73 8.82, 74.51 9.46 M29.24 2.17 C36.83 -1.1, 48.98 -0.61, 57.59 1.27 C66.21 3.15, 75.19 8.25, 80.93 13.44 C86.66 18.63, 90.42 25.14, 92.02 32.42 C93.63 39.71, 92.93 49.55, 90.54 57.16 C88.15 64.77, 84.04 72.99, 77.68 78.1 C71.33 83.21, 61.31 87.14, 52.4 87.81 C43.49 88.48, 31.77 85.73, 24.21 82.13 C16.64 78.53, 10.9 73.02, 7.01 66.21 C3.12 59.4, 0.81 49.47, 0.85 41.26 C0.9 33.05, 2.24 23.46, 7.29 16.95 C12.33 10.44, 27.25 4.17, 31.12 2.2 C34.99 0.23, 30.6 4.28, 30.52 5.14" stroke="#1e1e1e" stroke-width="4" fill="none"></path></g><g transform="translate(311.4444363247585 647.4342032812237) rotate(0 11.591995239257812 22.5)"><text x="11.591995239257812" y="0" font-family="Virgil, Segoe UI Emoji" font-size="36px" fill="#1e1e1e" text-anchor="middle" style="white-space: pre;" direction="ltr" dominant-baseline="text-before-edge">N</text></g><g stroke-linecap="round"><g transform="translate(804.9051756987519 258.23270744519687) rotate(0 -234.01035834671347 134.00011932332563)"><path d="M-1.09 1.07 C-72.19 -13.59, -349.81 -148.66, -425.56 -86.93 C-501.3 -25.19, -450.62 295.28, -455.56 371.47 M0.54 0.59 C-70.8 -13.93, -350.35 -150.94, -426.45 -88.89 C-502.54 -26.83, -451.34 296.31, -456.01 372.93" stroke="#1e1e1e" stroke-width="4" fill="none"></path></g></g><mask></mask><g transform="translate(292.272711291811 574.8886028084216) rotate(0 9.755996704101562 22.5)"><text x="0" y="0" font-family="Virgil, Segoe UI Emoji" font-size="36px" fill="#1e1e1e" text-anchor="start" style="white-space: pre;" direction="ltr" dominant-baseline="text-before-edge">11</text></g></svg>