<svg version="1.1" xmlns="http://www.w3.org/2000/svg" viewBox="0 0 2004.6231689453125 1374.2855183585993" width="2004.6231689453125" height="1374.2855183585993">
  <!-- svg-source:excalidraw -->
  
  <defs>
    <style class="style-fonts">
      @font-face {
        font-family: "Virgil";
        src: url("https://excalidraw.com/Virgil.woff2");
      }
      @font-face {
        font-family: "Cascadia";
        src: url("https://excalidraw.com/Cascadia.woff2");
      }
    </style>
    
  </defs>
  <rect x="0" y="0" width="2004.6231689453125" height="1374.2855183585993" fill="#ffffff"></rect><g stroke-linecap="round" transform="translate(416.28360848264765 360.6085334287959) rotate(0 47.144709127266196 43.25269195895635)"><path d="M47.08 -0.22 C55.03 -0.82, 65.63 2.08, 72.87 6.33 C80.11 10.58, 87.07 18.2, 90.51 25.29 C93.95 32.37, 94.64 41.17, 93.49 48.86 C92.35 56.54, 89.05 65.32, 83.65 71.38 C78.26 77.45, 69.27 83.05, 61.1 85.23 C52.94 87.41, 42.99 86.73, 34.68 84.46 C26.37 82.18, 16.94 77.48, 11.26 71.56 C5.59 65.64, 1.71 56.7, 0.65 48.94 C-0.42 41.17, 1.19 31.92, 4.85 24.97 C8.51 18.03, 14.62 11.44, 22.6 7.25 C30.57 3.07, 46.93 0.63, 52.7 -0.14 C58.46 -0.92, 57.24 1.85, 57.19 2.6 M47.91 -0.66 C56.22 -1.54, 66.4 2.47, 73.28 6.49 C80.16 10.5, 85.81 16.43, 89.18 23.42 C92.54 30.41, 94.73 40.59, 93.48 48.44 C92.23 56.29, 87.03 64.25, 81.67 70.51 C76.32 76.78, 69.07 83.55, 61.35 86.05 C53.63 88.55, 43.8 87.83, 35.34 85.49 C26.88 83.15, 16.37 78.11, 10.59 72 C4.81 65.89, 1.66 56.44, 0.66 48.83 C-0.33 41.22, 1.39 33.3, 4.61 26.36 C7.83 19.43, 13.2 11.42, 20 7.23 C26.81 3.03, 40.96 2.09, 45.44 1.2 C49.92 0.32, 46.62 1.16, 46.89 1.93" stroke="none" stroke-width="0" fill="#e7f5ff"></path><path d="M36.23 0.75 C44.11 -1.56, 55.21 -1.01, 63.19 1.72 C71.16 4.46, 78.99 10.93, 84.05 17.15 C89.11 23.37, 92.87 31.46, 93.54 39.04 C94.22 46.62, 91.95 55.78, 88.11 62.64 C84.27 69.5, 77.71 76.18, 70.5 80.2 C63.29 84.22, 53.21 87.23, 44.85 86.78 C36.49 86.33, 27.12 82.04, 20.35 77.5 C13.59 72.96, 7.5 66.65, 4.25 59.52 C1 52.39, -0.69 42.44, 0.84 34.71 C2.37 26.98, 6.94 18.71, 13.42 13.14 C19.9 7.58, 34.64 3.22, 39.7 1.32 C44.75 -0.58, 43.59 1.11, 43.75 1.74 M61.5 1.26 C69.09 2.53, 76.73 8.33, 82.29 14.31 C87.85 20.28, 93.41 29.24, 94.85 37.11 C96.29 44.97, 94.69 54.3, 90.94 61.51 C87.18 68.71, 79.73 76.22, 72.31 80.32 C64.9 84.42, 55.02 86.44, 46.45 86.12 C37.89 85.8, 28.17 82.66, 20.92 78.4 C13.67 74.14, 6.09 67.7, 2.93 60.55 C-0.23 53.39, 0.43 43.05, 1.97 35.48 C3.52 27.9, 6.66 20.64, 12.23 15.09 C17.8 9.54, 27.43 4.27, 35.39 2.17 C43.36 0.07, 55.66 2.16, 60.01 2.5 C64.37 2.85, 61.39 3.64, 61.53 4.23" stroke="#1e1e1e" stroke-width="4" fill="none"></path></g><g transform="translate(451.78397543173014 381.27695359900144) rotate(0 11.807998657226562 22.5)"><text x="11.807998657226562" y="0" font-family="Virgil, Segoe UI Emoji" font-size="36px" fill="#1e1e1e" text-anchor="middle" style="white-space: pre;" direction="ltr" dominant-baseline="text-before-edge">A</text></g><g stroke-linecap="round" transform="translate(434.8278263395614 663.7398929490969) rotate(0 47.144709127266196 43.25269195895635)"><path d="M42.42 0.22 C50.29 -1.2, 60.12 0.48, 67.81 3.92 C75.49 7.36, 83.99 13.97, 88.52 20.84 C93.05 27.71, 95.27 37.35, 94.99 45.13 C94.7 52.91, 91.8 61.18, 86.82 67.52 C81.84 73.86, 73.06 80.19, 65.1 83.18 C57.15 86.16, 47.32 86.82, 39.09 85.41 C30.86 84.01, 21.81 79.88, 15.7 74.73 C9.58 69.57, 4.62 62.06, 2.4 54.49 C0.18 46.92, 0 36.66, 2.39 29.28 C4.79 21.91, 9.48 15.16, 16.78 10.24 C24.08 5.32, 40.69 1.36, 46.19 -0.24 C51.69 -1.84, 49.7 -0.26, 49.79 0.64 M36.19 -0.43 C43.68 -2.71, 55.11 -0.71, 62.97 2.09 C70.82 4.89, 78.04 9.85, 83.31 16.39 C88.59 22.93, 93.56 33.33, 94.63 41.33 C95.69 49.33, 94 57.73, 89.69 64.38 C85.38 71.02, 76.34 77.69, 68.76 81.19 C61.17 84.7, 52.36 85.83, 44.18 85.42 C35.99 85, 26.72 83.17, 19.66 78.72 C12.6 74.28, 5.12 65.94, 1.81 58.74 C-1.51 51.54, -2.22 42.98, -0.22 35.51 C1.78 28.04, 7.58 19.41, 13.81 13.91 C20.04 8.41, 33.43 4.66, 37.18 2.52 C40.92 0.37, 36.34 0.57, 36.3 1.06" stroke="none" stroke-width="0" fill="#e7f5ff"></path><path d="M36.04 1.82 C43.54 -0.4, 54.3 -0.07, 62.19 2.33 C70.07 4.72, 78.08 10.13, 83.36 16.2 C88.64 22.28, 92.95 30.89, 93.87 38.78 C94.8 46.67, 92.71 56.69, 88.92 63.53 C85.13 70.37, 78.35 75.95, 71.13 79.8 C63.91 83.65, 54.19 86.93, 45.61 86.64 C37.03 86.35, 26.64 82.66, 19.66 78.05 C12.67 73.43, 6.92 65.97, 3.71 58.93 C0.5 51.88, -1.05 43.24, 0.4 35.77 C1.86 28.3, 5.81 19.93, 12.44 14.1 C19.08 8.27, 34.72 2.9, 40.2 0.79 C45.69 -1.32, 45.11 0.76, 45.37 1.45 M36.9 0.47 C44.97 -1.74, 55.84 -0.77, 63.78 1.94 C71.72 4.65, 79.49 10.61, 84.57 16.74 C89.64 22.87, 93.48 31.14, 94.23 38.72 C94.98 46.3, 93.12 55.22, 89.05 62.22 C84.97 69.22, 76.9 76.82, 69.78 80.72 C62.66 84.62, 54.62 85.85, 46.32 85.61 C38.02 85.37, 27.03 83.53, 19.99 79.26 C12.95 75, 7.5 67.27, 4.11 60 C0.71 52.73, -1.96 43.16, -0.39 35.64 C1.19 28.12, 7.32 20.61, 13.56 14.87 C19.79 9.13, 33.08 3.37, 37.01 1.19 C40.94 -1, 37.11 0.8, 37.12 1.75" stroke="#1e1e1e" stroke-width="4" fill="none"></path></g><g transform="translate(469.0501934107142 684.4083131193024) rotate(0 13.08599853515625 22.5)"><text x="13.08599853515625" y="0" font-family="Virgil, Segoe UI Emoji" font-size="36px" fill="#1e1e1e" text-anchor="middle" style="white-space: pre;" direction="ltr" dominant-baseline="text-before-edge">B</text></g><g stroke-linecap="round" transform="translate(818.1635134945054 347.1496068331285) rotate(0 47.144709127266196 43.25269195895635)"><path d="M40.64 0.18 C48.49 -1.58, 59.21 0.11, 66.8 3.41 C74.4 6.7, 81.47 13.41, 86.2 19.97 C90.94 26.53, 95.09 34.9, 95.2 42.78 C95.31 50.65, 91.53 60.5, 86.85 67.21 C82.17 73.93, 75 79.86, 67.11 83.05 C59.22 86.25, 47.94 87.44, 39.52 86.4 C31.09 85.36, 22.73 82.01, 16.58 76.83 C10.42 71.65, 4.91 63, 2.57 55.32 C0.23 47.64, 0.26 38.07, 2.55 30.76 C4.85 23.46, 8.96 16.63, 16.35 11.48 C23.73 6.34, 40.61 1.55, 46.87 -0.11 C53.13 -1.76, 53.94 0.74, 53.93 1.55" stroke="none" stroke-width="0" fill="#ffec99"></path><path d="M61 1.75 C68.92 3.43, 78.08 9.35, 83.57 15.53 C89.07 21.72, 92.9 31.2, 93.96 38.86 C95.01 46.53, 93.53 54.59, 89.9 61.55 C86.27 68.5, 79.55 76.5, 72.16 80.6 C64.77 84.69, 54.12 86.47, 45.55 86.13 C36.98 85.79, 27.8 82.8, 20.73 78.57 C13.67 74.34, 6.59 67.75, 3.15 60.73 C-0.3 53.72, -1.5 44.22, 0.04 36.47 C1.57 28.71, 6.36 19.95, 12.35 14.19 C18.35 8.43, 27.05 3.67, 36 1.89 C44.94 0.12, 60.72 3.04, 66.01 3.53 C71.31 4.03, 68.33 4.12, 67.78 4.86" stroke="#1e1e1e" stroke-width="4.5" fill="none" stroke-dasharray="1.5 10"></path></g><g transform="translate(855.6618815422207 367.818027003334) rotate(0 9.80999755859375 22.5)"><text x="9.80999755859375" y="0" font-family="Virgil, Segoe UI Emoji" font-size="36px" fill="#1e1e1e" text-anchor="middle" style="white-space: pre;" direction="ltr" dominant-baseline="text-before-edge">I</text></g><g mask="url(#mask-MaBMK7EF4n6km7qY4K3iG)" stroke-linecap="round"><g transform="translate(489.0544007327362 452.7789693935697) rotate(0 2.0343657854782577 102.2815980066789)"><path d="M-0.12 -1.13 C0.7 33.02, 4.76 170.02, 5.71 204.29 M-1.65 0.89 C-1.09 35.28, 3.47 171.55, 4.5 205.69" stroke="#1e1e1e" stroke-width="4" fill="none"></path></g></g><mask id="mask-MaBMK7EF4n6km7qY4K3iG"><rect x="0" y="0" fill="#fff" width="595.2867935275754" height="757.3328616525737"></rect><rect x="479.9126015246875" y="532.5559155230717" fill="#000" width="24.5159912109375" height="45" opacity="1"></rect></mask><g transform="translate(479.9126015246875 532.5559155230717) rotate(0 11.176164993526982 22.50465187717691)"><text x="12.25799560546875" y="0" font-family="Virgil, Segoe UI Emoji" font-size="36px" fill="#e03131" text-anchor="middle" style="white-space: pre;" direction="ltr" dominant-baseline="text-before-edge">3</text></g><g mask="url(#mask-NICJb99hr6FqF2XR5N0j8)" stroke-linecap="round"><g transform="translate(516.7010634615062 396.5495790025193) rotate(0 147.90020578255871 -3.0238312425237837)"><path d="M-0.52 -0.26 C48.49 -1.04, 244.69 -4.99, 293.93 -5.79 M1.41 -1.44 C50.83 -1.92, 247.49 -3.35, 296.32 -4.28" stroke="#1e1e1e" stroke-width="4" fill="none"></path></g></g><mask id="mask-NICJb99hr6FqF2XR5N0j8"><rect x="0" y="0" fill="#fff" width="911.24229577596" height="502.27431006229335"></rect><rect x="651.7136840132644" y="371.18721347263227" fill="#000" width="24.5159912109375" height="45" opacity="1"></rect></mask><g transform="translate(651.7136840132644 371.18721347263227) rotate(0 12.887585230800596 22.338534287363245)"><text x="12.25799560546875" y="0" font-family="Virgil, Segoe UI Emoji" font-size="36px" fill="#e03131" text-anchor="middle" style="white-space: pre;" direction="ltr" dominant-baseline="text-before-edge">3</text></g><g stroke-linecap="round" transform="translate(853.645032823074 588.1847051375657) rotate(0 47.144709127266196 43.25269195895635)"><path d="M40.6 0.01 C48.63 -1.69, 59.45 0.26, 67.3 3.63 C75.15 7.01, 83.2 13.74, 87.7 20.27 C92.21 26.8, 94.58 34.98, 94.32 42.81 C94.06 50.63, 90.69 60.62, 86.14 67.21 C81.6 73.8, 74.64 79.25, 67.02 82.34 C59.4 85.44, 48.76 86.7, 40.42 85.77 C32.08 84.84, 23.49 81.7, 16.99 76.76 C10.5 71.82, 4 63.82, 1.47 56.14 C-1.06 48.45, -0.49 38.27, 1.81 30.63 C4.11 23, 7.14 15.55, 15.28 10.31 C23.42 5.07, 43.11 0.4, 50.67 -0.79 C58.23 -1.98, 60.51 2.19, 60.66 3.18 M56.94 -0.08 C65.27 0.95, 74.95 7.48, 80.77 13.14 C86.6 18.8, 90.3 26.19, 91.87 33.88 C93.44 41.57, 92.86 51.79, 90.2 59.27 C87.53 66.75, 82.38 73.98, 75.88 78.74 C69.37 83.51, 59.81 87.55, 51.18 87.84 C42.55 88.14, 31.8 84.44, 24.1 80.53 C16.4 76.63, 8.99 70.92, 4.99 64.44 C1 57.96, -0.53 49.33, 0.12 41.65 C0.77 33.98, 3.67 25.02, 8.89 18.4 C14.11 11.78, 23.47 4.9, 31.45 1.94 C39.42 -1.02, 52.27 0.6, 56.72 0.63 C61.17 0.65, 58.39 1.17, 58.12 2.09" stroke="none" stroke-width="0" fill="#e7f5ff"></path><path d="M55.65 0.76 C63.63 1.47, 72.48 5.64, 78.71 10.78 C84.94 15.93, 90.88 23.91, 93.03 31.63 C95.18 39.35, 94.36 49.5, 91.63 57.11 C88.89 64.72, 83.1 72.4, 76.61 77.3 C70.12 82.21, 60.92 85.62, 52.71 86.53 C44.49 87.43, 34.83 86.17, 27.32 82.76 C19.8 79.35, 12.26 72.92, 7.63 66.08 C3 59.24, -0.4 49.42, -0.47 41.7 C-0.54 33.98, 2.46 25.98, 7.19 19.77 C11.92 13.55, 19.34 7.43, 27.91 4.4 C36.48 1.38, 52.8 1.8, 58.61 1.63 C64.41 1.46, 62.95 2.76, 62.76 3.41 M35.91 0.72 C43.7 -1.72, 53.25 0.13, 61.26 2.69 C69.26 5.24, 78.71 10.13, 83.95 16.06 C89.18 21.99, 91.62 30.4, 92.68 38.27 C93.73 46.13, 93.57 56.3, 90.3 63.24 C87.03 70.19, 80.22 76.12, 73.06 79.94 C65.91 83.77, 56.02 86.04, 47.36 86.18 C38.69 86.31, 28.43 85.03, 21.06 80.75 C13.69 76.46, 6.62 67.79, 3.15 60.46 C-0.32 53.13, -1.08 44.3, 0.26 36.75 C1.59 29.19, 5.44 21.07, 11.14 15.13 C16.85 9.19, 30.7 3, 34.49 1.11 C38.29 -0.78, 33.74 2.82, 33.91 3.77" stroke="#1e1e1e" stroke-width="4" fill="none"></path></g><g transform="translate(889.3614031901252 608.8531253077713) rotate(0 11.591995239257812 22.5)"><text x="11.591995239257812" y="0" font-family="Virgil, Segoe UI Emoji" font-size="36px" fill="#1e1e1e" text-anchor="middle" style="white-space: pre;" direction="ltr" dominant-baseline="text-before-edge">C</text></g><g mask="url(#mask-2Gu6qtvegvKeCWe77wTA6)" stroke-linecap="round"><g transform="translate(537.1390153055027 701.2305568544084) rotate(0 155.3773380724183 -25.072342233382415)"><path d="M-1.18 1.05 C50.74 -7.6, 259.86 -42.57, 311.94 -51.19 M0.4 0.55 C52.15 -7.95, 259.46 -40.77, 311.11 -49.66" stroke="#1e1e1e" stroke-width="4" fill="none"></path></g></g><mask id="mask-2Gu6qtvegvKeCWe77wTA6"><rect x="0" y="0" fill="#fff" width="948.8460430517616" height="852.4110890878706"></rect><rect x="681.4725325355657" y="653.1402907376773" fill="#000" width="23.039993286132812" height="45" opacity="1"></rect></mask><g transform="translate(681.4725325355657 653.1402907376773) rotate(0 11.043820842355217 23.017923883348658)"><text x="11.519996643066406" y="0" font-family="Virgil, Segoe UI Emoji" font-size="36px" fill="#e03131" text-anchor="middle" style="white-space: pre;" direction="ltr" dominant-baseline="text-before-edge">4</text></g><g stroke-linecap="round" transform="translate(1036.1071158407967 956.0254628353428) rotate(0 47.144709127266196 43.25269195895635)"><path d="M40.77 -0.04 C48.41 -1.62, 58.59 1.29, 66.34 4.6 C74.09 7.92, 82.6 13.42, 87.26 19.86 C91.91 26.29, 94.25 35.26, 94.27 43.24 C94.29 51.21, 92.07 61, 87.36 67.69 C82.65 74.39, 73.9 80.42, 66.01 83.4 C58.12 86.39, 48.52 86.9, 40.03 85.59 C31.54 84.27, 21.48 80.72, 15.05 75.5 C8.63 70.27, 3.72 61.63, 1.46 54.23 C-0.8 46.83, -1.16 38.31, 1.5 31.12 C4.17 23.92, 9.79 16.39, 17.45 11.07 C25.11 5.75, 41.49 0.81, 47.47 -0.82 C53.45 -2.45, 53.49 0.4, 53.32 1.31 M56.69 2.35 C64.94 3.61, 75.06 8.59, 81.23 14.24 C87.4 19.89, 92.19 28.91, 93.7 36.24 C95.21 43.56, 93.6 51.17, 90.28 58.21 C86.97 65.25, 80.58 73.58, 73.82 78.48 C67.07 83.38, 58.12 87.08, 49.75 87.61 C41.37 88.14, 30.77 85.87, 23.56 81.68 C16.35 77.48, 10.41 69.53, 6.5 62.45 C2.59 55.36, -0.74 46.71, 0.08 39.15 C0.89 31.59, 6.27 23.03, 11.37 17.08 C16.46 11.14, 22.79 6.06, 30.65 3.49 C38.51 0.93, 54.14 2.15, 58.53 1.68 C62.91 1.22, 57.03 0.3, 56.96 0.7" stroke="none" stroke-width="0" fill="#e7f5ff"></path><path d="M38.38 1.52 C46.03 -0.2, 56.69 1.22, 64.57 4.13 C72.46 7.04, 80.65 12.63, 85.7 19 C90.75 25.36, 94.44 34.55, 94.87 42.31 C95.3 50.08, 92.82 59.07, 88.29 65.56 C83.76 72.06, 75.54 77.72, 67.69 81.28 C59.84 84.83, 49.66 87.46, 41.21 86.87 C32.76 86.27, 23.5 82.69, 16.99 77.73 C10.47 72.77, 4.66 64.63, 2.1 57.1 C-0.45 49.58, -0.46 40.18, 1.66 32.59 C3.79 24.99, 7.78 17.05, 14.83 11.53 C21.89 6, 38.11 1.02, 44.01 -0.59 C49.92 -2.2, 50.21 1.02, 50.25 1.87 M57.56 1.86 C65.52 3.24, 76.04 9.59, 82.21 15.19 C88.38 20.8, 93 28.13, 94.57 35.51 C96.14 42.89, 95.05 52.01, 91.63 59.46 C88.21 66.92, 81.32 75.76, 74.05 80.23 C66.78 84.71, 56.57 86.23, 48.03 86.31 C39.48 86.4, 30.09 84.59, 22.77 80.76 C15.46 76.93, 7.91 70.42, 4.15 63.32 C0.39 56.23, -0.68 45.82, 0.21 38.18 C1.11 30.55, 4.25 23.31, 9.53 17.49 C14.81 11.68, 23.57 5.78, 31.9 3.3 C40.22 0.83, 55.11 2.88, 59.48 2.64 C63.85 2.39, 58.43 1.32, 58.12 1.85" stroke="#1e1e1e" stroke-width="4" fill="none"></path></g><g transform="translate(1068.9434813250355 976.6938830055483) rotate(0 14.472000122070312 22.5)"><text x="14.472000122070312" y="0" font-family="Virgil, Segoe UI Emoji" font-size="36px" fill="#1e1e1e" text-anchor="middle" style="white-space: pre;" direction="ltr" dominant-baseline="text-before-edge">T</text></g><g mask="url(#mask-1TCwbukJ-ECUu-t-yHQiQ)" stroke-linecap="round"><g transform="translate(523.6560563449448 736.4131141011453) rotate(0 254.24055880687592 127.72014180594579)"><path d="M-0.32 -0.58 C84.55 41.83, 423.95 212.24, 508.8 254.92 M1.72 1.73 C86.56 44.23, 423.92 213.53, 508.38 256.02" stroke="#1e1e1e" stroke-width="4" fill="none"></path></g></g><mask id="mask-1TCwbukJ-ECUu-t-yHQiQ"><rect x="0" y="0" fill="#fff" width="1131.4381996190323" height="1092.162543932147"></rect><rect x="767.791131277887" y="841.7878290166464" fill="#000" width="19.511993408203125" height="45" opacity="1"></rect></mask><g transform="translate(767.791131277887 841.7878290166464) rotate(0 10.105483873933736 22.34542689044474)"><text x="9.755996704101562" y="0" font-family="Virgil, Segoe UI Emoji" font-size="36px" fill="#e03131" text-anchor="middle" style="white-space: pre;" direction="ltr" dominant-baseline="text-before-edge">11</text></g><g mask="url(#mask-eJdgom6LaTotmEuG02DS-)" stroke-linecap="round"><g transform="translate(517.3155389739177 673.2722151863504) rotate(0 156.9361873834764 -119.08315083762227)"><path d="M1.01 -0.83 C53.36 -40.65, 261.75 -199.9, 313.78 -239.51 M0.09 1.35 C52.39 -38.25, 261.24 -197.81, 313.34 -238.11" stroke="#1e1e1e" stroke-width="4" fill="none"></path></g></g><mask id="mask-eJdgom6LaTotmEuG02DS-"><rect x="0" y="0" fill="#fff" width="930.1336011364374" height="1012.5222454433456"></rect><rect x="662.2045734121111" y="531.1472000578528" fill="#000" width="23.039993286132812" height="45" opacity="1"></rect></mask><g transform="translate(662.2045734121111 531.1472000578528) rotate(0 12.04715294528296 23.04186429087531)"><text x="11.519996643066406" y="0" font-family="Virgil, Segoe UI Emoji" font-size="36px" fill="#e03131" text-anchor="middle" style="white-space: pre;" direction="ltr" dominant-baseline="text-before-edge">4</text></g><g stroke-linecap="round" transform="translate(1115.5767827248337 395.42062724270136) rotate(0 47.144709127266196 43.25269195895635)"><path d="M41.98 1.15 C49.84 -0.21, 59.52 1.77, 67.05 4.93 C74.58 8.08, 82.78 13.61, 87.15 20.08 C91.53 26.55, 93.49 36.05, 93.3 43.76 C93.1 51.47, 90.62 59.77, 85.98 66.34 C81.34 72.92, 73.04 79.85, 65.47 83.23 C57.9 86.61, 48.79 88.07, 40.55 86.64 C32.32 85.2, 22.52 79.92, 16.06 74.61 C9.59 69.3, 4.18 62.1, 1.75 54.77 C-0.68 47.45, -1.12 38.28, 1.49 30.69 C4.09 23.1, 9.39 14.47, 17.37 9.22 C25.35 3.98, 42.63 0.43, 49.38 -0.78 C56.13 -1.99, 57.79 1.09, 57.85 1.99 M68.42 5.28 C75.98 8.57, 84.09 16.44, 88.34 23.35 C92.58 30.26, 94.24 39.32, 93.89 46.76 C93.54 54.19, 91.24 61.86, 86.24 67.96 C81.25 74.05, 71.78 80.35, 63.91 83.34 C56.05 86.34, 47.46 87.29, 39.03 85.92 C30.6 84.55, 19.57 80.55, 13.35 75.12 C7.14 69.7, 3.65 61.35, 1.77 53.37 C-0.11 45.38, -0.94 34.84, 2.07 27.22 C5.08 19.6, 12.88 12.03, 19.82 7.62 C26.75 3.22, 35.29 1.13, 43.68 0.77 C52.06 0.4, 66.12 4.37, 70.13 5.45 C74.14 6.53, 68.29 6.84, 67.75 7.25" stroke="none" stroke-width="0" fill="#e7f5ff"></path><path d="M55.92 0.82 C63.81 1.3, 72.61 5.4, 78.61 10.75 C84.62 16.11, 89.82 25.16, 91.95 32.96 C94.09 40.76, 94 50.2, 91.44 57.55 C88.89 64.9, 83.11 72.26, 76.63 77.06 C70.16 81.86, 61.04 85.51, 52.6 86.34 C44.17 87.17, 33.75 85.59, 26.01 82.01 C18.27 78.43, 10.51 71.39, 6.18 64.86 C1.86 58.33, -0.21 50.51, 0.05 42.84 C0.3 35.18, 2.83 25.36, 7.72 18.87 C12.6 12.37, 20.45 6.82, 29.38 3.85 C38.31 0.88, 55.16 0.89, 61.31 1.06 C67.46 1.24, 66.41 3.96, 66.27 4.9 M46.44 1.47 C54.21 0.78, 64.06 2.44, 71.22 6.36 C78.38 10.28, 85.76 17.81, 89.4 25 C93.04 32.18, 94.1 41.86, 93.06 49.46 C92.02 57.07, 88.65 64.54, 83.18 70.62 C77.7 76.7, 68.37 83.37, 60.21 85.93 C52.05 88.5, 42.12 88.11, 34.2 86.01 C26.28 83.92, 18.35 79.41, 12.68 73.36 C7.01 67.31, 1.6 57.59, 0.16 49.72 C-1.29 41.85, 0.62 33.07, 3.99 26.13 C7.37 19.19, 13.42 12.21, 20.42 8.08 C27.43 3.95, 41.59 2.55, 46.03 1.36 C50.47 0.16, 47.1 0.58, 47.07 0.91" stroke="#1e1e1e" stroke-width="4" fill="none"></path></g><g transform="translate(1148.84515504501 416.0890474129069) rotate(0 14.039993286132812 22.5)"><text x="14.039993286132812" y="0" font-family="Virgil, Segoe UI Emoji" font-size="36px" fill="#1e1e1e" text-anchor="middle" style="white-space: pre;" direction="ltr" dominant-baseline="text-before-edge">D</text></g><g mask="url(#mask-Z14Sbqy5a0P7wq1XmQrlm)" stroke-linecap="round"><g transform="translate(938.5848051830098 598.695585124487) rotate(0 89.36207354215867 -66.02212834769011)"><path d="M0.63 0.77 C30.43 -21.48, 149.63 -110.49, 179.22 -132.82 M-0.5 0.13 C29.13 -22.03, 148.19 -109.49, 178.38 -131.58" stroke="#1e1e1e" stroke-width="4" fill="none"></path></g></g><mask id="mask-Z14Sbqy5a0P7wq1XmQrlm"><rect x="0" y="0" fill="#fff" width="1217.6003151820032" height="830.9398495997634"></rect><rect x="1015.8345645770378" y="510.0734528868488" fill="#000" width="24.5159912109375" height="45" opacity="1"></rect></mask><g transform="translate(1015.8345645770378 510.0734528868488) rotate(0 12.112314148130736 22.600003889948084)"><text x="12.25799560546875" y="0" font-family="Virgil, Segoe UI Emoji" font-size="36px" fill="#e03131" text-anchor="middle" style="white-space: pre;" direction="ltr" dominant-baseline="text-before-edge">3</text></g><g stroke-linecap="round" transform="translate(1175.7467059356304 625.2884382738971) rotate(0 47.144709127266196 43.25269195895635)"><path d="M62.14 2.3 C69.92 4.16, 78.96 9.73, 84.2 16.01 C89.45 22.3, 92.72 31.97, 93.64 40.01 C94.55 48.04, 93.56 57.55, 89.72 64.24 C85.88 70.94, 78.17 76.45, 70.61 80.16 C63.05 83.87, 53.03 86.78, 44.37 86.5 C35.71 86.23, 25.44 83.28, 18.65 78.53 C11.86 73.77, 6.55 65.45, 3.62 57.98 C0.69 50.51, -0.71 41.18, 1.06 33.7 C2.83 26.23, 8.2 18.54, 14.24 13.15 C20.28 7.75, 28.31 2.89, 37.32 1.31 C46.33 -0.27, 62.8 2.83, 68.29 3.65 C73.78 4.47, 70.75 5.49, 70.27 6.23 M66.15 2.34 C73.9 4.41, 80.75 11.58, 85.68 18.18 C90.61 24.77, 95.52 33.89, 95.74 41.9 C95.96 49.9, 91.47 59.47, 87.01 66.22 C82.55 72.97, 76.56 79.28, 68.98 82.4 C61.39 85.53, 49.83 86.09, 41.5 84.99 C33.16 83.88, 25.4 80.33, 18.95 75.78 C12.5 71.22, 5.58 64.79, 2.78 57.67 C-0.01 50.54, 0.37 40.47, 2.2 33.03 C4.02 25.6, 7.71 18.63, 13.75 13.07 C19.78 7.51, 30.02 1.25, 38.41 -0.32 C46.8 -1.88, 59.81 2.86, 64.1 3.7 C68.38 4.53, 64.05 4.24, 64.1 4.69" stroke="none" stroke-width="0" fill="#e7f5ff"></path><path d="M30.68 3.4 C38.13 0.26, 49.02 -0.26, 57.42 1.36 C65.81 2.99, 75.1 7.6, 81.04 13.13 C86.99 18.66, 91.49 27.03, 93.08 34.53 C94.67 42.04, 93.6 50.76, 90.58 58.18 C87.57 65.61, 81.85 74.36, 74.98 79.09 C68.12 83.81, 57.8 86.13, 49.4 86.53 C40.99 86.92, 31.81 85.41, 24.57 81.44 C17.33 77.48, 9.94 69.62, 5.93 62.72 C1.92 55.82, -0.28 47.56, 0.51 40.05 C1.3 32.53, 5 23.93, 10.69 17.62 C16.37 11.31, 30.04 4.83, 34.62 2.16 C39.19 -0.5, 37.77 1.14, 38.15 1.64 M43.72 0.76 C51.79 -0.38, 62.99 1.22, 70.37 5.18 C77.75 9.14, 84.1 17.36, 88 24.53 C91.9 31.69, 94.25 40.39, 93.77 48.14 C93.28 55.89, 90.33 65.12, 85.11 71.04 C79.89 76.97, 70.57 81.27, 62.45 83.69 C54.33 86.12, 44.69 87.2, 36.38 85.62 C28.07 84.03, 18.59 79.6, 12.61 74.18 C6.64 68.76, 1.97 60.87, 0.51 53.09 C-0.95 45.31, 0.81 35.15, 3.87 27.5 C6.93 19.86, 11.94 11.7, 18.86 7.2 C25.79 2.7, 41.2 1.55, 45.43 0.49 C49.66 -0.56, 44.42 0.07, 44.24 0.9" stroke="#1e1e1e" stroke-width="4" fill="none"></path></g><g transform="translate(1210.9230753871543 645.9568584441026) rotate(0 12.131996154785156 22.5)"><text x="12.131996154785156" y="0" font-family="Virgil, Segoe UI Emoji" font-size="36px" fill="#1e1e1e" text-anchor="middle" style="white-space: pre;" direction="ltr" dominant-baseline="text-before-edge">E</text></g><g mask="url(#mask-yYj-dy9_QoabZrS-Z39vX)" stroke-linecap="round"><g transform="translate(948.6809282718777 654.7788573191679) rotate(0 112.47117691134281 10.174480442602317)"><path d="M0.74 -0.61 C38.42 2.82, 187.97 16.14, 225.27 19.6 M-0.33 1.68 C37.36 5.37, 187.47 17.64, 224.86 20.96" stroke="#1e1e1e" stroke-width="4" fill="none"></path></g></g><mask id="mask-yYj-dy9_QoabZrS-Z39vX"><rect x="0" y="0" fill="#fff" width="1272.94031993707" height="774.7154236857345"></rect><rect x="1048.5526284990056" y="642.2471405024512" fill="#000" width="24.5159912109375" height="45" opacity="1"></rect></mask><g transform="translate(1048.5526284990046 642.2471405024512) rotate(0 12.599476684215915 22.70619725931897)"><text x="12.25799560546875" y="0" font-family="Virgil, Segoe UI Emoji" font-size="36px" fill="#e03131" text-anchor="middle" style="white-space: pre;" direction="ltr" dominant-baseline="text-before-edge">3</text></g><g mask="url(#mask-2Byf7h_D1tR2p1gcFwqCt)" stroke-linecap="round"><g transform="translate(1178.0054286033946 487.01355034656217) rotate(0 14.160639487266053 62.95459141126071)"><path d="M1.01 -0.34 C5.6 21.01, 23.73 106.25, 28.23 127.47 M0.09 -1.56 C4.47 19.45, 22.91 103.85, 27.45 125.46" stroke="#1e1e1e" stroke-width="4" fill="none"></path></g></g><mask id="mask-2Byf7h_D1tR2p1gcFwqCt"><rect x="0" y="0" fill="#fff" width="1305.9197171996602" height="714.2701838813232"></rect><rect x="1179.1465786388335" y="528.1418671139427" fill="#000" width="25.631988525390625" height="45" opacity="1"></rect></mask><g transform="translate(1179.1465786388326 528.1418671139427) rotate(0 13.019489451828122 21.826274643880197)"><text x="12.815994262695312" y="0" font-family="Virgil, Segoe UI Emoji" font-size="36px" fill="#e03131" text-anchor="middle" style="white-space: pre;" direction="ltr" dominant-baseline="text-before-edge">2</text></g><g stroke-linecap="round" transform="translate(1404.2605778484167 371.098632447663) rotate(0 47.144709127266196 43.25269195895635)"><path d="M55.04 -0.27 C62.97 0.2, 72.53 5.72, 78.68 11.12 C84.82 16.52, 89.61 24.76, 91.93 32.12 C94.25 39.48, 95.02 48.04, 92.61 55.28 C90.21 62.53, 83.96 70.41, 77.51 75.58 C71.05 80.75, 62.2 85.14, 53.88 86.3 C45.55 87.45, 35.19 85.97, 27.55 82.51 C19.92 79.05, 12.73 72.29, 8.05 65.53 C3.36 58.76, -0.55 49.61, -0.55 41.91 C-0.55 34.2, 3.1 25.7, 8.03 19.28 C12.96 12.86, 20.8 6.34, 29.06 3.41 C37.31 0.48, 52.65 1.89, 57.56 1.69 C62.48 1.5, 58.83 1.5, 58.54 2.25 M52.8 0.78 C60.89 0.59, 69.26 3.7, 75.98 8.3 C82.71 12.89, 90.29 20.65, 93.15 28.37 C96.01 36.08, 95.33 46.77, 93.15 54.59 C90.96 62.4, 86.5 69.83, 80.03 75.26 C73.56 80.7, 62.86 86.05, 54.34 87.2 C45.81 88.36, 36.68 85.32, 28.87 82.18 C21.06 79.04, 12.36 74.49, 7.46 68.37 C2.55 62.24, -0.61 53.44, -0.56 45.43 C-0.51 37.42, 3.12 27.17, 7.76 20.31 C12.39 13.45, 19.63 7.52, 27.25 4.27 C34.86 1.02, 49.14 1.37, 53.46 0.81 C57.78 0.25, 53.39 0.17, 53.16 0.91" stroke="none" stroke-width="0" fill="#e7f5ff"></path><path d="M49.1 -0.59 C57.24 -0.65, 67.84 4.39, 74.73 9.07 C81.61 13.75, 87.25 20.32, 90.44 27.49 C93.64 34.67, 95.38 44.65, 93.89 52.14 C92.4 59.64, 87.43 66.86, 81.51 72.45 C75.59 78.05, 66.54 83.67, 58.36 85.72 C50.18 87.77, 40.51 87.29, 32.43 84.74 C24.36 82.19, 15.31 76.69, 9.9 70.42 C4.49 64.15, 0.57 55.09, -0.03 47.13 C-0.62 39.17, 2.38 29.62, 6.34 22.68 C10.29 15.73, 15.32 9.19, 23.69 5.46 C32.05 1.72, 49.98 0.64, 56.52 0.27 C63.07 -0.1, 63.2 2.54, 62.96 3.24 M68.57 5.7 C76.1 8.18, 82.76 14.03, 87.05 20.52 C91.33 27.02, 94.56 36.68, 94.29 44.67 C94.03 52.66, 90.32 61.84, 85.46 68.46 C80.61 75.09, 72.77 81.51, 65.16 84.42 C57.55 87.33, 48.21 87.63, 39.8 85.92 C31.38 84.22, 20.89 79.37, 14.67 74.17 C8.44 68.97, 4.56 62.12, 2.43 54.75 C0.31 47.38, -0.49 37.24, 1.91 29.93 C4.3 22.62, 9.96 15.94, 16.79 10.89 C23.63 5.84, 34.23 0.74, 42.92 -0.37 C51.6 -1.48, 64.93 3.58, 68.91 4.25 C72.89 4.93, 67.38 3.12, 66.8 3.7" stroke="#1e1e1e" stroke-width="4" fill="none"></path></g><g transform="translate(1437.3669476051164 391.76705261786856) rotate(0 14.201995849609375 22.5)"><text x="14.201995849609375" y="0" font-family="Virgil, Segoe UI Emoji" font-size="36px" fill="#1e1e1e" text-anchor="middle" style="white-space: pre;" direction="ltr" dominant-baseline="text-before-edge">G</text></g><g mask="url(#mask-QD_G_SpWKWHN2ZXWxQFnk)" stroke-linecap="round"><g transform="translate(1264.0866178490605 630.2472129585854) rotate(0 78.94002159098818 -87.21201984562367)"><path d="M-0.02 -0.65 C26.14 -29.94, 130.58 -146.7, 157.07 -176.05 M-1.49 1.62 C25.04 -27.43, 132.66 -144.93, 159.37 -174.5" stroke="#1e1e1e" stroke-width="4" fill="none"></path></g></g><mask id="mask-QD_G_SpWKWHN2ZXWxQFnk"><rect x="0" y="0" fill="#fff" width="1521.9423315688555" height="906.3255968128574"></rect><rect x="1330.7564791034902" y="519.7080210314493" fill="#000" width="24.5159912109375" height="45" opacity="1"></rect></mask><g transform="translate(1330.7564791034893 519.7080210314493) rotate(0 12.270160336559456 23.327172081512344)"><text x="12.25799560546875" y="0" font-family="Virgil, Segoe UI Emoji" font-size="36px" fill="#e03131" text-anchor="middle" style="white-space: pre;" direction="ltr" dominant-baseline="text-before-edge">3</text></g><g stroke-linecap="round" transform="translate(1418.6599447147992 605.0264269298764) rotate(0 47.144709127266196 43.25269195895635)"><path d="M49.42 -0.81 C57.64 -1.33, 67.21 2.34, 74.23 6.97 C81.25 11.59, 88.22 19.56, 91.55 26.95 C94.88 34.33, 95.72 43.71, 94.22 51.27 C92.72 58.83, 88.56 66.76, 82.54 72.31 C76.52 77.86, 66.5 82.57, 58.12 84.56 C49.74 86.56, 40.08 86.68, 32.25 84.27 C24.42 81.86, 16.37 76.06, 11.13 70.09 C5.89 64.13, 1.91 56.22, 0.8 48.49 C-0.32 40.76, 0.74 30.63, 4.44 23.71 C8.15 16.8, 14.9 10.97, 23 6.99 C31.11 3, 47.36 0.62, 53.06 -0.19 C58.75 -1, 57.24 1.42, 57.17 2.14 M27.88 4.54 C34.86 1.17, 46.45 -0.45, 54.61 0.78 C62.78 2.02, 70.59 7.07, 76.85 11.94 C83.1 16.82, 89.73 22.71, 92.16 30.03 C94.59 37.35, 93.88 48.13, 91.43 55.89 C88.98 63.64, 83.51 71.69, 77.44 76.58 C71.37 81.47, 63.13 84.25, 55.02 85.2 C46.9 86.16, 36.47 85.3, 28.76 82.3 C21.05 79.3, 13.37 73.74, 8.75 67.2 C4.14 60.66, 1.21 50.84, 1.07 43.06 C0.92 35.28, 3.25 27.24, 7.9 20.54 C12.55 13.84, 25.86 5.44, 28.96 2.84 C32.07 0.24, 26.59 3.86, 26.52 4.93" stroke="none" stroke-width="0" fill="#e7f5ff"></path><path d="M68.37 4.88 C76.08 7.44, 83.52 13.38, 87.89 20.03 C92.27 26.69, 94.76 36.75, 94.62 44.79 C94.48 52.84, 91.91 61.81, 87.06 68.29 C82.21 74.77, 73.56 80.75, 65.54 83.68 C57.53 86.61, 47.18 87.4, 38.97 85.89 C30.76 84.38, 22.55 79.92, 16.3 74.62 C10.05 69.32, 3.76 61.64, 1.46 54.1 C-0.84 46.56, -0.23 36.78, 2.48 29.4 C5.19 22.01, 11.22 14.73, 17.7 9.78 C24.18 4.83, 32.26 0.33, 41.38 -0.3 C50.5 -0.94, 66.79 4.36, 72.41 5.99 C78.03 7.62, 75.52 8.87, 75.1 9.48 M41.31 1.12 C49.19 -0.11, 59.89 2.53, 67.71 5.86 C75.53 9.2, 83.91 14.81, 88.23 21.11 C92.54 27.41, 93.84 35.81, 93.6 43.66 C93.37 51.52, 91.6 61.66, 86.82 68.24 C82.04 74.82, 73.01 80.02, 64.95 83.13 C56.89 86.24, 46.57 88.38, 38.47 86.92 C30.37 85.45, 22.34 79.84, 16.35 74.34 C10.36 68.84, 4.98 61.61, 2.54 53.93 C0.1 46.25, -0.71 35.71, 1.71 28.24 C4.13 20.77, 10.58 13.9, 17.06 9.11 C23.53 4.33, 36.31 0.62, 40.55 -0.48 C44.8 -1.57, 42.05 1.6, 42.54 2.54" stroke="#1e1e1e" stroke-width="4" fill="none"></path></g><g transform="translate(1456.05031105353 625.6948471000819) rotate(0 9.917999267578125 22.5)"><text x="9.917999267578125" y="0" font-family="Virgil, Segoe UI Emoji" font-size="36px" fill="#1e1e1e" text-anchor="middle" style="white-space: pre;" direction="ltr" dominant-baseline="text-before-edge">H</text></g><g mask="url(#mask-40dTkbGqn1vmfbI8dHppU)" stroke-linecap="round"><g transform="translate(1439.0546281818743 466.94086280841793) rotate(0 11.971301987077368 68.74945969921623)"><path d="M0.12 0.6 C4.14 23.65, 21.3 114.81, 25.22 137.63 M-1.28 -0.13 C2.54 22.62, 20.02 113.18, 24.57 135.77" stroke="#1e1e1e" stroke-width="4" fill="none"></path></g></g><mask id="mask-40dTkbGqn1vmfbI8dHppU"><rect x="0" y="0" fill="#fff" width="1563.7073477254953" height="704.0684359351321"></rect><rect x="1439.122992348216" y="513.004649371775" fill="#000" width="24.5159912109375" height="45" opacity="1"></rect></mask><g transform="translate(1439.122992348216 513.004649371775) rotate(0 11.902937820735588 22.685673135859133)"><text x="12.25799560546875" y="0" font-family="Virgil, Segoe UI Emoji" font-size="36px" fill="#e03131" text-anchor="middle" style="white-space: pre;" direction="ltr" dominant-baseline="text-before-edge">3</text></g><g stroke-linecap="round" transform="translate(1622.4611562775272 607.1085528425315) rotate(0 47.144709127266196 43.25269195895635)"><path d="M28.93 3.86 C36.09 0.22, 47.37 -1.05, 55.55 0.04 C63.73 1.12, 71.82 5.1, 78.01 10.38 C84.2 15.66, 90.21 24.14, 92.7 31.72 C95.19 39.3, 95.4 48.31, 92.95 55.87 C90.5 63.44, 84.74 72.07, 78.01 77.11 C71.27 82.14, 61.08 85.05, 52.53 86.08 C43.98 87.12, 34.24 86.73, 26.71 83.31 C19.17 79.89, 11.65 72.29, 7.31 65.57 C2.97 58.85, 0.53 50.78, 0.68 42.99 C0.83 35.19, 3.19 25.44, 8.24 18.81 C13.29 12.17, 26.53 5.93, 30.99 3.19 C35.44 0.45, 34.51 1.75, 34.97 2.38 M52.35 -0.74 C60.48 -0.65, 69.56 5.04, 76.07 10.26 C82.58 15.47, 88.44 23.38, 91.41 30.57 C94.38 37.77, 95.75 46.05, 93.88 53.43 C92.01 60.81, 86.42 69.35, 80.18 74.85 C73.93 80.35, 64.79 85.1, 56.4 86.44 C48 87.78, 37.78 85.9, 29.81 82.87 C21.85 79.85, 13.35 74.87, 8.62 68.29 C3.89 61.71, 1.97 51.23, 1.43 43.37 C0.89 35.51, 1.38 27.37, 5.37 21.11 C9.37 14.85, 17.44 9.49, 25.41 5.83 C33.38 2.18, 48.65 -0.04, 53.18 -0.84 C57.71 -1.63, 52.54 -0.02, 52.57 1.05" stroke="none" stroke-width="0" fill="#e7f5ff"></path><path d="M29.32 4.27 C36.39 0.8, 46.5 0.04, 54.69 1.18 C62.89 2.32, 71.98 6.08, 78.46 11.1 C84.95 16.12, 91.34 23.81, 93.6 31.3 C95.85 38.78, 94.69 48.56, 92.01 55.99 C89.34 63.43, 83.97 70.88, 77.55 75.9 C71.12 80.93, 61.96 85.18, 53.44 86.14 C44.93 87.09, 34.04 85.06, 26.45 81.66 C18.87 78.26, 12.21 72.18, 7.93 65.73 C3.64 59.27, 0.58 50.71, 0.73 42.91 C0.88 35.11, 2.93 25.87, 8.83 18.91 C14.73 11.95, 30.13 4.23, 36.15 1.16 C42.16 -1.91, 44.62 -0.16, 44.93 0.49 M67 3.31 C74.59 6.05, 83.73 14.29, 88.21 21.09 C92.7 27.9, 94.31 36.26, 93.9 44.16 C93.5 52.06, 90.27 62.14, 85.79 68.5 C81.31 74.86, 74.57 79.44, 67.02 82.32 C59.46 85.2, 49.16 87.18, 40.46 85.77 C31.77 84.36, 21.38 79.14, 14.85 73.84 C8.31 68.54, 3.58 61.39, 1.24 53.99 C-1.1 46.59, -1.91 36.53, 0.8 29.43 C3.52 22.33, 10.58 16.12, 17.53 11.38 C24.48 6.63, 34.33 2.1, 42.48 0.94 C50.63 -0.22, 62.28 3.89, 66.43 4.41 C70.57 4.94, 67.41 3.34, 67.36 4.09" stroke="#1e1e1e" stroke-width="4" fill="none"></path></g><g transform="translate(1658.735525301805 627.776973012737) rotate(0 11.03399658203125 22.5)"><text x="11.03399658203125" y="0" font-family="Virgil, Segoe UI Emoji" font-size="36px" fill="#1e1e1e" text-anchor="middle" style="white-space: pre;" direction="ltr" dominant-baseline="text-before-edge">K</text></g><g mask="url(#mask-lHIFxDLbl5awEuhCCmWyY)" stroke-linecap="round"><g transform="translate(1485.4389436907068 453.69969257243565) rotate(0 70.69507801866575 84.34487028555714)"><path d="M0.46 1.14 C24.31 28.82, 118.55 138.96, 142.15 166.47 M-0.76 0.7 C23.09 28.54, 117.9 140.2, 141.64 167.99" stroke="#1e1e1e" stroke-width="4" fill="none"></path></g></g><mask id="mask-lHIFxDLbl5awEuhCCmWyY"><rect x="0" y="0" fill="#fff" width="1726.7661575822076" height="720.2105245837024"></rect><rect x="1543.8445550309889" y="514.455108578069" fill="#000" width="24.5159912109375" height="45" opacity="1"></rect></mask><g transform="translate(1543.844555030988 514.455108578069) rotate(0 12.289466678384542 23.589454279923757)"><text x="12.25799560546875" y="0" font-family="Virgil, Segoe UI Emoji" font-size="36px" fill="#e03131" text-anchor="middle" style="white-space: pre;" direction="ltr" dominant-baseline="text-before-edge">3</text></g><g mask="url(#mask-klNFTwJxgNuUWjHFT-kgN)" stroke-linecap="round"><g transform="translate(1520.3579881346368 664.0913855459598) rotate(0 47.59259713985557 -1.3449990283716033)"><path d="M0.83 -0.04 C16.65 -0.67, 79.75 -2.46, 95.38 -2.65 M-0.2 -1.1 C15.49 -1.04, 79.14 -0.94, 94.82 -1.25" stroke="#1e1e1e" stroke-width="4" fill="none"></path></g></g><mask id="mask-klNFTwJxgNuUWjHFT-kgN"><rect x="0" y="0" fill="#fff" width="1715.0018631784214" height="766.4866630081183"></rect><rect x="1554.8639313938338" y="640.3937468148806" fill="#000" width="25.631988525390625" height="45" opacity="1"></rect></mask><g transform="translate(1554.8639313938338 640.3937468148806) rotate(0 13.08665388065856 22.35263970270762)"><text x="12.815994262695312" y="0" font-family="Virgil, Segoe UI Emoji" font-size="36px" fill="#e03131" text-anchor="middle" style="white-space: pre;" direction="ltr" dominant-baseline="text-before-edge">2</text></g><g stroke-linecap="round" transform="translate(1369.6190453696827 754.1484109798944) rotate(0 47.144709127266196 43.25269195895635)"><path d="M64.37 2.65 C71.95 4.59, 79.56 10.19, 84.49 16.39 C89.41 22.6, 93.4 32, 93.91 39.86 C94.43 47.72, 91.54 56.48, 87.56 63.54 C83.57 70.59, 77.19 78.31, 70 82.19 C62.81 86.07, 53.07 87.52, 44.4 86.8 C35.74 86.09, 24.92 82.77, 18.02 77.91 C11.12 73.05, 5.79 64.89, 3.03 57.65 C0.27 50.41, -0.21 41.95, 1.45 34.46 C3.12 26.97, 7.19 18.16, 13.01 12.71 C18.83 7.27, 27.26 3.07, 36.36 1.78 C45.46 0.48, 61.88 3.95, 67.63 4.94 C73.39 5.94, 71.34 7.32, 70.89 7.76" stroke="none" stroke-width="0" fill="#ffec99"></path><path d="M47.08 -0.22 C55.03 -0.82, 65.63 2.08, 72.87 6.33 C80.11 10.58, 87.07 18.2, 90.51 25.29 C93.95 32.37, 94.64 41.17, 93.49 48.86 C92.35 56.54, 89.05 65.32, 83.65 71.38 C78.26 77.45, 69.27 83.05, 61.1 85.23 C52.94 87.41, 42.99 86.73, 34.68 84.46 C26.37 82.18, 16.94 77.48, 11.26 71.56 C5.59 65.64, 1.71 56.7, 0.65 48.94 C-0.42 41.17, 1.19 31.92, 4.85 24.97 C8.51 18.03, 14.62 11.44, 22.6 7.25 C30.57 3.07, 46.93 0.63, 52.7 -0.14 C58.46 -0.92, 57.24 1.85, 57.19 2.6" stroke="#1e1e1e" stroke-width="4.5" fill="none" stroke-dasharray="1.5 10"></path></g><g transform="translate(1406.5954178729644 774.8168311500999) rotate(0 10.331993103027344 22.5)"><text x="10.331993103027344" y="0" font-family="Virgil, Segoe UI Emoji" font-size="36px" fill="#1e1e1e" text-anchor="middle" style="white-space: pre;" direction="ltr" dominant-baseline="text-before-edge">F</text></g><g mask="url(#mask-sNT-ZcTkm69Q9Y6zclFfG)" stroke-linecap="round"><g transform="translate(1652.285140230887 699.9364705406583) rotate(0 -88.3624980062018 43.034603198359946)"><path d="M-0.66 -0.13 C-30.13 14.23, -147.41 72.69, -176.84 87.32 M1.2 -1.25 C-28.46 13.23, -148 70.85, -177.92 85.32" stroke="#1e1e1e" stroke-width="4" fill="none"></path></g></g><mask id="mask-sNT-ZcTkm69Q9Y6zclFfG"><rect x="0" y="0" fill="#fff" width="1928.8573686638656" height="887.0124749292854"></rect><rect x="1550.2290293713313" y="720.9744727349716" fill="#000" width="27.539993286132812" height="45" opacity="1"></rect></mask><g transform="translate(1550.2290293713313 720.9744727349716) rotate(0 13.693612853353898 21.996601004046624)"><text x="13.769996643066406" y="0" font-family="Virgil, Segoe UI Emoji" font-size="36px" fill="#e03131" text-anchor="middle" style="white-space: pre;" direction="ltr" dominant-baseline="text-before-edge">8</text></g><g stroke-linecap="round" transform="translate(1309.470284489168 986.6934391345326) rotate(0 47.144709127266196 43.25269195895635)"><path d="M63.89 3.88 C71.79 5.9, 80.23 11, 85.4 17.19 C90.56 23.38, 94.34 33.24, 94.88 41.02 C95.42 48.8, 93.04 57, 88.64 63.88 C84.23 70.75, 76.14 78.49, 68.44 82.28 C60.75 86.06, 50.71 87.27, 42.46 86.58 C34.2 85.88, 25.48 83.02, 18.91 78.12 C12.34 73.21, 5.83 64.61, 3.03 57.16 C0.23 49.72, 0.37 41.04, 2.11 33.47 C3.85 25.89, 7.51 17.21, 13.48 11.71 C19.44 6.22, 28.36 1.39, 37.91 0.5 C47.46 -0.39, 64.6 4.69, 70.78 6.37 C76.95 8.05, 75.45 9.96, 74.96 10.6 M56.29 1.41 C64.4 2.04, 75.08 5.47, 80.95 10.75 C86.81 16.04, 89.85 25.13, 91.49 33.11 C93.13 41.09, 93.19 51.49, 90.78 58.64 C88.38 65.79, 83.53 71.42, 77.06 76.02 C70.58 80.61, 60.27 85.06, 51.93 86.2 C43.6 87.33, 34.75 86.44, 27.05 82.81 C19.35 79.18, 10.16 71.15, 5.73 64.41 C1.31 57.66, -0.09 50.17, 0.51 42.34 C1.11 34.51, 4.57 23.83, 9.33 17.43 C14.09 11.03, 21.37 6.91, 29.09 3.93 C36.8 0.94, 51.28 -0.31, 55.62 -0.48 C59.97 -0.64, 55.03 1.81, 55.15 2.94" stroke="none" stroke-width="0" fill="#e7f5ff"></path><path d="M33.76 1.1 C41.41 -1.57, 53.23 -0.83, 61.55 1.58 C69.86 3.99, 78.11 9.64, 83.64 15.54 C89.16 21.45, 93.69 29.36, 94.7 37.01 C95.72 44.65, 93.4 54.37, 89.72 61.42 C86.04 68.47, 79.66 75.18, 72.62 79.32 C65.59 83.45, 55.87 86.13, 47.5 86.23 C39.13 86.34, 29.59 84.21, 22.37 79.94 C15.16 75.67, 7.95 67.68, 4.2 60.6 C0.44 53.52, -1.45 45.16, -0.15 37.48 C1.14 29.8, 5.32 20.73, 11.94 14.53 C18.56 8.33, 33.9 2.4, 39.57 0.26 C45.24 -1.87, 45.91 0.84, 45.97 1.72 M44.38 -0.49 C52.29 -1.35, 61.69 0.79, 69.2 5 C76.72 9.2, 85.15 17.6, 89.47 24.75 C93.79 31.89, 96.19 40.33, 95.12 47.87 C94.05 55.41, 88.44 64.13, 83.05 70 C77.67 75.87, 70.53 80.42, 62.8 83.09 C55.07 85.76, 45.19 87.64, 36.69 86.01 C28.2 84.38, 18.02 78.86, 11.85 73.32 C5.67 67.77, 1.02 60.25, -0.36 52.75 C-1.75 45.26, 0.13 35.54, 3.53 28.34 C6.93 21.15, 13.27 14.41, 20.02 9.56 C26.77 4.71, 40.04 0.63, 44.02 -0.78 C48 -2.19, 43.71 0.04, 43.88 1.09" stroke="#1e1e1e" stroke-width="4" fill="none"></path></g><g transform="translate(1343.350656321063 1007.3618593047381) rotate(0 13.427993774414062 22.5)"><text x="13.427993774414062" y="0" font-family="Virgil, Segoe UI Emoji" font-size="36px" fill="#1e1e1e" text-anchor="middle" style="white-space: pre;" direction="ltr" dominant-baseline="text-before-edge">W</text></g><g mask="url(#mask-wBbl1LMNzqkogOlkNqcHk)" stroke-linecap="round"><g transform="translate(1408.4348791149014 848.076519011483) rotate(0 -15.191592053252407 65.50476551050747)"><path d="M-0.05 -0.37 C-4.99 21.64, -25.36 110.49, -30.34 132.62 M-1.53 -1.61 C-6.02 20.04, -23.12 109.05, -28 131.07" stroke="#1e1e1e" stroke-width="4" fill="none"></path></g></g><mask id="mask-wBbl1LMNzqkogOlkNqcHk"><rect x="0" y="0" fill="#fff" width="1538.0588645721782" height="1079.604227606691"></rect><rect x="1379.852889743198" y="891.3403733090872" fill="#000" width="27.539993286132812" height="45" opacity="1"></rect></mask><g transform="translate(1379.852889743197 891.3403733090872) rotate(0 13.39039731845196 22.240911212903256)"><text x="13.769996643066406" y="0" font-family="Virgil, Segoe UI Emoji" font-size="36px" fill="#e03131" text-anchor="middle" style="white-space: pre;" direction="ltr" dominant-baseline="text-before-edge">8</text></g><g mask="url(#mask-P1TZFTWcTDr1idqI54Fi5)" stroke-linecap="round"><g transform="translate(1463.9443951542698 814.5517545296234) rotate(0 151.22914666304723 66.88337888417823)"><path d="M-0.71 1.09 C49.82 23.35, 252.39 111.11, 303.17 133.15 M1.11 0.62 C51.47 22.58, 251.68 109.66, 302.08 131.48" stroke="#1e1e1e" stroke-width="4" fill="none"></path></g></g><mask id="mask-P1TZFTWcTDr1idqI54Fi5"><rect x="0" y="0" fill="#fff" width="1867.3894267166133" height="1046.8318897867475"></rect><rect x="1601.8969142923752" y="858.1918221581855" fill="#000" width="27.539993286132812" height="45" opacity="1"></rect></mask><g transform="translate(1601.8969142923752 858.1918221581855) rotate(0 13.276627524941887 23.243311255616163)"><text x="13.769996643066406" y="0" font-family="Virgil, Segoe UI Emoji" font-size="36px" fill="#e03131" text-anchor="middle" style="white-space: pre;" direction="ltr" dominant-baseline="text-before-edge">8</text></g><g mask="url(#mask-Zi1GVCl0y6K2F5SK_0S83)" stroke-linecap="round"><g transform="translate(1304.105393541765 1022.624519611812) rotate(0 -76.69323065932485 -7.818024601385787)"><path d="M-0.27 0.87 C-25.91 -1.8, -128.66 -12.08, -154.52 -14.92 M1.79 0.28 C-23.9 -2.19, -128.81 -13.95, -155.17 -16.5" stroke="#1e1e1e" stroke-width="4" fill="none"></path></g></g><mask id="mask-Zi1GVCl0y6K2F5SK_0S83"><rect x="0" y="0" fill="#fff" width="1559.181465064049" height="1138.585676854345"></rect><rect x="1214.309362175155" y="992.1439409905456" fill="#000" width="24.5159912109375" height="45" opacity="1"></rect></mask><g transform="translate(1214.309362175154 992.1439409905456) rotate(0 13.102800707285951 22.662554019880645)"><text x="12.25799560546875" y="0" font-family="Virgil, Segoe UI Emoji" font-size="36px" fill="#e03131" text-anchor="middle" style="white-space: pre;" direction="ltr" dominant-baseline="text-before-edge">3</text></g><g stroke-linecap="round" transform="translate(709.3571320625842 1052.7843052195672) rotate(0 47.144709127266196 43.25269195895635)"><path d="M34.55 1.59 C42.41 -0.91, 54.1 0.42, 62.34 2.69 C70.59 4.97, 78.58 9.31, 84.01 15.26 C89.44 21.2, 94.15 30.61, 94.93 38.38 C95.71 46.15, 92.56 54.95, 88.67 61.88 C84.78 68.82, 78.71 75.78, 71.6 80.01 C64.49 84.23, 54.64 87.31, 46.01 87.25 C37.37 87.19, 26.87 84.05, 19.78 79.63 C12.68 75.22, 6.54 67.95, 3.43 60.74 C0.32 53.53, -0.4 44.15, 1.1 36.39 C2.6 28.62, 5.34 20.02, 12.43 14.13 C19.51 8.25, 37.3 3.44, 43.61 1.09 C49.93 -1.25, 50.27 -0.39, 50.29 0.06 M68.7 4.64 C76.31 7.83, 85.07 15.87, 89.22 22.52 C93.36 29.16, 94.08 36.74, 93.56 44.52 C93.05 52.29, 90.79 62.85, 86.12 69.17 C81.44 75.49, 73.55 79.57, 65.54 82.46 C57.52 85.35, 46.55 88.02, 38.05 86.51 C29.54 85.01, 20.69 78.7, 14.49 73.44 C8.29 68.18, 2.59 62.1, 0.83 54.95 C-0.94 47.81, 1.16 38.25, 3.89 30.56 C6.63 22.88, 10.99 13.72, 17.23 8.82 C23.47 3.93, 32.65 1.93, 41.34 1.2 C50.04 0.47, 64.76 3.48, 69.4 4.44 C74.03 5.4, 69.46 6.36, 69.15 6.96" stroke="none" stroke-width="0" fill="#e7f5ff"></path><path d="M40.6 0.01 C48.63 -1.69, 59.45 0.26, 67.3 3.63 C75.15 7.01, 83.2 13.74, 87.7 20.27 C92.21 26.8, 94.58 34.98, 94.32 42.81 C94.06 50.63, 90.69 60.62, 86.14 67.21 C81.6 73.8, 74.64 79.25, 67.02 82.34 C59.4 85.44, 48.76 86.7, 40.42 85.77 C32.08 84.84, 23.49 81.7, 16.99 76.76 C10.5 71.82, 4 63.82, 1.47 56.14 C-1.06 48.45, -0.49 38.27, 1.81 30.63 C4.11 23, 7.14 15.55, 15.28 10.31 C23.42 5.07, 43.11 0.4, 50.67 -0.79 C58.23 -1.98, 60.51 2.19, 60.66 3.18 M56.94 -0.08 C65.27 0.95, 74.95 7.48, 80.77 13.14 C86.6 18.8, 90.3 26.19, 91.87 33.88 C93.44 41.57, 92.86 51.79, 90.2 59.27 C87.53 66.75, 82.38 73.98, 75.88 78.74 C69.37 83.51, 59.81 87.55, 51.18 87.84 C42.55 88.14, 31.8 84.44, 24.1 80.53 C16.4 76.63, 8.99 70.92, 4.99 64.44 C1 57.96, -0.53 49.33, 0.12 41.65 C0.77 33.98, 3.67 25.02, 8.89 18.4 C14.11 11.78, 23.47 4.9, 31.45 1.94 C39.42 -1.02, 52.27 0.6, 56.72 0.63 C61.17 0.65, 58.39 1.17, 58.12 2.09" stroke="#1e1e1e" stroke-width="4" fill="none"></path></g><g transform="translate(745.7214974247527 1073.4527253897727) rotate(0 10.944000244140625 22.5)"><text x="10.944000244140625" y="0" font-family="Virgil, Segoe UI Emoji" font-size="36px" fill="#1e1e1e" text-anchor="middle" style="white-space: pre;" direction="ltr" dominant-baseline="text-before-edge">S</text></g><g mask="url(#mask-svGcmSMjCuJkQ-TRgsIax)" stroke-linecap="round"><g transform="translate(1039.6924434320672 1018.3437559363497) rotate(0 -112.80311477562827 35.712609695638776)"><path d="M0.02 0.21 C-37.33 12.28, -187.03 60.1, -224.41 72.16 M-1.43 -0.73 C-38.95 11.02, -188.34 58.48, -225.62 70.39" stroke="#1e1e1e" stroke-width="4" fill="none"></path></g></g><mask id="mask-svGcmSMjCuJkQ-TRgsIax"><rect x="0" y="0" fill="#fff" width="1363.583541975956" height="1189.8131190197987"></rect><rect x="916.2268975170564" y="1031.5784374780742" fill="#000" width="23.039993286132812" height="45" opacity="1"></rect></mask><g transform="translate(916.2268975170564 1031.5784374780742) rotate(0 10.662431139382534 22.477928153914263)"><text x="11.519996643066406" y="0" font-family="Virgil, Segoe UI Emoji" font-size="36px" fill="#e03131" text-anchor="middle" style="white-space: pre;" direction="ltr" dominant-baseline="text-before-edge">4</text></g><g stroke-linecap="round" transform="translate(1499.2627276351623 1197.8000128192848) rotate(0 47.144709127266196 43.25269195895635)"><path d="M60.03 1.27 C67.86 2.59, 75.54 7.66, 81.18 13.36 C86.82 19.06, 92.26 27.55, 93.9 35.47 C95.54 43.38, 94.46 53.46, 91.01 60.84 C87.56 68.22, 80.31 75.33, 73.2 79.74 C66.08 84.15, 56.64 87.12, 48.31 87.33 C39.97 87.54, 30.45 85.13, 23.19 81.01 C15.92 76.9, 8.45 69.59, 4.71 62.63 C0.97 55.68, -0.12 47.23, 0.75 39.28 C1.62 31.33, 4.59 21.24, 9.92 14.94 C15.25 8.63, 23.15 3.26, 32.71 1.47 C42.28 -0.33, 60.78 3.08, 67.3 4.16 C73.82 5.24, 72.31 7.2, 71.83 7.94 M63.51 3.5 C71.56 5.38, 80.18 9.86, 85.22 16 C90.26 22.15, 93.21 32.66, 93.77 40.37 C94.33 48.08, 92.57 55.27, 88.56 62.26 C84.55 69.25, 76.86 78.04, 69.73 82.29 C62.59 86.53, 54.25 88.5, 45.75 87.73 C37.25 86.97, 26.04 82.32, 18.75 77.68 C11.47 73.04, 4.88 67.11, 2.05 59.88 C-0.79 52.66, -0.3 41.87, 1.76 34.31 C3.81 26.75, 8.39 20.15, 14.37 14.52 C20.35 8.9, 29.69 2.46, 37.63 0.57 C45.56 -1.32, 57.87 2.55, 61.97 3.17 C66.07 3.8, 62.44 3.77, 62.23 4.32" stroke="none" stroke-width="0" fill="#e7f5ff"></path><path d="M40.77 -0.04 C48.41 -1.62, 58.59 1.29, 66.34 4.6 C74.09 7.92, 82.6 13.42, 87.26 19.86 C91.91 26.29, 94.25 35.26, 94.27 43.24 C94.29 51.21, 92.07 61, 87.36 67.69 C82.65 74.39, 73.9 80.42, 66.01 83.4 C58.12 86.39, 48.52 86.9, 40.03 85.59 C31.54 84.27, 21.48 80.72, 15.05 75.5 C8.63 70.27, 3.72 61.63, 1.46 54.23 C-0.8 46.83, -1.16 38.31, 1.5 31.12 C4.17 23.92, 9.79 16.39, 17.45 11.07 C25.11 5.75, 41.49 0.81, 47.47 -0.82 C53.45 -2.45, 53.49 0.4, 53.32 1.31 M56.69 2.35 C64.94 3.61, 75.06 8.59, 81.23 14.24 C87.4 19.89, 92.19 28.91, 93.7 36.24 C95.21 43.56, 93.6 51.17, 90.28 58.21 C86.97 65.25, 80.58 73.58, 73.82 78.48 C67.07 83.38, 58.12 87.08, 49.75 87.61 C41.37 88.14, 30.77 85.87, 23.56 81.68 C16.35 77.48, 10.41 69.53, 6.5 62.45 C2.59 55.36, -0.74 46.71, 0.08 39.15 C0.89 31.59, 6.27 23.03, 11.37 17.08 C16.46 11.14, 22.79 6.06, 30.65 3.49 C38.51 0.93, 54.14 2.15, 58.53 1.68 C62.91 1.22, 57.03 0.3, 56.96 0.7" stroke="#1e1e1e" stroke-width="4" fill="none"></path></g><g transform="translate(1537.265093485612 1218.4684329894903) rotate(0 9.305999755859375 22.5)"><text x="9.305999755859375" y="0" font-family="Virgil, Segoe UI Emoji" font-size="36px" fill="#1e1e1e" text-anchor="middle" style="white-space: pre;" direction="ltr" dominant-baseline="text-before-edge">V</text></g><g mask="url(#mask-DqBRiqYltgn9bC4oL2NJp)" stroke-linecap="round"><g transform="translate(1127.281290166301 1027.218048374672) rotate(0 184.8293555925402 94.58961840967595)"><path d="M0.49 0.03 C62.27 31.36, 308.52 157.36, 370.37 189.06 M-0.71 -1 C60.9 30.98, 307.16 158.67, 369.14 190.18" stroke="#1e1e1e" stroke-width="4" fill="none"></path></g></g><mask id="mask-DqBRiqYltgn9bC4oL2NJp"><rect x="0" y="0" fill="#fff" width="1598.1780514327484" height="1317.074329468067"></rect><rect x="1303.0456726916136" y="1099.6461889213697" fill="#000" width="19.367996215820312" height="45" opacity="1"></rect></mask><g transform="translate(1303.0456726916145 1099.6461889213697) rotate(0 9.064973067226674 22.161477862978245)"><text x="9.683998107910156" y="0" font-family="Virgil, Segoe UI Emoji" font-size="36px" fill="#e03131" text-anchor="middle" style="white-space: pre;" direction="ltr" dominant-baseline="text-before-edge">7</text></g><g stroke-linecap="round" transform="translate(784.9522151504052 1277.7801344406867) rotate(0 47.144709127266196 43.25269195895635)"><path d="M32.86 2.93 C40.17 0.24, 50.29 0.21, 58.4 2.18 C66.52 4.15, 75.65 9.03, 81.57 14.74 C87.49 20.45, 92.46 28.86, 93.94 36.45 C95.43 44.03, 93.77 53.01, 90.5 60.23 C87.23 67.46, 81.42 75.6, 74.33 79.82 C67.23 84.03, 56.47 85.55, 47.93 85.53 C39.39 85.52, 30.1 83.49, 23.09 79.71 C16.08 75.94, 9.78 69.74, 5.85 62.87 C1.93 56.01, -1.23 46.21, -0.46 38.54 C0.31 30.87, 4.49 23.12, 10.49 16.87 C16.48 10.63, 31.1 3.5, 35.53 1.04 C39.97 -1.42, 36.88 1.26, 37.08 2.11 M33.21 0.64 C40.71 -2, 51.04 0.44, 59.48 2.99 C67.92 5.54, 78.25 10.41, 83.86 15.94 C89.46 21.48, 92.25 28.53, 93.12 36.19 C93.98 43.84, 92.28 54.7, 89.06 61.86 C85.84 69.02, 80.54 74.79, 73.79 79.13 C67.04 83.48, 57 87.93, 48.55 87.96 C40.1 87.99, 30.64 83.6, 23.11 79.3 C15.58 75.01, 7.23 69.02, 3.36 62.21 C-0.5 55.4, -1.26 46.31, -0.07 38.44 C1.12 30.58, 4.88 21.25, 10.51 15.03 C16.13 8.82, 29.78 3.11, 33.66 1.15 C37.53 -0.81, 33.5 2.41, 33.74 3.27" stroke="none" stroke-width="0" fill="#e7f5ff"></path><path d="M60.53 1.49 C68.53 3.19, 78.1 9.76, 83.57 15.83 C89.05 21.9, 92.34 30.39, 93.39 37.9 C94.44 45.41, 93.52 53.96, 89.88 60.89 C86.24 67.81, 78.75 75.33, 71.54 79.44 C64.34 83.56, 55.07 85.49, 46.65 85.57 C38.24 85.64, 27.97 83.86, 21.06 79.9 C14.14 75.93, 8.51 69.09, 5.15 61.8 C1.8 54.51, -0.17 43.98, 0.91 36.16 C2 28.35, 6.27 20.6, 11.67 14.92 C17.07 9.24, 24.71 4.3, 33.32 2.08 C41.92 -0.14, 58.05 1.43, 63.29 1.62 C68.54 1.81, 65.01 2.38, 64.8 3.22 M62.69 1.83 C70.28 3.61, 78.58 10.81, 83.83 17.37 C89.08 23.92, 93.43 33.28, 94.18 41.16 C94.92 49.04, 92.17 58.13, 88.31 64.64 C84.45 71.15, 78.42 76.65, 71.01 80.23 C63.6 83.81, 52.28 86.43, 43.87 86.11 C35.45 85.79, 27.46 82.73, 20.53 78.31 C13.6 73.88, 5.43 66.8, 2.28 59.54 C-0.87 52.29, -0.14 42.77, 1.63 34.77 C3.41 26.76, 6.82 17.34, 12.92 11.51 C19.01 5.68, 29.73 1.16, 38.21 -0.21 C46.68 -1.58, 59.49 2.62, 63.77 3.29 C68.04 3.96, 64.4 3.02, 63.88 3.82" stroke="#1e1e1e" stroke-width="4" fill="none"></path></g><g transform="translate(820.0565860057377 1298.4485546108922) rotate(0 12.203994750976562 22.5)"><text x="12.203994750976562" y="0" font-family="Virgil, Segoe UI Emoji" font-size="36px" fill="#1e1e1e" text-anchor="middle" style="white-space: pre;" direction="ltr" dominant-baseline="text-before-edge">R</text></g><g mask="url(#mask-EiGxBxM8hT-FNdzdeUg2U)" stroke-linecap="round"><g transform="translate(760.6815617086568 1144.1623966372113) rotate(0 27.149242568480076 63.60994914286346)"><path d="M-0.3 -0.02 C8.68 21.3, 45.23 107.15, 54.6 128.3 M1.74 -1.08 C10.48 19.88, 44.47 105.12, 53.46 126.63" stroke="#1e1e1e" stroke-width="4" fill="none"></path></g></g><mask id="mask-EiGxBxM8hT-FNdzdeUg2U"><rect x="0" y="0" fill="#fff" width="915.6391581859607" height="1371.6037851629512"></rect><rect x="775.3443656846139" y="1185.3830909000812" fill="#000" width="25.631988525390625" height="45" opacity="1"></rect></mask><g transform="translate(775.3443656846139 1185.3830909000812) rotate(0 12.486438592522973 22.389254879993473)"><text x="12.815994262695312" y="0" font-family="Virgil, Segoe UI Emoji" font-size="36px" fill="#e03131" text-anchor="middle" style="white-space: pre;" direction="ltr" dominant-baseline="text-before-edge">2</text></g><g stroke-linecap="round" transform="translate(447.81730022219836 1159.4790356242552) rotate(0 47.144709127266196 43.25269195895635)"><path d="M65.74 4.07 C73.45 6.28, 81.02 12.55, 85.84 19.01 C90.67 25.47, 94.54 35.24, 94.71 42.83 C94.88 50.41, 91.29 58.1, 86.88 64.52 C82.46 70.95, 75.57 77.67, 68.23 81.36 C60.89 85.04, 51.45 87.39, 42.86 86.65 C34.26 85.9, 23.43 81.73, 16.66 76.89 C9.9 72.06, 4.7 65.13, 2.29 57.63 C-0.12 50.14, 0.13 39.57, 2.2 31.93 C4.28 24.29, 8.51 16.92, 14.74 11.79 C20.98 6.65, 30.7 2.33, 39.6 1.13 C48.51 -0.08, 62.76 3.58, 68.16 4.57 C73.56 5.56, 72.4 6.45, 72 7.06 M66.95 3.74 C74.1 6.36, 81.47 14.91, 86.16 21.59 C90.85 28.27, 94.9 35.95, 95.09 43.82 C95.27 51.69, 91.96 62.39, 87.28 68.82 C82.59 75.25, 75.11 79.45, 66.97 82.41 C58.83 85.37, 47.08 87.58, 38.43 86.57 C29.78 85.56, 21.32 81.69, 15.07 76.33 C8.82 70.98, 3.03 62.22, 0.92 54.42 C-1.2 46.62, -0.3 36.83, 2.38 29.53 C5.06 22.22, 10.45 15.4, 17 10.58 C23.54 5.77, 33.28 1.88, 41.64 0.64 C50.01 -0.6, 63.13 2.45, 67.18 3.14 C71.23 3.84, 66.22 3.98, 65.93 4.81" stroke="none" stroke-width="0" fill="#e7f5ff"></path><path d="M65.77 3.12 C73.35 5.35, 80.61 12.5, 85.3 18.89 C90 25.28, 93.66 33.56, 93.92 41.45 C94.17 49.34, 91.04 59.31, 86.81 66.23 C82.58 73.14, 76.03 79.73, 68.53 82.92 C61.02 86.11, 50.36 86.42, 41.78 85.36 C33.2 84.3, 23.77 81.37, 17.06 76.58 C10.35 71.79, 4.01 64.21, 1.52 56.62 C-0.97 49.04, -0.24 38.77, 2.12 31.05 C4.47 23.34, 9.29 15.37, 15.65 10.31 C22.02 5.25, 30.75 1.28, 40.31 0.71 C49.86 0.13, 66.62 5.2, 72.98 6.87 C79.33 8.55, 79.07 10.29, 78.44 10.76 M49.6 0.88 C57.87 0.37, 69.11 2.99, 76.01 7.39 C82.91 11.8, 87.86 19.85, 90.99 27.32 C94.13 34.79, 96.63 44.37, 94.83 52.22 C93.02 60.08, 86.23 68.83, 80.15 74.45 C74.07 80.07, 66.63 84.56, 58.35 85.93 C50.08 87.3, 38.37 85.61, 30.48 82.68 C22.6 79.76, 16.04 74.24, 11.04 68.38 C6.04 62.52, 1.29 55.02, 0.49 47.52 C-0.31 40.02, 2.52 30.12, 6.25 23.36 C9.98 16.6, 15.62 11, 22.86 6.94 C30.1 2.89, 45.35 -0.03, 49.69 -0.95 C54.02 -1.88, 49 0.4, 48.9 1.39" stroke="#1e1e1e" stroke-width="4" fill="none"></path></g><g transform="translate(482.4356710164957 1180.1474557944607) rotate(0 12.689994812011719 22.5)"><text x="12.689994812011719" y="0" font-family="Virgil, Segoe UI Emoji" font-size="36px" fill="#1e1e1e" text-anchor="middle" style="white-space: pre;" direction="ltr" dominant-baseline="text-before-edge">Q</text></g><g mask="url(#mask-bjI1PU-4cOpTk_-dMUq4U)" stroke-linecap="round"><g transform="translate(790.5436286463837 1295.9068677148439) rotate(0 -120.8796901087162 -40.17027952849526)"><path d="M0.83 -0.12 C-39.56 -13.4, -201.03 -66.99, -241.36 -80.22 M-0.19 -1.23 C-40.87 -14.36, -202.28 -66.44, -242.59 -79.3" stroke="#1e1e1e" stroke-width="4" fill="none"></path></g></g><mask id="mask-bjI1PU-4cOpTk_-dMUq4U"><rect x="0" y="0" fill="#fff" width="1131.3815022390627" height="1474.9444158864171"></rect><rect x="657.3086975873484" y="1233.888093629057" fill="#000" width="25.631988525390625" height="45" opacity="1"></rect></mask><g transform="translate(657.3086975873484 1233.888093629057) rotate(0 12.355240950319057 21.848494557291588)"><text x="12.815994262695312" y="0" font-family="Virgil, Segoe UI Emoji" font-size="36px" fill="#e03131" text-anchor="middle" style="white-space: pre;" direction="ltr" dominant-baseline="text-before-edge">2</text></g><g stroke-linecap="round" transform="translate(384.39798096785944 943.2486981602701) rotate(0 47.144709127266196 43.25269195895635)"><path d="M52.97 -0.53 C61.01 -0.37, 71.32 4.5, 78.04 9.81 C84.76 15.12, 91 23.73, 93.27 31.32 C95.55 38.91, 94.21 47.79, 91.68 55.36 C89.15 62.93, 84.25 71.69, 78.09 76.73 C71.92 81.76, 63.18 84.55, 54.71 85.59 C46.25 86.63, 35.05 86.03, 27.3 82.97 C19.55 79.91, 12.87 73.87, 8.22 67.24 C3.57 60.61, -0.53 51.08, -0.59 43.18 C-0.64 35.28, 3.37 26.43, 7.9 19.84 C12.43 13.24, 17.81 6.51, 26.58 3.61 C35.36 0.71, 53.98 2.43, 60.53 2.45 C67.07 2.47, 66.29 3.32, 65.87 3.74 M63.44 3.8 C71.33 5.59, 80.3 9.91, 85.23 15.89 C90.15 21.86, 92.43 31.66, 92.99 39.67 C93.56 47.68, 92.43 57.14, 88.61 63.94 C84.79 70.74, 77.32 76.83, 70.09 80.47 C62.85 84.1, 53.58 85.97, 45.22 85.75 C36.86 85.53, 26.83 83.47, 19.91 79.13 C12.98 74.8, 6.94 67.26, 3.7 59.74 C0.45 52.23, -0.91 41.8, 0.42 34.05 C1.76 26.3, 5.8 18.72, 11.7 13.24 C17.59 7.76, 27.4 2.8, 35.79 1.18 C44.18 -0.44, 57.62 3.12, 62.04 3.51 C66.45 3.9, 62.54 2.88, 62.29 3.52" stroke="none" stroke-width="0" fill="#e7f5ff"></path><path d="M40.55 0.68 C48.68 -0.61, 60.4 1.69, 68.23 4.83 C76.06 7.97, 83.19 13.01, 87.55 19.52 C91.9 26.03, 94.64 35.9, 94.35 43.89 C94.06 51.88, 90.43 61.12, 85.81 67.47 C81.19 73.82, 74.28 79.04, 66.63 81.98 C58.98 84.93, 48.25 86.2, 39.92 85.16 C31.58 84.11, 22.86 80.71, 16.61 75.71 C10.37 70.7, 4.7 62.73, 2.45 55.12 C0.19 47.5, 0.78 37.62, 3.07 30.03 C5.36 22.44, 9.6 14.54, 16.18 9.57 C22.76 4.61, 37.8 1.7, 42.54 0.23 C47.29 -1.24, 44.51 -0.07, 44.66 0.77 M34.67 2.26 C42.08 -0.29, 50.95 0.47, 58.99 2.58 C67.02 4.7, 77.24 9.54, 82.9 14.97 C88.56 20.41, 91.5 27.77, 92.95 35.17 C94.39 42.57, 94.82 51.93, 91.59 59.39 C88.36 66.84, 80.71 75.33, 73.55 79.91 C66.39 84.49, 57.37 86.6, 48.62 86.85 C39.88 87.09, 28.47 85.71, 21.09 81.37 C13.71 77.03, 7.95 67.98, 4.34 60.78 C0.73 53.59, -1.59 45.65, -0.57 38.2 C0.45 30.75, 4.65 22.25, 10.47 16.07 C16.28 9.88, 30.3 3.35, 34.33 1.08 C38.37 -1.19, 34.4 1.54, 34.65 2.46" stroke="#1e1e1e" stroke-width="4" fill="none"></path></g><g transform="translate(419.8083515790513 963.9171183304757) rotate(0 11.897994995117188 22.5)"><text x="11.897994995117188" y="0" font-family="Virgil, Segoe UI Emoji" font-size="36px" fill="#1e1e1e" text-anchor="middle" style="white-space: pre;" direction="ltr" dominant-baseline="text-before-edge">P</text></g><g mask="url(#mask-L0GNOPR8vIY1oKQCM00uu)" stroke-linecap="round"><g transform="translate(467.61045907454445 1156.6903494196008) rotate(0 -14.590336337247209 -60.343841898588835)"><path d="M-1.12 -0.59 C-5.89 -20.66, -24.36 -100.72, -28.92 -120.87 M0.49 1.71 C-4.38 -18.63, -24.78 -101.51, -29.67 -122.4" stroke="#1e1e1e" stroke-width="4" fill="none"></path></g></g><mask id="mask-L0GNOPR8vIY1oKQCM00uu"><rect x="0" y="0" fill="#fff" width="596.9137631344956" height="1378.6976406005547"></rect><rect x="440.14281278187354" y="1073.1867038291239" fill="#000" width="25.631988525390625" height="45" opacity="1"></rect></mask><g transform="translate(440.14281278187354 1073.1867038291239) rotate(0 12.877309955423698 23.1598036918881)"><text x="12.815994262695312" y="0" font-family="Virgil, Segoe UI Emoji" font-size="36px" fill="#e03131" text-anchor="middle" style="white-space: pre;" direction="ltr" dominant-baseline="text-before-edge">2</text></g><g stroke-linecap="round" transform="translate(30.902029869236685 672.7949629289446) rotate(0 47.144709127266196 43.25269195895635)"><path d="M31.28 2.36 C38.54 -0.51, 50.02 0.38, 58.51 2.18 C66.99 3.98, 76.41 7.58, 82.17 13.16 C87.93 18.74, 91.53 27.85, 93.08 35.67 C94.62 43.48, 94.67 52.94, 91.43 60.07 C88.19 67.2, 80.62 74.05, 73.64 78.42 C66.66 82.79, 58.1 86.01, 49.57 86.3 C41.05 86.6, 29.74 83.96, 22.48 80.2 C15.22 76.43, 9.55 70.68, 5.99 63.72 C2.43 56.76, 0.46 46.46, 1.11 38.43 C1.77 30.4, 4.06 21.62, 9.93 15.52 C15.8 9.42, 31.43 4.08, 36.33 1.84 C41.23 -0.4, 39.1 1.37, 39.34 2.1 M38.2 1.67 C46.08 -0.39, 56.41 0.39, 64.38 3.08 C72.35 5.77, 81.04 11.29, 86.02 17.82 C91 24.34, 93.93 34.26, 94.26 42.22 C94.59 50.18, 92.39 59.15, 88 65.57 C83.61 72, 75.75 77.36, 67.91 80.77 C60.07 84.17, 49.34 86.66, 40.94 86.02 C32.54 85.38, 23.99 81.55, 17.5 76.91 C11.02 72.26, 4.68 65.46, 2.03 58.14 C-0.62 50.82, -0.5 40.58, 1.6 32.98 C3.69 25.38, 8.4 17.93, 14.6 12.56 C20.8 7.19, 34.64 2.56, 38.8 0.76 C42.96 -1.04, 39.46 1.18, 39.56 1.76" stroke="none" stroke-width="0" fill="#e7f5ff"></path><path d="M63.1 2.61 C70.75 4.73, 78.6 11.21, 83.84 17.24 C89.09 23.26, 93.74 31.18, 94.58 38.75 C95.43 46.32, 92.82 55.6, 88.91 62.65 C84.99 69.7, 78.38 77.07, 71.08 81.07 C63.79 85.07, 53.56 87.21, 45.11 86.65 C36.66 86.09, 27.45 82.44, 20.38 77.72 C13.3 72.99, 5.86 65.46, 2.64 58.28 C-0.58 51.09, -0.85 42.2, 1.07 34.63 C2.98 27.07, 8.15 18.34, 14.15 12.87 C20.15 7.41, 27.45 2.88, 37.06 1.85 C46.67 0.81, 64.71 4.58, 71.81 6.67 C78.92 8.75, 79.97 13.8, 79.69 14.34 M61.97 1.15 C69.92 2.73, 80.17 8.94, 85.58 15.4 C90.99 21.87, 93.72 31.9, 94.42 39.93 C95.11 47.95, 93.91 56.52, 89.74 63.56 C85.57 70.6, 76.94 78.53, 69.4 82.17 C61.86 85.82, 52.96 85.97, 44.51 85.42 C36.06 84.87, 25.67 83.11, 18.7 78.85 C11.74 74.58, 5.5 67.29, 2.72 59.82 C-0.05 52.36, 0.1 41.86, 2.04 34.05 C3.97 26.24, 8.43 18.37, 14.34 12.99 C20.24 7.6, 29.22 3.53, 37.46 1.74 C45.71 -0.05, 59.57 1.87, 63.8 2.23 C68.03 2.59, 63.04 3.38, 62.84 3.91" stroke="#1e1e1e" stroke-width="4" fill="none"></path></g><g transform="translate(65.35839810005746 693.4633830991502) rotate(0 12.851997375488281 22.5)"><text x="12.851997375488281" y="0" font-family="Virgil, Segoe UI Emoji" font-size="36px" fill="#1e1e1e" text-anchor="middle" style="white-space: pre;" direction="ltr" dominant-baseline="text-before-edge">U</text></g><g mask="url(#mask-D2FKn4AzW-ks4pFxXHoOx)" stroke-linecap="round"><g transform="translate(387.36830029302564 959.627468687811) rotate(0 -133.75016955266938 -104.57563129327195)"><path d="M-0.98 0.08 C-45.67 -34.87, -222.97 -174.57, -267.3 -209.23 M0.7 -0.92 C-44.21 -35.78, -223.5 -173.28, -268.2 -208.12" stroke="#1e1e1e" stroke-width="4" fill="none"></path></g></g><mask id="mask-D2FKn4AzW-ks4pFxXHoOx"><rect x="0" y="0" fill="#fff" width="754.7630070468576" height="1268.0632815194613"></rect><rect x="241.4129513106409" y="832.909562271986" fill="#000" width="24.5159912109375" height="45" opacity="1"></rect></mask><g transform="translate(241.4129513106409 832.909562271986) rotate(0 12.205179429715372 22.142275122552974)"><text x="12.25799560546875" y="0" font-family="Virgil, Segoe UI Emoji" font-size="36px" fill="#e03131" text-anchor="middle" style="white-space: pre;" direction="ltr" dominant-baseline="text-before-edge">3</text></g><g stroke-linecap="round" transform="translate(185.4025428933992 516.3643070100184) rotate(0 47.144709127266196 43.25269195895635)"><path d="M67.02 4.52 C74.58 7.31, 83.42 14.41, 87.86 20.94 C92.31 27.48, 93.86 36.05, 93.69 43.73 C93.53 51.42, 91.63 60.6, 86.89 67.07 C82.14 73.53, 72.92 79.22, 65.2 82.52 C57.48 85.82, 48.67 88.11, 40.56 86.86 C32.46 85.62, 23.09 80.53, 16.56 75.05 C10.02 69.57, 3.64 61.34, 1.34 53.99 C-0.95 46.63, 0.24 38.13, 2.8 30.92 C5.35 23.72, 10.1 15.73, 16.67 10.76 C23.23 5.79, 33.01 1.9, 42.18 1.08 C51.35 0.25, 66.02 4.39, 71.7 5.82 C77.37 7.25, 76.45 9.01, 76.21 9.66 M44.23 0.66 C52.25 -0.23, 63.05 2.28, 70.4 5.8 C77.75 9.31, 84.58 14.96, 88.33 21.75 C92.07 28.53, 93.53 38.55, 92.89 46.49 C92.26 54.44, 89.52 63, 84.5 69.43 C79.49 75.86, 70.74 82.35, 62.8 85.08 C54.86 87.81, 45.12 87.56, 36.85 85.79 C28.57 84.02, 19.1 80.08, 13.14 74.46 C7.18 68.85, 2.64 59.86, 1.08 52.11 C-0.47 44.36, 0.81 35.37, 3.82 27.96 C6.82 20.56, 12.28 12.47, 19.09 7.66 C25.9 2.86, 40.48 0.51, 44.67 -0.85 C48.85 -2.21, 44.49 -1.24, 44.22 -0.48" stroke="none" stroke-width="0" fill="#e7f5ff"></path><path d="M55.68 -0.13 C63.8 0.77, 73.82 6.29, 80.13 11.78 C86.44 17.28, 91.43 25.4, 93.55 32.85 C95.67 40.3, 95.74 49.23, 92.83 56.48 C89.93 63.73, 82.88 71.38, 76.11 76.35 C69.34 81.32, 60.45 85.39, 52.22 86.28 C44 87.17, 34.27 85.07, 26.75 81.69 C19.23 78.31, 11.65 72.68, 7.1 66 C2.55 59.31, -0.76 49.31, -0.57 41.56 C-0.37 33.82, 3.27 25.98, 8.27 19.52 C13.26 13.05, 20.94 5.74, 29.39 2.76 C37.84 -0.22, 53.69 1.71, 58.96 1.62 C64.23 1.53, 61.46 1.44, 61.02 2.22 M28.98 3.99 C35.86 0.59, 45.17 0.93, 53.39 1.92 C61.62 2.92, 71.96 4.93, 78.33 9.97 C84.7 15, 89.41 24.36, 91.62 32.15 C93.83 39.94, 93.75 49.48, 91.59 56.71 C89.42 63.93, 84.84 70.65, 78.63 75.5 C72.42 80.36, 62.75 84.62, 54.34 85.85 C45.93 87.08, 35.87 86.21, 28.18 82.88 C20.48 79.55, 12.8 72.49, 8.17 65.88 C3.54 59.28, 0.24 51.2, 0.42 43.26 C0.61 35.33, 4.89 24.82, 9.28 18.25 C13.68 11.69, 23.73 5.94, 26.78 3.88 C29.84 1.81, 26.95 5.42, 27.61 5.85" stroke="#1e1e1e" stroke-width="4" fill="none"></path></g><g transform="translate(223.40490874384886 537.0327271802239) rotate(0 9.305999755859375 22.5)"><text x="9.305999755859375" y="0" font-family="Virgil, Segoe UI Emoji" font-size="36px" fill="#1e1e1e" text-anchor="middle" style="white-space: pre;" direction="ltr" dominant-baseline="text-before-edge">V</text></g><g mask="url(#mask-Ahkcy3EjKy-P6PCuMYK_3)" stroke-linecap="round"><g transform="translate(125.40782239863165 673.2970129817272) rotate(0 34.24920764821081 -34.18955629587822)"><path d="M-1.01 0.1 C10.14 -11.13, 55.74 -55.68, 67.32 -66.87 M0.66 -0.89 C12.13 -12.49, 58.32 -57.15, 69.51 -68.48" stroke="#1e1e1e" stroke-width="4" fill="none"></path></g></g><mask id="mask-Ahkcy3EjKy-P6PCuMYK_3"><rect x="0" y="0" fill="#fff" width="293.71725243307174" height="841.1237067214174"></rect><rect x="146.74654315315638" y="616.8836661118821" fill="#000" width="25.631988525390625" height="45" opacity="1"></rect></mask><g transform="translate(146.74654315315638 616.8836661118821) rotate(0 12.910486893686084 22.22379057396688)"><text x="12.815994262695312" y="0" font-family="Virgil, Segoe UI Emoji" font-size="36px" fill="#e03131" text-anchor="middle" style="white-space: pre;" direction="ltr" dominant-baseline="text-before-edge">2</text></g><g stroke-linecap="round" transform="translate(1190.3954801170503 218.8746494737111) rotate(0 47.144709127266196 43.25269195895635)"><path d="M58.62 1.02 C66.58 2.13, 74.39 7.14, 80.34 12.94 C86.29 18.74, 92.39 28.2, 94.31 35.83 C96.22 43.47, 95.18 51.81, 91.84 58.78 C88.5 65.74, 81.2 72.94, 74.26 77.64 C67.32 82.34, 58.66 86.35, 50.2 86.99 C41.74 87.62, 30.83 85.28, 23.51 81.44 C16.19 77.6, 10.23 71.08, 6.28 63.93 C2.34 56.78, -0.85 46.51, -0.16 38.57 C0.53 30.63, 5.02 22.4, 10.42 16.3 C15.82 10.19, 22.88 3.98, 32.23 1.93 C41.57 -0.12, 59.63 2.87, 66.49 3.99 C73.35 5.12, 73.63 8.01, 73.39 8.68 M50.78 -0.01 C58.93 0.33, 69.71 4.31, 76.48 9.41 C83.26 14.52, 88.66 23.16, 91.42 30.62 C94.17 38.08, 95.08 46.65, 93.01 54.17 C90.95 61.68, 85.23 70.44, 79.03 75.72 C72.82 81, 63.95 84.56, 55.77 85.85 C47.59 87.14, 37.84 86.56, 29.94 83.47 C22.04 80.38, 13.27 73.89, 8.36 67.32 C3.45 60.74, 0.8 51.92, 0.48 44.01 C0.17 36.1, 2.47 26.55, 6.46 19.89 C10.45 13.22, 16.62 7.47, 24.44 4 C32.26 0.53, 48.87 -0.22, 53.38 -0.91 C57.88 -1.6, 51.85 -1.27, 51.46 -0.14" stroke="none" stroke-width="0" fill="#e7f5ff"></path><path d="M51.3 -0.4 C59.19 -0.65, 68.01 3.16, 74.69 7.9 C81.37 12.63, 88.14 20.62, 91.37 27.99 C94.59 35.35, 95.73 44.33, 94.03 52.07 C92.33 59.81, 87.37 68.89, 81.16 74.45 C74.94 80, 65.17 83.68, 56.75 85.41 C48.33 87.14, 38.49 87.6, 30.65 84.83 C22.81 82.06, 14.71 75.13, 9.73 68.81 C4.76 62.49, 1.42 54.68, 0.81 46.91 C0.19 39.14, 2.25 28.95, 6.03 22.17 C9.82 15.39, 15.36 9.76, 23.53 6.22 C31.7 2.69, 48.74 1.45, 55.06 0.97 C61.38 0.49, 61.43 2.8, 61.46 3.34 M67.18 4.98 C74.64 8.01, 82.33 15.25, 87.03 21.72 C91.74 28.19, 95.4 36.18, 95.42 43.81 C95.43 51.45, 91.94 60.87, 87.14 67.52 C82.33 74.17, 74.43 80.7, 66.57 83.72 C58.71 86.74, 48.48 86.98, 39.97 85.64 C31.46 84.29, 21.71 81.09, 15.53 75.65 C9.36 70.22, 5.34 60.62, 2.91 53 C0.48 45.38, -1.32 36.93, 0.94 29.94 C3.21 22.95, 9.54 16.2, 16.48 11.07 C23.42 5.93, 33.96 0.25, 42.58 -0.86 C51.21 -1.97, 63.83 3.23, 68.24 4.43 C72.65 5.62, 69.52 5.77, 69.04 6.33" stroke="#1e1e1e" stroke-width="4" fill="none"></path></g><g transform="translate(1226.9218480426953 239.54306964391662) rotate(0 10.781997680664062 22.5)"><text x="10.781997680664062" y="0" font-family="Virgil, Segoe UI Emoji" font-size="36px" fill="#1e1e1e" text-anchor="middle" style="white-space: pre;" direction="ltr" dominant-baseline="text-before-edge">L</text></g><g mask="url(#mask-5bmBy1HInZk-Uh8L-jqO5)" stroke-linecap="round"><g transform="translate(922.6320911321664 371.5738303476587) rotate(0 131.00203500696625 -46.24449032533062)"><path d="M0.26 1.18 C43.68 -14.57, 217.29 -77.99, 260.67 -93.67 M-1.06 0.75 C42.74 -14.93, 219.05 -77.11, 263.06 -92.48" stroke="#1e1e1e" stroke-width="4" fill="none"></path></g></g><mask id="mask-5bmBy1HInZk-Uh8L-jqO5"><rect x="0" y="0" fill="#fff" width="1283.9033158979846" height="564.5750407821529"></rect><rect x="1042.1437105951527" y="302.57322513041163" fill="#000" width="22.24798583984375" height="45" opacity="1"></rect></mask><g transform="translate(1042.1437105951536 302.57322513041163) rotate(0 11.490415543978997 22.756114891916468)"><text x="11.123992919921875" y="0" font-family="Virgil, Segoe UI Emoji" font-size="36px" fill="#e03131" text-anchor="middle" style="white-space: pre;" direction="ltr" dominant-baseline="text-before-edge">5</text></g><g mask="url(#mask-PHL9p40UZVcbMUxr_pDC5)" stroke-linecap="round"><g transform="translate(1290.5402356235963 285.6700967041884) rotate(0 266.5012710507167 311.26676014199506)"><path d="M-0.6 -0.67 C64.63 16.8, 302.62 2.01, 391.65 105.98 C480.69 209.96, 509.99 537.04, 533.61 623.2 M1.28 1.6 C66.88 19.79, 305.37 4.3, 393.97 107.6 C482.56 210.89, 509.6 535.83, 532.85 621.35" stroke="#1e1e1e" stroke-width="4" fill="none"></path></g></g><mask id="mask-PHL9p40UZVcbMUxr_pDC5"><rect x="0" y="0" fill="#fff" width="1924.129260924924" height="1007.9341590921244"></rect><rect x="1660.4438505284697" y="369.01362959744574" fill="#000" width="44.99998474121094" height="45" opacity="1"></rect></mask><g transform="translate(1660.4438505284697 369.01362959744574) rotate(0 -103.4023438541567 227.9232272487377)"><text x="22.49999237060547" y="0" font-family="Virgil, Segoe UI Emoji" font-size="36px" fill="#e03131" text-anchor="middle" style="white-space: pre;" direction="ltr" dominant-baseline="text-before-edge">27</text></g><g stroke-linecap="round" transform="translate(1765.9805996723544 914.3480684366164) rotate(0 47.144709127266196 43.25269195895635)"><path d="M67.42 3.6 C74.93 6.45, 83.63 14.41, 88.08 21.3 C92.52 28.2, 94.23 37.14, 94.08 44.97 C93.92 52.79, 91.94 62.03, 87.14 68.25 C82.35 74.48, 73.22 79.42, 65.32 82.31 C57.41 85.2, 47.93 86.83, 39.72 85.57 C31.51 84.31, 22.43 79.92, 16.06 74.75 C9.68 69.58, 3.85 62, 1.47 54.55 C-0.91 47.1, -0.9 37.48, 1.77 30.06 C4.45 22.65, 10.87 15.07, 17.54 10.06 C24.21 5.06, 32.45 0.53, 41.78 0.03 C51.12 -0.47, 67.31 4.93, 73.56 7.08 C79.82 9.23, 79.67 12.23, 79.34 12.92 M64.62 4.13 C72.34 6.32, 80.79 12.22, 85.84 18.48 C90.9 24.75, 94.64 34.06, 94.94 41.71 C95.24 49.37, 91.99 57.9, 87.65 64.43 C83.31 70.96, 76.45 77.5, 68.89 80.91 C61.32 84.31, 51.03 85.6, 42.26 84.86 C33.49 84.11, 22.68 81.23, 16.27 76.41 C9.87 71.6, 6.39 63.44, 3.83 55.96 C1.28 48.48, -0.81 38.66, 0.94 31.52 C2.69 24.37, 7.9 18.25, 14.32 13.08 C20.74 7.92, 31.15 2.41, 39.44 0.53 C47.73 -1.35, 60.03 1.1, 64.06 1.82 C68.09 2.54, 63.86 3.69, 63.62 4.84" stroke="none" stroke-width="0" fill="#e7f5ff"></path><path d="M48.01 0.74 C55.86 0.2, 65.32 2.66, 72.31 6.96 C79.3 11.26, 86.36 19.51, 89.97 26.55 C93.58 33.59, 95.1 41.59, 93.98 49.2 C92.85 56.81, 88.82 66.35, 83.23 72.2 C77.65 78.06, 68.89 82.11, 60.47 84.33 C52.04 86.55, 41.02 87.64, 32.69 85.51 C24.36 83.39, 15.78 77.55, 10.47 71.56 C5.17 65.58, 1.83 57.51, 0.85 49.62 C-0.12 41.73, 0.96 31.41, 4.63 24.23 C8.3 17.06, 15.09 10.67, 22.86 6.56 C30.62 2.45, 45.63 0.47, 51.22 -0.41 C56.82 -1.29, 56.32 0.33, 56.42 1.28 M35.09 2.32 C42.62 -0.34, 53.44 -0.67, 61.45 1.54 C69.47 3.75, 77.54 9.82, 83.17 15.56 C88.79 21.31, 94.31 28.35, 95.22 35.99 C96.12 43.63, 92.54 53.91, 88.62 61.42 C84.7 68.93, 78.49 77.04, 71.69 81.04 C64.88 85.03, 56.11 85.63, 47.8 85.38 C39.48 85.14, 28.83 83.41, 21.8 79.56 C14.77 75.71, 9.28 69.46, 5.61 62.29 C1.94 55.11, -1.26 44.23, -0.21 36.5 C0.85 28.78, 6.16 21.86, 11.95 15.92 C17.74 9.98, 30.9 2.97, 34.53 0.88 C38.16 -1.22, 33.68 2.72, 33.74 3.35" stroke="#1e1e1e" stroke-width="4" fill="none"></path></g><g transform="translate(1799.5009708938978 935.0164886068219) rotate(0 13.787994384765625 22.5)"><text x="13.787994384765625" y="0" font-family="Virgil, Segoe UI Emoji" font-size="36px" fill="#1e1e1e" text-anchor="middle" style="white-space: pre;" direction="ltr" dominant-baseline="text-before-edge">M</text></g><g transform="translate(10 10) rotate(0 992.3115844726562 69.24852437350683)"><text x="0" y="0" font-family="Virgil, Segoe UI Emoji" font-size="55.398819498805445px" fill="#1e1e1e" text-anchor="start" style="white-space: pre;" direction="ltr" dominant-baseline="text-before-edge">Mapa das cidades para algoritmo A*</text><text x="0" y="69.24852437350681" font-family="Virgil, Segoe UI Emoji" font-size="55.398819498805445px" fill="#1e1e1e" text-anchor="start" style="white-space: pre;" direction="ltr" dominant-baseline="text-before-edge">Distancias entre ns (vermelho) e entre o destino (preto no topo do n)</text></g><g transform="translate(849.1679637329316 302.9527107337776) rotate(0 15.839996337890625 22.5)"><text x="0" y="0" font-family="Virgil, Segoe UI Emoji" font-size="36px" fill="#1e1e1e" text-anchor="start" style="white-space: pre;" direction="ltr" dominant-baseline="text-before-edge">19</text></g><g transform="translate(459.3169759394432 317.3528119339003) rotate(0 15.839996337890625 22.5)"><text x="0" y="0" font-family="Virgil, Segoe UI Emoji" font-size="36px" fill="#1e1e1e" text-anchor="start" style="white-space: pre;" direction="ltr" dominant-baseline="text-before-edge">19</text></g><g transform="translate(456.3059276815102 615.8598706024145) rotate(0 16.397994995117188 22.5)"><text x="0" y="0" font-family="Virgil, Segoe UI Emoji" font-size="36px" fill="#1e1e1e" text-anchor="start" style="white-space: pre;" direction="ltr" dominant-baseline="text-before-edge">16</text></g><g transform="translate(868.8772449064372 542.397040555999) rotate(0 17.13599395751953 22.5)"><text x="0" y="0" font-family="Virgil, Segoe UI Emoji" font-size="36px" fill="#1e1e1e" text-anchor="start" style="white-space: pre;" direction="ltr" dominant-baseline="text-before-edge">13</text></g><g transform="translate(1143.0977143152404 339.830245007804) rotate(0 17.13599395751953 22.5)"><text x="0" y="0" font-family="Virgil, Segoe UI Emoji" font-size="36px" fill="#1e1e1e" text-anchor="start" style="white-space: pre;" direction="ltr" dominant-baseline="text-before-edge">13</text></g><g transform="translate(1210.1842068742762 583.6323765028333) rotate(0 9.755996704101562 22.5)"><text x="0" y="0" font-family="Virgil, Segoe UI Emoji" font-size="36px" fill="#1e1e1e" text-anchor="start" style="white-space: pre;" direction="ltr" dominant-baseline="text-before-edge">11</text></g><g transform="translate(1438.121380443862 326.98479263574654) rotate(0 10.961997985839844 22.5)"><text x="0" y="0" font-family="Virgil, Segoe UI Emoji" font-size="36px" fill="#1e1e1e" text-anchor="start" style="white-space: pre;" direction="ltr" dominant-baseline="text-before-edge">9</text></g><g transform="translate(1477.273546988995 555.2087556926867) rotate(0 9.755996704101562 22.5)"><text x="0" y="0" font-family="Virgil, Segoe UI Emoji" font-size="36px" fill="#1e1e1e" text-anchor="start" style="white-space: pre;" direction="ltr" dominant-baseline="text-before-edge">11</text></g><g transform="translate(1662.4402585052185 551.5566999624821) rotate(0 9.755996704101562 22.5)"><text x="0" y="0" font-family="Virgil, Segoe UI Emoji" font-size="36px" fill="#1e1e1e" text-anchor="start" style="white-space: pre;" direction="ltr" dominant-baseline="text-before-edge">11</text></g><g transform="translate(1394.4569635494472 715.2075944964213) rotate(0 12.383995056152344 22.5)"><text x="0" y="0" font-family="Virgil, Segoe UI Emoji" font-size="36px" fill="#1e1e1e" text-anchor="start" style="white-space: pre;" direction="ltr" dominant-baseline="text-before-edge">0</text></g><g transform="translate(1345.1281971185263 942.9845391845388) rotate(0 11.123992919921875 22.5)"><text x="0" y="0" font-family="Virgil, Segoe UI Emoji" font-size="36px" fill="#1e1e1e" text-anchor="start" style="white-space: pre;" direction="ltr" dominant-baseline="text-before-edge">5</text></g><g transform="translate(1074.989009216456 901.6732944580885) rotate(0 9.683998107910156 22.5)"><text x="0" y="0" font-family="Virgil, Segoe UI Emoji" font-size="36px" fill="#1e1e1e" text-anchor="start" style="white-space: pre;" direction="ltr" dominant-baseline="text-before-edge">7</text></g><g transform="translate(746.0824294672666 999.7811749517673) rotate(0 9.755996704101562 22.5)"><text x="0" y="0" font-family="Virgil, Segoe UI Emoji" font-size="36px" fill="#1e1e1e" text-anchor="start" style="white-space: pre;" direction="ltr" dominant-baseline="text-before-edge">11</text></g><g transform="translate(825.0820762999128 1229.8016457928547) rotate(0 9.755996704101562 22.5)"><text x="0" y="0" font-family="Virgil, Segoe UI Emoji" font-size="36px" fill="#1e1e1e" text-anchor="start" style="white-space: pre;" direction="ltr" dominant-baseline="text-before-edge">11</text></g><g transform="translate(482.9021664281454 1115.187822888061) rotate(0 10.961997985839844 22.5)"><text x="0" y="0" font-family="Virgil, Segoe UI Emoji" font-size="36px" fill="#1e1e1e" text-anchor="start" style="white-space: pre;" direction="ltr" dominant-baseline="text-before-edge">9</text></g><g transform="translate(418.20268815565487 894.3776173065266) rotate(0 10.961997985839844 22.5)"><text x="0" y="0" font-family="Virgil, Segoe UI Emoji" font-size="36px" fill="#1e1e1e" text-anchor="start" style="white-space: pre;" direction="ltr" dominant-baseline="text-before-edge">9</text></g><g transform="translate(58.57219328204792 630.1307211694179) rotate(0 17.261993408203125 22.5)"><text x="0" y="0" font-family="Virgil, Segoe UI Emoji" font-size="36px" fill="#1e1e1e" text-anchor="start" style="white-space: pre;" direction="ltr" dominant-baseline="text-before-edge">10</text></g><g transform="translate(220.65473965608817 468.38598043461525) rotate(0 13.769996643066406 22.5)"><text x="0" y="0" font-family="Virgil, Segoe UI Emoji" font-size="36px" fill="#1e1e1e" text-anchor="start" style="white-space: pre;" direction="ltr" dominant-baseline="text-before-edge">8</text></g><g transform="translate(1217.5529068628339 169.07766242575553) rotate(0 18.647994995117188 22.5)"><text x="0" y="0" font-family="Virgil, Segoe UI Emoji" font-size="36px" fill="#1e1e1e" text-anchor="start" style="white-space: pre;" direction="ltr" dominant-baseline="text-before-edge">18</text></g><g transform="translate(1782.0877256080958 870.3482714050092) rotate(0 10.961997985839844 22.5)"><text x="0" y="0" font-family="Virgil, Segoe UI Emoji" font-size="36px" fill="#1e1e1e" text-anchor="start" style="white-space: pre;" direction="ltr" dominant-baseline="text-before-edge">9</text></g><g transform="translate(1532.7948590544902 1151.3372706009209) rotate(0 13.769996643066406 22.5)"><text x="0" y="0" font-family="Virgil, Segoe UI Emoji" font-size="36px" fill="#1e1e1e" text-anchor="start" style="white-space: pre;" direction="ltr" dominant-baseline="text-before-edge">8</text></g><g mask="url(#mask-cDSAT9q2J6xs4B6I5fpwF)" stroke-linecap="round"><g transform="translate(404.44407385408977 939.94938037786) rotate(0 -19.608792081663523 -64.20114397296152)"><path d="M0.49 -0.9 C-5.85 -22.7, -32.42 -108.34, -38.81 -129.65 M-0.71 1.24 C-7.13 -19.84, -33.49 -106.17, -39.71 -128.15" stroke="#1e1e1e" stroke-width="4" fill="none"></path></g></g><mask id="mask-cDSAT9q2J6xs4B6I5fpwF"><rect x="0" y="0" fill="#fff" width="543.3382871250769" height="1169.520416320555"></rect><rect x="372.73897161312743" y="852.6638624065126" fill="#000" width="24.5159912109375" height="45" opacity="1"></rect></mask><g transform="translate(372.73897161312743 852.6638624065126) rotate(0 12.09631015929881 23.0843739983859)"><text x="12.25799560546875" y="0" font-family="Virgil, Segoe UI Emoji" font-size="36px" fill="#e03131" text-anchor="middle" style="white-space: pre;" direction="ltr" dominant-baseline="text-before-edge">3</text></g><g stroke-linecap="round" transform="translate(285.99725966153255 726.3533192497903) rotate(0 47.144709127266196 43.25269195895635)"><path d="M40.69 1.12 C48.68 -0.68, 58.54 0.12, 66.01 3.05 C73.48 5.98, 80.71 12.16, 85.52 18.7 C90.32 25.24, 94.39 34.24, 94.83 42.28 C95.27 50.32, 92.85 60.23, 88.15 66.92 C83.45 73.62, 74.45 79.41, 66.63 82.47 C58.82 85.53, 49.63 86.14, 41.24 85.28 C32.85 84.41, 22.76 82.19, 16.28 77.27 C9.8 72.36, 4.82 63.34, 2.35 55.8 C-0.13 48.26, -0.68 39.61, 1.42 32.05 C3.52 24.49, 8.17 15.9, 14.96 10.45 C21.75 5, 37.24 0.89, 42.14 -0.66 C47.04 -2.22, 44.19 0.27, 44.38 1.13 M54.01 -0.52 C62.09 -0.1, 70.65 5.27, 76.83 10.3 C83.02 15.33, 88.52 21.91, 91.12 29.63 C93.71 37.35, 94.4 48.79, 92.41 56.64 C90.42 64.48, 85.42 71.6, 79.16 76.69 C72.9 81.78, 63.26 85.98, 54.86 87.19 C46.47 88.41, 36.82 87.23, 28.8 83.97 C20.77 80.72, 11.62 74.54, 6.73 67.66 C1.84 60.78, -0.75 50.46, -0.56 42.7 C-0.38 34.93, 3.18 27.46, 7.83 21.06 C12.48 14.65, 19.67 7.55, 27.33 4.26 C35 0.98, 49.3 1.66, 53.81 1.34 C58.31 1.03, 54.74 2.06, 54.38 2.38" stroke="none" stroke-width="0" fill="#e7f5ff"></path><path d="M67.02 4.52 C74.58 7.31, 83.42 14.41, 87.86 20.94 C92.31 27.48, 93.86 36.05, 93.69 43.73 C93.53 51.42, 91.63 60.6, 86.89 67.07 C82.14 73.53, 72.92 79.22, 65.2 82.52 C57.48 85.82, 48.67 88.11, 40.56 86.86 C32.46 85.62, 23.09 80.53, 16.56 75.05 C10.02 69.57, 3.64 61.34, 1.34 53.99 C-0.95 46.63, 0.24 38.13, 2.8 30.92 C5.35 23.72, 10.1 15.73, 16.67 10.76 C23.23 5.79, 33.01 1.9, 42.18 1.08 C51.35 0.25, 66.02 4.39, 71.7 5.82 C77.37 7.25, 76.45 9.01, 76.21 9.66 M44.23 0.66 C52.25 -0.23, 63.05 2.28, 70.4 5.8 C77.75 9.31, 84.58 14.96, 88.33 21.75 C92.07 28.53, 93.53 38.55, 92.89 46.49 C92.26 54.44, 89.52 63, 84.5 69.43 C79.49 75.86, 70.74 82.35, 62.8 85.08 C54.86 87.81, 45.12 87.56, 36.85 85.79 C28.57 84.02, 19.1 80.08, 13.14 74.46 C7.18 68.85, 2.64 59.86, 1.08 52.11 C-0.47 44.36, 0.81 35.37, 3.82 27.96 C6.82 20.56, 12.28 12.47, 19.09 7.66 C25.9 2.86, 40.48 0.51, 44.67 -0.85 C48.85 -2.21, 44.49 -1.24, 44.22 -0.48" stroke="#1e1e1e" stroke-width="4" fill="none"></path></g><g transform="translate(321.7136300285838 747.0217394199958) rotate(0 11.591995239257812 22.5)"><text x="11.591995239257812" y="0" font-family="Virgil, Segoe UI Emoji" font-size="36px" fill="#1e1e1e" text-anchor="middle" style="white-space: pre;" direction="ltr" dominant-baseline="text-before-edge">N</text></g><g mask="url(#mask-y1Duoh5WXiQ3W1PSPxWd0)" stroke-linecap="round"><g transform="translate(815.1628805144883 356.32668813213377) rotate(0 -233.46195403469483 133.42718777835648)"><path d="M-0.55 -0.5 C-71.61 -15.05, -349.45 -148.3, -425.3 -86.47 C-501.14 -24.63, -450.42 294.12, -455.61 370.5 M1.37 -1.81 C-69.91 -16.77, -349.81 -150.39, -426.05 -88.18 C-502.29 -25.97, -451.03 295.16, -456.08 371.45" stroke="#1e1e1e" stroke-width="4" fill="none"></path></g></g><mask id="mask-y1Duoh5WXiQ3W1PSPxWd0"><rect x="0" y="0" fill="#fff" width="1371.3351491970498" height="914.7720776586634"></rect><rect x="371.80177390014796" y="246.59196903470502" fill="#000" width="35.38798522949219" height="45" opacity="1"></rect></mask><g transform="translate(371.80177390014796 246.59196903470502) rotate(0 209.8991525796455 243.16190687578523)"><text x="17.693992614746094" y="0" font-family="Virgil, Segoe UI Emoji" font-size="36px" fill="#e03131" text-anchor="middle" style="white-space: pre;" direction="ltr" dominant-baseline="text-before-edge">12</text></g><g transform="translate(302.5419049956354 674.4761389471946) rotate(0 9.755996704101562 22.5)"><text x="0" y="0" font-family="Virgil, Segoe UI Emoji" font-size="36px" fill="#1e1e1e" text-anchor="start" style="white-space: pre;" direction="ltr" dominant-baseline="text-before-edge">11</text></g></svg>